ISO-10303-21;
HEADER;
FILE_DESCRIPTION (( 'STEP AP203' ),
    '1' );
FILE_NAME ('1-front.STEP',
    '2025-11-05T19:17:03',
    ( '' ),
    ( '' ),
    'SwSTEP 2.0',
    'SolidWorks 2025',
    '' );
FILE_SCHEMA (( 'CONFIG_CONTROL_DESIGN' ));
ENDSEC;

DATA;
#1 = ADVANCED_FACE ( 'NONE', ( #127 ), #49, .T. ) ;
#2 = LINE ( 'NONE', #226, #207 ) ;
#3 = CARTESIAN_POINT ( 'NONE',  ( 0.000000000000000000, 0.000000000000000000, 0.000000000000000000 ) ) ;
#4 = EDGE_LOOP ( 'NONE', ( #358, #537, #245, #192 ) ) ;
#5 = LINE ( 'NONE', #507, #686 ) ;
#6 = CARTESIAN_POINT ( 'NONE',  ( 214.1400000000000432, -134.7133217793096094, -14.05000000000000071 ) ) ;
#7 = ADVANCED_FACE ( 'NONE', ( #386 ), #660, .T. ) ;
#8 = EDGE_LOOP ( 'NONE', ( #632, #117, #434, #532 ) ) ;
#9 = DIRECTION ( 'NONE',  ( -1.000000000000000000, -0.000000000000000000, -0.000000000000000000 ) ) ;
#10 = CARTESIAN_POINT ( 'NONE',  ( 434.2226406871192808, -22.96208152801711933, -9.050000000000007816 ) ) ;
#11 = VECTOR ( 'NONE', #816, 1000.000000000000000 ) ;
#12 = ORIENTED_EDGE ( 'NONE', *, *, #627, .T. ) ;
#13 = CARTESIAN_POINT ( 'NONE',  ( 12.54620887067673785, -133.9303719267109614, -14.05000000000000071 ) ) ;
#14 = EDGE_CURVE ( 'NONE', #388, #624, #488, .T. ) ;
#15 = ORIENTED_EDGE ( 'NONE', *, *, #198, .F. ) ;
#16 = CARTESIAN_POINT ( 'NONE',  ( 4.299999999999999822, -4.299999999999999822, 1.500000000000000000 ) ) ;
#17 = AXIS2_PLACEMENT_3D ( 'NONE', #40, #369, #116 ) ;
#18 = CARTESIAN_POINT ( 'NONE',  ( 4.300000000000000711, -125.1388816817956808, 1.500000000000000000 ) ) ;
#19 = ORIENTED_EDGE ( 'NONE', *, *, #1036, .T. ) ;
#20 = DIRECTION ( 'NONE',  ( 0.000000000000000000, 0.000000000000000000, 1.000000000000000000 ) ) ;
#21 = EDGE_CURVE ( 'NONE', #769, #711, #410, .T. ) ;
#22 = AXIS2_PLACEMENT_3D ( 'NONE', #812, #724, #157 ) ;
#23 = AXIS2_PLACEMENT_3D ( 'NONE', #898, #652, #917 ) ;
#24 = FACE_OUTER_BOUND ( 'NONE', #379, .T. ) ;
#25 = ORIENTED_EDGE ( 'NONE', *, *, #279, .T. ) ;
#26 = PLANE ( 'NONE',  #505 ) ;
#27 = ORIENTED_EDGE ( 'NONE', *, *, #173, .F. ) ;
#28 = PERSON_AND_ORGANIZATION ( #18446744073709551615, #18446744073709551615 ) ;
#29 = ORIENTED_EDGE ( 'NONE', *, *, #824, .T. ) ;
#30 = DIRECTION ( 'NONE',  ( 1.000000000000000000, 0.000000000000000000, -3.154042683594192655E-16 ) ) ;
#31 = APPROVAL_ROLE ( '' ) ;
#32 = VECTOR ( 'NONE', #750, 1000.000000000000114 ) ;
#33 = VERTEX_POINT ( 'NONE', #647 ) ;
#34 = CARTESIAN_POINT ( 'NONE',  ( 4.299999999999999822, -4.299999999999999822, 1.500000000000000000 ) ) ;
#35 = ORIENTED_EDGE ( 'NONE', *, *, #185, .T. ) ;
#36 = CARTESIAN_POINT ( 'NONE',  ( 45.76000000000001933, -14.22654878189439920, -11.75000000000000000 ) ) ;
#37 = COORDINATED_UNIVERSAL_TIME_OFFSET ( 1, 0, .AHEAD. ) ;
#38 = APPROVAL_PERSON_ORGANIZATION ( #372, #935, #610 ) ;
#39 = VERTEX_POINT ( 'NONE', #324 ) ;
#40 = CARTESIAN_POINT ( 'NONE',  ( 0.000000000000000000, 0.000000000000000000, 0.000000000000000000 ) ) ;
#41 = EDGE_LOOP ( 'NONE', ( #587, #613 ) ) ;
#42 = FACE_OUTER_BOUND ( 'NONE', #406, .T. ) ;
#43 = ORIENTED_EDGE ( 'NONE', *, *, #802, .F. ) ;
#44 = DIRECTION ( 'NONE',  ( -0.000000000000000000, 1.000000000000000000, -0.000000000000000000 ) ) ;
#45 = EDGE_CURVE ( 'NONE', #881, #982, #758, .T. ) ;
#46 = ORIENTED_EDGE ( 'NONE', *, *, #185, .F. ) ;
#47 = PLANE ( 'NONE',  #545 ) ;
#48 = DATE_TIME_ROLE ( 'classification_date' ) ;
#49 = PLANE ( 'NONE',  #435 ) ;
#50 = CARTESIAN_POINT ( 'NONE',  ( -0.1000000000000000056, -126.9614213562372811, -14.05000000000000071 ) ) ;
#51 = ORIENTED_EDGE ( 'NONE', *, *, #651, .T. ) ;
#52 = CARTESIAN_POINT ( 'NONE',  ( -1.700000000000000178, -127.6241630560342486, 1.500000000000000000 ) ) ;
#53 = VECTOR ( 'NONE', #382, 1000.000000000000000 ) ;
#54 = DIRECTION ( 'NONE',  ( 0.000000000000000000, 0.000000000000000000, 1.000000000000000000 ) ) ;
#55 = VECTOR ( 'NONE', #580, 1000.000000000000000 ) ;
#56 = LINE ( 'NONE', #738, #66 ) ;
#57 = ORIENTED_EDGE ( 'NONE', *, *, #779, .T. ) ;
#58 = DIRECTION ( 'NONE',  ( 0.000000000000000000, 0.000000000000000000, 1.000000000000000000 ) ) ;
#59 = CARTESIAN_POINT ( 'NONE',  ( 434.2226406871192808, -102.9620815280171087, -7.550000000000007816 ) ) ;
#60 = DIRECTION ( 'NONE',  ( 1.000000000000000000, 0.000000000000000000, -0.000000000000000000 ) ) ;
#61 = ORIENTED_EDGE ( 'NONE', *, *, #95, .F. ) ;
#62 = DIRECTION ( 'NONE',  ( 0.000000000000000000, 0.000000000000000000, 1.000000000000000000 ) ) ;
#63 = LINE ( 'NONE', #757, #494 ) ;
#64 = ADVANCED_FACE ( 'NONE', ( #742 ), #831, .F. ) ;
#65 = DIRECTION ( 'NONE',  ( 0.000000000000000000, 1.000000000000000000, 0.000000000000000000 ) ) ;
#66 = VECTOR ( 'NONE', #227, 1000.000000000000000 ) ;
#67 = CARTESIAN_POINT ( 'NONE',  ( -0.1000000000000000056, -126.9614213562372811, -14.05000000000000071 ) ) ;
#68 = ORIENTED_EDGE ( 'NONE', *, *, #208, .F. ) ;
#69 = CARTESIAN_POINT ( 'NONE',  ( 423.9799999999999613, -4.299999999999999822, 1.500000000000000000 ) ) ;
#70 = DIRECTION ( 'NONE',  ( -0.000000000000000000, -0.000000000000000000, 1.000000000000000000 ) ) ;
#71 = PLANE ( 'NONE',  #582 ) ;
#72 = CARTESIAN_POINT ( 'NONE',  ( 0.000000000000000000, 0.000000000000000000, 1.500000000000000000 ) ) ;
#73 = VERTEX_POINT ( 'NONE', #667 ) ;
#74 = CARTESIAN_POINT ( 'NONE',  ( 412.6880995769276410, -134.7133217793096094, 0.000000000000000000 ) ) ;
#75 = VECTOR ( 'NONE', #567, 1000.000000000000000 ) ;
#76 = CARTESIAN_POINT ( 'NONE',  ( 5.268950570473669437, -132.3303719267109670, -14.05000000000000071 ) ) ;
#77 = EDGE_CURVE ( 'NONE', #1058, #769, #985, .T. ) ;
#78 = DIRECTION ( 'NONE',  ( 0.7071067811865483499, -0.7071067811865467956, 0.000000000000000000 ) ) ;
#79 = ADVANCED_FACE ( 'NONE', ( #305 ), #71, .F. ) ;
#80 = ORIENTED_EDGE ( 'NONE', *, *, #972, .F. ) ;
#81 = FACE_OUTER_BOUND ( 'NONE', #553, .T. ) ;
#82 = FACE_OUTER_BOUND ( 'NONE', #844, .T. ) ;
#83 = EDGE_CURVE ( 'NONE', #942, #607, #1003, .T. ) ;
#84 = ORIENTED_EDGE ( 'NONE', *, *, #867, .T. ) ;
#85 = VECTOR ( 'NONE', #692, 1000.000000000000000 ) ;
#86 = CARTESIAN_POINT ( 'NONE',  ( -0.09999999999998898659, -102.9620815280171087, -7.550000000000007816 ) ) ;
#87 = DIRECTION ( 'NONE',  ( -1.000000000000000000, 0.000000000000000000, 0.000000000000000000 ) ) ;
#88 = FACE_OUTER_BOUND ( 'NONE', #4, .T. ) ;
#89 = ORIENTED_EDGE ( 'NONE', *, *, #1072, .F. ) ;
#90 = CYLINDRICAL_SURFACE ( 'NONE', #310, 1.499999999999999556 ) ;
#91 = VECTOR ( 'NONE', #164, 1000.000000000000000 ) ;
#92 = EDGE_CURVE ( 'NONE', #141, #590, #243, .T. ) ;
#93 = DIRECTION ( 'NONE',  ( 0.7071067811865474617, -0.7071067811865474617, 0.000000000000000000 ) ) ;
#94 = EDGE_CURVE ( 'NONE', #344, #881, #907, .T. ) ;
#95 = EDGE_CURVE ( 'NONE', #73, #982, #311, .T. ) ;
#96 = ORIENTED_EDGE ( 'NONE', *, *, #94, .T. ) ;
#97 = DIRECTION ( 'NONE',  ( -1.000000000000000000, -0.000000000000000000, -0.000000000000000000 ) ) ;
#98 = DIRECTION ( 'NONE',  ( -1.000000000000000000, 0.000000000000000000, 3.154042683594192655E-16 ) ) ;
#99 = AXIS2_PLACEMENT_3D ( 'NONE', #785, #631, #101 ) ;
#100 = ORIENTED_EDGE ( 'NONE', *, *, #546, .T. ) ;
#101 = DIRECTION ( 'NONE',  ( 0.000000000000000000, 0.000000000000000000, 1.000000000000000000 ) ) ;
#102 = COORDINATED_UNIVERSAL_TIME_OFFSET ( 1, 0, .AHEAD. ) ;
#103 = CIRCLE ( 'NONE', #931, 1.499999999999999556 ) ;
#104 = CC_DESIGN_APPROVAL ( #304, ( #897 ) ) ;
#105 = EDGE_CURVE ( 'NONE', #426, #457, #2, .T. ) ;
#106 = AXIS2_PLACEMENT_3D ( 'NONE', #163, #664, #155 ) ;
#107 = ORIENTED_EDGE ( 'NONE', *, *, #1007, .F. ) ;
#108 = DIRECTION ( 'NONE',  ( 7.177836520139454383E-18, -1.000000000000000000, 0.000000000000000000 ) ) ;
#109 = PERSON_AND_ORGANIZATION_ROLE ( 'creator' ) ;
#110 = ORIENTED_EDGE ( 'NONE', *, *, #1036, .F. ) ;
#111 = CARTESIAN_POINT ( 'NONE',  ( 214.1400000000000432, 1.700000000000000178, 1.500000000000000000 ) ) ;
#112 = ORIENTED_EDGE ( 'NONE', *, *, #1053, .F. ) ;
#113 = COORDINATED_UNIVERSAL_TIME_OFFSET ( 1, 0, .AHEAD. ) ;
#114 = VECTOR ( 'NONE', #753, 1000.000000000000000 ) ;
#115 = ORIENTED_EDGE ( 'NONE', *, *, #14, .F. ) ;
#116 = DIRECTION ( 'NONE',  ( 1.000000000000000000, 0.000000000000000000, -0.000000000000000000 ) ) ;
#117 = ORIENTED_EDGE ( 'NONE', *, *, #362, .F. ) ;
#118 = CARTESIAN_POINT ( 'NONE',  ( 214.1400000000000432, -134.7133217793096094, -14.05000000000000071 ) ) ;
#119 = PERSON_AND_ORGANIZATION ( #18446744073709551615, #18446744073709551615 ) ;
#120 = EDGE_CURVE ( 'NONE', #711, #879, #563, .T. ) ;
#121 = EDGE_CURVE ( 'NONE', #869, #426, #398, .T. ) ;
#122 = AXIS2_PLACEMENT_3D ( 'NONE', #213, #550, #639 ) ;
#123 = VERTEX_POINT ( 'NONE', #481 ) ;
#124 = LINE ( 'NONE', #34, #1047 ) ;
#125 = EDGE_LOOP ( 'NONE', ( #1030, #600, #129, #929 ) ) ;
#126 = CARTESIAN_POINT ( 'NONE',  ( 7.091490244915269692, -127.9303719267109472, 1.500000000000000000 ) ) ;
#127 = FACE_OUTER_BOUND ( 'NONE', #714, .T. ) ;
#128 = CARTESIAN_POINT ( 'NONE',  ( 40.26000000000001933, 1.700000000000000178, -4.750000000000000888 ) ) ;
#129 = ORIENTED_EDGE ( 'NONE', *, *, #256, .F. ) ;
#130 = FACE_BOUND ( 'NONE', #41, .T. ) ;
#131 = AXIS2_PLACEMENT_3D ( 'NONE', #145, #818, #564 ) ;
#132 = ORIENTED_EDGE ( 'NONE', *, *, #21, .T. ) ;
#133 = CARTESIAN_POINT ( 'NONE',  ( 434.2226406871192808, -102.9620815280171087, -10.55000000000000782 ) ) ;
#134 = ORIENTED_EDGE ( 'NONE', *, *, #695, .F. ) ;
#135 = DIRECTION ( 'NONE',  ( -1.000000000000000000, 0.000000000000000000, 0.000000000000000000 ) ) ;
#136 = FACE_OUTER_BOUND ( 'NONE', #953, .T. ) ;
#137 = AXIS2_PLACEMENT_3D ( 'NONE', #962, #467, #460 ) ;
#138 = DIRECTION ( 'NONE',  ( 0.000000000000000000, 0.000000000000000000, 1.000000000000000000 ) ) ;
#139 = CIRCLE ( 'NONE', #422, 1.499999999999999556 ) ;
#140 = DIRECTION ( 'NONE',  ( 0.000000000000000000, 0.000000000000000000, 1.000000000000000000 ) ) ;
#141 = VERTEX_POINT ( 'NONE', #817 ) ;
#142 = CARTESIAN_POINT ( 'NONE',  ( 4.299999999999999822, -4.299999999999999822, 1.500000000000000000 ) ) ;
#143 = DIRECTION ( 'NONE',  ( 0.000000000000000000, -1.000000000000000000, 0.000000000000000000 ) ) ;
#144 = CARTESIAN_POINT ( 'NONE',  ( 17.41444009751397104, -130.3133217793096037, 1.500000000000000000 ) ) ;
#145 = CARTESIAN_POINT ( 'NONE',  ( 7.091490244915269692, -127.9303719267109472, 1.500000000000000000 ) ) ;
#146 = ORIENTED_EDGE ( 'NONE', *, *, #156, .T. ) ;
#147 = DIRECTION ( 'NONE',  ( -0.000000000000000000, -0.000000000000000000, -1.000000000000000000 ) ) ;
#148 = DIRECTION ( 'NONE',  ( 0.000000000000000000, 0.000000000000000000, 1.000000000000000000 ) ) ;
#149 = CARTESIAN_POINT ( 'NONE',  ( 214.1400000000000432, -136.3133217793096037, 1.500000000000000000 ) ) ;
#150 = VECTOR ( 'NONE', #203, 1000.000000000000000 ) ;
#151 = DIRECTION ( 'NONE',  ( 0.7071067811865474617, -0.7071067811865474617, 0.000000000000000000 ) ) ;
#152 = ORIENTED_EDGE ( 'NONE', *, *, #105, .T. ) ;
#153 = FACE_BOUND ( 'NONE', #1017, .T. ) ;
#154 = EDGE_CURVE ( 'NONE', #941, #769, #329, .T. ) ;
#155 = DIRECTION ( 'NONE',  ( 0.000000000000000000, -0.000000000000000000, 1.000000000000000000 ) ) ;
#156 = EDGE_CURVE ( 'NONE', #700, #751, #1073, .T. ) ;
#157 = DIRECTION ( 'NONE',  ( 0.000000000000000000, -0.000000000000000000, -1.000000000000000000 ) ) ;
#158 = EDGE_CURVE ( 'NONE', #909, #894, #569, .T. ) ;
#159 = VECTOR ( 'NONE', #575, 1000.000000000000000 ) ;
#160 = ORIENTED_EDGE ( 'NONE', *, *, #795, .T. ) ;
#161 = CARTESIAN_POINT ( 'NONE',  ( -1.700000000000000178, -127.6241630560342486, -14.05000000000000071 ) ) ;
#162 = VECTOR ( 'NONE', #978, 1000.000000000000000 ) ;
#163 = CARTESIAN_POINT ( 'NONE',  ( -1.700000000000000178, 1.700000000000000178, -14.05000000000000071 ) ) ;
#164 = DIRECTION ( 'NONE',  ( -0.000000000000000000, -0.000000000000000000, -1.000000000000000000 ) ) ;
#165 = ORIENTED_EDGE ( 'NONE', *, *, #609, .T. ) ;
#166 = LINE ( 'NONE', #1001, #1009 ) ;
#167 = CARTESIAN_POINT ( 'NONE',  ( 14.92915872327539262, -136.3133217793096037, -14.05000000000000071 ) ) ;
#168 = ORIENTED_EDGE ( 'NONE', *, *, #208, .T. ) ;
#169 = CIRCLE ( 'NONE', #680, 3.499999999999998668 ) ;
#170 = DIRECTION ( 'NONE',  ( 0.000000000000000000, -1.000000000000000000, 0.000000000000000000 ) ) ;
#171 = ADVANCED_FACE ( 'NONE', ( #509 ), #515, .T. ) ;
#172 = CARTESIAN_POINT ( 'NONE',  ( -1.700000000000000178, 1.700000000000000178, 1.500000000000000000 ) ) ;
#173 = EDGE_CURVE ( 'NONE', #678, #881, #685, .T. ) ;
#174 = ORIENTED_EDGE ( 'NONE', *, *, #973, .F. ) ;
#175 = DIRECTION ( 'NONE',  ( 0.000000000000000000, 0.000000000000000000, 1.000000000000000000 ) ) ;
#176 = VECTOR ( 'NONE', #495, 1000.000000000000000 ) ;
#177 = ADVANCED_FACE ( 'NONE', ( #24 ), #340, .T. ) ;
#178 = EDGE_LOOP ( 'NONE', ( #565, #373, #523, #797, #833, #1000, #266, #453, #356, #80, #767, #400, #182, #483 ) ) ;
#179 = DIRECTION ( 'NONE',  ( 0.000000000000000000, 0.000000000000000000, 1.000000000000000000 ) ) ;
#180 = VERTEX_POINT ( 'NONE', #1012 ) ;
#181 = CARTESIAN_POINT ( 'NONE',  ( -0.1000000000000000056, -126.9614213562372811, -14.05000000000000071 ) ) ;
#182 = ORIENTED_EDGE ( 'NONE', *, *, #957, .F. ) ;
#183 = ADVANCED_FACE ( 'NONE', ( #88 ), #262, .F. ) ;
#184 = ORIENTED_EDGE ( 'NONE', *, *, #105, .F. ) ;
#185 = EDGE_CURVE ( 'NONE', #1063, #286, #103, .T. ) ;
#186 = ADVANCED_FACE ( 'NONE', ( #848 ), #526, .F. ) ;
#187 = LINE ( 'NONE', #355, #486 ) ;
#188 = PERSON_AND_ORGANIZATION ( #18446744073709551615, #18446744073709551615 ) ;
#189 = CC_DESIGN_APPROVAL ( #935, ( #339 ) ) ;
#190 = AXIS2_PLACEMENT_3D ( 'NONE', #733, #1070, #903 ) ;
#191 = DESIGN_CONTEXT ( 'detailed design', #775, 'design' ) ;
#192 = ORIENTED_EDGE ( 'NONE', *, *, #706, .T. ) ;
#193 = DIRECTION ( 'NONE',  ( -0.000000000000000000, -0.000000000000000000, -1.000000000000000000 ) ) ;
#194 = EDGE_LOOP ( 'NONE', ( #313, #46 ) ) ;
#195 = DATE_TIME_ROLE ( 'creation_date' ) ;
#196 = VERTEX_POINT ( 'NONE', #596 ) ;
#197 = CARTESIAN_POINT ( 'NONE',  ( 214.1400000000000432, 1.700000000000000178, 1.500000000000000000 ) ) ;
#198 = EDGE_CURVE ( 'NONE', #282, #466, #895, .T. ) ;
#199 = VERTEX_POINT ( 'NONE', #142 ) ;
#200 = FACE_OUTER_BOUND ( 'NONE', #603, .T. ) ;
#201 = VECTOR ( 'NONE', #387, 1000.000000000000000 ) ;
#202 = ORIENTED_EDGE ( 'NONE', *, *, #677, .F. ) ;
#203 = DIRECTION ( 'NONE',  ( -0.000000000000000000, 1.000000000000000000, -0.000000000000000000 ) ) ;
#204 = ORIENTED_EDGE ( 'NONE', *, *, #1053, .T. ) ;
#205 = DIRECTION ( 'NONE',  ( -1.000000000000000000, 0.000000000000000000, -0.000000000000000000 ) ) ;
#206 = DATE_AND_TIME ( #955, #583 ) ;
#207 = VECTOR ( 'NONE', #54, 1000.000000000000000 ) ;
#208 = EDGE_CURVE ( 'NONE', #951, #774, #308, .T. ) ;
#209 = VECTOR ( 'NONE', #170, 1000.000000000000000 ) ;
#210 = ORIENTED_EDGE ( 'NONE', *, *, #956, .F. ) ;
#211 = PLANE ( 'NONE',  #430 ) ;
#212 = ORIENTED_EDGE ( 'NONE', *, *, #726, .T. ) ;
#213 = CARTESIAN_POINT ( 'NONE',  ( 412.6880995769276410, -134.7133217793096094, -14.05000000000000071 ) ) ;
#214 = ORIENTED_EDGE ( 'NONE', *, *, #867, .F. ) ;
#215 = LINE ( 'NONE', #399, #219 ) ;
#216 = EDGE_LOOP ( 'NONE', ( #25, #621, #165, #856 ) ) ;
#217 = CARTESIAN_POINT ( 'NONE',  ( 214.1400000000000432, -136.3133217793096037, -14.05000000000000071 ) ) ;
#218 = LINE ( 'NONE', #555, #55 ) ;
#219 = VECTOR ( 'NONE', #1062, 1000.000000000000000 ) ;
#220 = CARTESIAN_POINT ( 'NONE',  ( 214.1400000000000432, -130.3133217793096037, 1.500000000000000000 ) ) ;
#221 = CARTESIAN_POINT ( 'NONE',  ( 13.20895057047370180, -132.3303719267109670, -14.05000000000000071 ) ) ;
#222 = ORIENTED_EDGE ( 'NONE', *, *, #927, .T. ) ;
#223 = CARTESIAN_POINT ( 'NONE',  ( -0.09999999999998898659, -102.9620815280171087, -9.050000000000007816 ) ) ;
#224 = EDGE_CURVE ( 'NONE', #426, #1048, #302, .T. ) ;
#225 = LINE ( 'NONE', #492, #162 ) ;
#226 = CARTESIAN_POINT ( 'NONE',  ( -0.1000000000000000056, 0.1000000000000000056, -14.05000000000000071 ) ) ;
#227 = DIRECTION ( 'NONE',  ( 1.000000000000000000, -0.000000000000000000, -0.000000000000000000 ) ) ;
#228 = ORIENTED_EDGE ( 'NONE', *, *, #666, .F. ) ;
#229 = CARTESIAN_POINT ( 'NONE',  ( 40.26000000000001933, 0.09999999999999939493, -8.250000000000000000 ) ) ;
#230 = DIRECTION ( 'NONE',  ( 1.000000000000000000, -0.000000000000000000, -3.154042683594192162E-16 ) ) ;
#231 = DIRECTION ( 'NONE',  ( -1.000000000000000000, -0.000000000000000000, -0.000000000000000000 ) ) ;
#232 = FACE_OUTER_BOUND ( 'NONE', #363, .T. ) ;
#233 = VERTEX_POINT ( 'NONE', #629 ) ;
#234 = DIRECTION ( 'NONE',  ( -0.000000000000000000, 1.000000000000000000, -0.000000000000000000 ) ) ;
#235 = CARTESIAN_POINT ( 'NONE',  ( -0.1000000000000000056, 0.1000000000000000056, 0.000000000000000000 ) ) ;
#236 = EDGE_CURVE ( 'NONE', #869, #39, #798, .T. ) ;
#237 = CARTESIAN_POINT ( 'NONE',  ( 423.9799999999999613, -4.299999999999999822, 0.000000000000000000 ) ) ;
#238 = AXIS2_PLACEMENT_3D ( 'NONE', #570, #826, #987 ) ;
#239 = CARTESIAN_POINT ( 'NONE',  ( 17.41444009751397104, -130.3133217793096037, 1.500000000000000000 ) ) ;
#240 = ORIENTED_EDGE ( 'NONE', *, *, #802, .T. ) ;
#241 = CARTESIAN_POINT ( 'NONE',  ( 214.1400000000000432, 0.000000000000000000, 0.000000000000000000 ) ) ;
#242 = PLANE ( 'NONE',  #106 ) ;
#243 = LINE ( 'NONE', #825, #964 ) ;
#244 = AXIS2_PLACEMENT_3D ( 'NONE', #728, #752, #820 ) ;
#245 = ORIENTED_EDGE ( 'NONE', *, *, #14, .T. ) ;
#246 = CARTESIAN_POINT ( 'NONE',  ( -0.1000000000000000056, 0.1000000000000000056, 0.000000000000000000 ) ) ;
#247 = CARTESIAN_POINT ( 'NONE',  ( 14.92915872327539262, -136.3133217793096037, -14.05000000000000071 ) ) ;
#248 = VERTEX_POINT ( 'NONE', #1040 ) ;
#249 = PLANE ( 'NONE',  #385 ) ;
#250 = DIRECTION ( 'NONE',  ( -1.000000000000000000, 0.000000000000000000, 0.000000000000000000 ) ) ;
#251 = ORIENTED_EDGE ( 'NONE', *, *, #254, .F. ) ;
#252 = VECTOR ( 'NONE', #253, 1000.000000000000000 ) ;
#253 = DIRECTION ( 'NONE',  ( -1.000000000000000000, -0.000000000000000000, -0.000000000000000000 ) ) ;
#254 = EDGE_CURVE ( 'NONE', #1020, #388, #456, .T. ) ;
#255 = DIRECTION ( 'NONE',  ( -3.154042683594192655E-16, 0.000000000000000000, -1.000000000000000000 ) ) ;
#256 = EDGE_CURVE ( 'NONE', #681, #885, #376, .T. ) ;
#257 = DIRECTION ( 'NONE',  ( 0.7071067811865467956, 0.7071067811865483499, -0.000000000000000000 ) ) ;
#258 = ORIENTED_EDGE ( 'NONE', *, *, #362, .T. ) ;
#259 = PLANE ( 'NONE',  #928 ) ;
#260 = ORIENTED_EDGE ( 'NONE', *, *, #888, .T. ) ;
#261 = AXIS2_PLACEMENT_3D ( 'NONE', #998, #391, #1061 ) ;
#262 = CYLINDRICAL_SURFACE ( 'NONE', #653, 1.499999999999999556 ) ;
#263 = EDGE_CURVE ( 'NONE', #590, #863, #371, .T. ) ;
#264 = ORIENTED_EDGE ( 'NONE', *, *, #83, .T. ) ;
#265 = PLANE ( 'NONE',  #360 ) ;
#266 = ORIENTED_EDGE ( 'NONE', *, *, #256, .T. ) ;
#267 = EDGE_CURVE ( 'NONE', #388, #1020, #1026, .T. ) ;
#268 = ADVANCED_FACE ( 'NONE', ( #454 ), #793, .T. ) ;
#269 = DIRECTION ( 'NONE',  ( 0.000000000000000000, 0.000000000000000000, 1.000000000000000000 ) ) ;
#270 = ORIENTED_EDGE ( 'NONE', *, *, #614, .T. ) ;
#271 = FACE_OUTER_BOUND ( 'NONE', #915, .T. ) ;
#272 = AXIS2_PLACEMENT_3D ( 'NONE', #72, #405, #60 ) ;
#273 = ORIENTED_EDGE ( 'NONE', *, *, #92, .F. ) ;
#274 = VERTEX_POINT ( 'NONE', #283 ) ;
#275 = CARTESIAN_POINT ( 'NONE',  ( 214.1400000000000432, -136.3133217793096037, -14.05000000000000071 ) ) ;
#276 = APPROVAL_STATUS ( 'not_yet_approved' ) ;
#277 = VECTOR ( 'NONE', #622, 1000.000000000000000 ) ;
#278 = VECTOR ( 'NONE', #147, 1000.000000000000000 ) ;
#279 = EDGE_CURVE ( 'NONE', #196, #73, #560, .T. ) ;
#280 = ORIENTED_EDGE ( 'NONE', *, *, #966, .T. ) ;
#281 = CARTESIAN_POINT ( 'NONE',  ( 4.299999999999999822, -4.299999999999999822, 1.500000000000000000 ) ) ;
#282 = VERTEX_POINT ( 'NONE', #710 ) ;
#283 = CARTESIAN_POINT ( 'NONE',  ( 5.268950570473649009, -132.3303719267109670, -14.05000000000000071 ) ) ;
#284 = ORIENTED_EDGE ( 'NONE', *, *, #1065, .F. ) ;
#285 = CARTESIAN_POINT ( 'NONE',  ( 214.1400000000000432, -4.299999999999999822, 1.500000000000000000 ) ) ;
#286 = VERTEX_POINT ( 'NONE', #1051 ) ;
#287 = DIRECTION ( 'NONE',  ( 0.000000000000000000, 0.000000000000000000, 1.000000000000000000 ) ) ;
#288 = PERSON_AND_ORGANIZATION_ROLE ( 'design_owner' ) ;
#289 = ADVANCED_FACE ( 'NONE', ( #42 ), #47, .F. ) ;
#290 = AXIS2_PLACEMENT_3D ( 'NONE', #934, #923, #179 ) ;
#291 = ORIENTED_EDGE ( 'NONE', *, *, #1007, .T. ) ;
#292 = CARTESIAN_POINT ( 'NONE',  ( 214.1400000000000432, -130.3133217793096037, 1.500000000000000000 ) ) ;
#293 = ORIENTED_EDGE ( 'NONE', *, *, #158, .T. ) ;
#294 = DIRECTION ( 'NONE',  ( -0.000000000000000000, 0.000000000000000000, 1.000000000000000000 ) ) ;
#295 = VECTOR ( 'NONE', #737, 1000.000000000000114 ) ;
#296 = PRODUCT_DEFINITION_FORMATION_WITH_SPECIFIED_SOURCE ( 'Symetrick√', '', #423, .NOT_KNOWN. ) ;
#297 = VECTOR ( 'NONE', #70, 1000.000000000000000 ) ;
#298 = EDGE_LOOP ( 'NONE', ( #534, #107, #490, #152 ) ) ;
#299 = ADVANCED_FACE ( 'NONE', ( #200 ), #538, .F. ) ;
#300 = CARTESIAN_POINT ( 'NONE',  ( 214.1400000000000432, -136.3133217793096037, 1.500000000000000000 ) ) ;
#301 = ORIENTED_EDGE ( 'NONE', *, *, #1011, .F. ) ;
#302 = LINE ( 'NONE', #478, #53 ) ;
#303 = PLANE ( 'NONE',  #673 ) ;
#304 = APPROVAL ( #276, 'Sjednocen√' ) ;
#305 = FACE_OUTER_BOUND ( 'NONE', #216, .T. ) ;
#306 = CARTESIAN_POINT ( 'NONE',  ( -0.1000000000000000056, -126.9614213562372811, 0.000000000000000000 ) ) ;
#307 = ORIENTED_EDGE ( 'NONE', *, *, #480, .F. ) ;
#308 = LINE ( 'NONE', #118, #316 ) ;
#309 = DIRECTION ( 'NONE',  ( 0.000000000000000000, 1.000000000000000000, 0.000000000000000000 ) ) ;
#310 = AXIS2_PLACEMENT_3D ( 'NONE', #10, #97, #20 ) ;
#311 = LINE ( 'NONE', #914, #874 ) ;
#312 = DIRECTION ( 'NONE',  ( -0.7071067811865475727, -0.7071067811865475727, 0.000000000000000000 ) ) ;
#313 = ORIENTED_EDGE ( 'NONE', *, *, #778, .F. ) ;
#314 = CARTESIAN_POINT ( 'NONE',  ( 4.606208870676706368, -133.9303719267109614, 1.500000000000000000 ) ) ;
#315 = DIRECTION ( 'NONE',  ( 0.000000000000000000, -1.000000000000000000, 0.000000000000000000 ) ) ;
#316 = VECTOR ( 'NONE', #1059, 1000.000000000000000 ) ;
#317 = CARTESIAN_POINT ( 'NONE',  ( 12.54620887067673785, -133.9303719267109614, -14.05000000000000071 ) ) ;
#318 = LOCAL_TIME ( 20, 17, 3.000000000000000000, #634 ) ;
#319 = ADVANCED_FACE ( 'NONE', ( #542 ), #720, .F. ) ;
#320 = LINE ( 'NONE', #558, #396 ) ;
#321 = EDGE_LOOP ( 'NONE', ( #260, #29, #96, #27 ) ) ;
#322 = DIRECTION ( 'NONE',  ( 1.000000000000000000, -0.000000000000000000, -0.000000000000000000 ) ) ;
#323 = CARTESIAN_POINT ( 'NONE',  ( 4.299999999999999822, -4.299999999999999822, 0.000000000000000000 ) ) ;
#324 = CARTESIAN_POINT ( 'NONE',  ( 214.1400000000000432, 1.700000000000000178, -14.05000000000000071 ) ) ;
#325 = DIRECTION ( 'NONE',  ( -1.000000000000000000, -0.000000000000000000, -0.000000000000000000 ) ) ;
#326 = ORIENTED_EDGE ( 'NONE', *, *, #823, .T. ) ;
#327 = CARTESIAN_POINT ( 'NONE',  ( 17.41444009751397104, -130.3133217793096037, 1.500000000000000000 ) ) ;
#328 = DIRECTION ( 'NONE',  ( -1.000000000000000000, 0.000000000000000000, 0.000000000000000000 ) ) ;
#329 = LINE ( 'NONE', #992, #295 ) ;
#330 = CARTESIAN_POINT ( 'NONE',  ( 214.1400000000000432, 0.000000000000000000, 0.000000000000000000 ) ) ;
#331 = EDGE_LOOP ( 'NONE', ( #858, #598, #656, #674 ) ) ;
#332 = FACE_OUTER_BOUND ( 'NONE', #687, .T. ) ;
#333 = DIRECTION ( 'NONE',  ( -0.7071067811865481278, -0.7071067811865469066, 0.000000000000000000 ) ) ;
#334 = VECTOR ( 'NONE', #715, 1000.000000000000000 ) ;
#335 = ORIENTED_EDGE ( 'NONE', *, *, #513, .F. ) ;
#336 = DIRECTION ( 'NONE',  ( 1.000000000000000000, 0.000000000000000000, 0.000000000000000000 ) ) ;
#337 = CIRCLE ( 'NONE', #947, 3.499999999999998668 ) ;
#338 = DIRECTION ( 'NONE',  ( 0.000000000000000000, 0.000000000000000000, 1.000000000000000000 ) ) ;
#339 = PRODUCT_DEFINITION ( 'Obecn√', '', #296, #191 ) ;
#340 = PLANE ( 'NONE',  #772 ) ;
#341 = ORIENTED_EDGE ( 'NONE', *, *, #748, .F. ) ;
#342 = DIRECTION ( 'NONE',  ( 1.000000000000000000, -0.000000000000000000, -0.000000000000000000 ) ) ;
#343 = DIRECTION ( 'NONE',  ( -0.000000000000000000, 1.000000000000000000, -0.000000000000000000 ) ) ;
#344 = VERTEX_POINT ( 'NONE', #977 ) ;
#345 = VECTOR ( 'NONE', #414, 1000.000000000000000 ) ;
#346 = CARTESIAN_POINT ( 'NONE',  ( 434.2226406871192808, -22.96208152801711933, -7.550000000000007816 ) ) ;
#347 = EDGE_LOOP ( 'NONE', ( #511, #801, #1050, #827 ) ) ;
#348 = ADVANCED_FACE ( 'NONE', ( #882, #130, #890 ), #471, .T. ) ;
#349 = AXIS2_PLACEMENT_3D ( 'NONE', #18, #257, #760 ) ;
#350 = FACE_OUTER_BOUND ( 'NONE', #178, .T. ) ;
#351 = VECTOR ( 'NONE', #93, 1000.000000000000114 ) ;
#352 = EDGE_CURVE ( 'NONE', #1058, #879, #503, .T. ) ;
#353 = DIRECTION ( 'NONE',  ( -1.000000000000000000, -0.000000000000000000, -0.000000000000000000 ) ) ;
#354 = ORIENTED_EDGE ( 'NONE', *, *, #695, .T. ) ;
#355 = CARTESIAN_POINT ( 'NONE',  ( 5.268950570473669437, -132.3303719267109670, -14.05000000000000071 ) ) ;
#356 = ORIENTED_EDGE ( 'NONE', *, *, #823, .F. ) ;
#357 = SHAPE_DEFINITION_REPRESENTATION ( #932, #771 ) ;
#358 = ORIENTED_EDGE ( 'NONE', *, *, #966, .F. ) ;
#359 = DIRECTION ( 'NONE',  ( -1.000000000000000000, -0.000000000000000000, -0.000000000000000000 ) ) ;
#360 = AXIS2_PLACEMENT_3D ( 'NONE', #852, #517, #599 ) ;
#361 = PERSON_AND_ORGANIZATION ( #18446744073709551615, #18446744073709551615 ) ;
#362 = EDGE_CURVE ( 'NONE', #683, #282, #5, .T. ) ;
#363 = EDGE_LOOP ( 'NONE', ( #876, #727, #222, #761 ) ) ;
#364 = DIRECTION ( 'NONE',  ( -0.000000000000000000, -0.000000000000000000, -1.000000000000000000 ) ) ;
#365 = ORIENTED_EDGE ( 'NONE', *, *, #579, .F. ) ;
#366 = CARTESIAN_POINT ( 'NONE',  ( -1.700000000000000178, -22.96208152801711933, -9.050000000000007816 ) ) ;
#367 = ORIENTED_EDGE ( 'NONE', *, *, #383, .T. ) ;
#368 = EDGE_CURVE ( 'NONE', #909, #942, #166, .T. ) ;
#369 = DIRECTION ( 'NONE',  ( 0.000000000000000000, 0.000000000000000000, 1.000000000000000000 ) ) ;
#370 = ORIENTED_EDGE ( 'NONE', *, *, #236, .T. ) ;
#371 = LINE ( 'NONE', #126, #946 ) ;
#372 = PERSON_AND_ORGANIZATION ( #18446744073709551615, #18446744073709551615 ) ;
#373 = ORIENTED_EDGE ( 'NONE', *, *, #236, .F. ) ;
#374 = LINE ( 'NONE', #616, #626 ) ;
#375 = ORIENTED_EDGE ( 'NONE', *, *, #420, .T. ) ;
#376 = LINE ( 'NONE', #644, #1025 ) ;
#377 = PERSON_AND_ORGANIZATION ( #18446744073709551615, #18446744073709551615 ) ;
#378 = ADVANCED_FACE ( 'NONE', ( #81 ), #995, .F. ) ;
#379 = EDGE_LOOP ( 'NONE', ( #974, #425, #134, #146 ) ) ;
#380 = LINE ( 'NONE', #1068, #754 ) ;
#381 = EDGE_LOOP ( 'NONE', ( #19, #755, #284, #291 ) ) ;
#382 = DIRECTION ( 'NONE',  ( 0.000000000000000000, -1.000000000000000000, 0.000000000000000000 ) ) ;
#383 = EDGE_CURVE ( 'NONE', #924, #951, #740, .T. ) ;
#384 = AXIS2_PLACEMENT_3D ( 'NONE', #1045, #870, #287 ) ;
#385 = AXIS2_PLACEMENT_3D ( 'NONE', #161, #925, #746 ) ;
#386 = FACE_OUTER_BOUND ( 'NONE', #519, .T. ) ;
#387 = DIRECTION ( 'NONE',  ( 0.000000000000000000, 0.000000000000000000, 1.000000000000000000 ) ) ;
#388 = VERTEX_POINT ( 'NONE', #86 ) ;
#389 = DIRECTION ( 'NONE',  ( 0.7071067811865476838, -0.7071067811865474617, 0.000000000000000000 ) ) ;
#390 = CARTESIAN_POINT ( 'NONE',  ( -1.700000000000000178, 1.700000000000000178, -14.05000000000000071 ) ) ;
#391 = DIRECTION ( 'NONE',  ( -1.000000000000000000, 0.000000000000000000, -0.000000000000000000 ) ) ;
#392 = DIRECTION ( 'NONE',  ( -0.000000000000000000, 1.000000000000000000, -0.000000000000000000 ) ) ;
#393 = VERTEX_POINT ( 'NONE', #989 ) ;
#394 = CYLINDRICAL_SURFACE ( 'NONE', #190, 1.499999999999999556 ) ;
#395 = CARTESIAN_POINT ( 'NONE',  ( 214.1400000000000432, 0.1000000000000000056, 0.000000000000000000 ) ) ;
#396 = VECTOR ( 'NONE', #476, 1000.000000000000000 ) ;
#397 = EDGE_CURVE ( 'NONE', #590, #447, #1076, .T. ) ;
#398 = LINE ( 'NONE', #900, #808 ) ;
#399 = CARTESIAN_POINT ( 'NONE',  ( 4.300000000000000711, -125.1388816817956808, 1.500000000000000000 ) ) ;
#400 = ORIENTED_EDGE ( 'NONE', *, *, #779, .F. ) ;
#401 = CARTESIAN_POINT ( 'NONE',  ( -0.1000000000000000056, 0.1000000000000000056, -14.05000000000000071 ) ) ;
#402 = CARTESIAN_POINT ( 'NONE',  ( -1.700000000000000178, 1.700000000000000178, -14.05000000000000071 ) ) ;
#403 = VECTOR ( 'NONE', #654, 1000.000000000000114 ) ;
#404 = DIRECTION ( 'NONE',  ( 0.000000000000000000, -1.000000000000000000, 0.000000000000000000 ) ) ;
#405 = DIRECTION ( 'NONE',  ( 0.000000000000000000, 0.000000000000000000, 1.000000000000000000 ) ) ;
#406 = EDGE_LOOP ( 'NONE', ( #370, #468, #412, #786, #763, #697 ) ) ;
#407 = DIRECTION ( 'NONE',  ( 0.000000000000000000, 0.000000000000000000, 1.000000000000000000 ) ) ;
#408 = EDGE_CURVE ( 'NONE', #909, #199, #834, .T. ) ;
#409 = CARTESIAN_POINT ( 'NONE',  ( 4.299999999999999822, -4.299999999999999822, 0.000000000000000000 ) ) ;
#410 = LINE ( 'NONE', #557, #830 ) ;
#411 =( LENGTH_UNIT ( ) NAMED_UNIT ( * ) SI_UNIT ( .MILLI., .METRE. ) );
#412 = ORIENTED_EDGE ( 'NONE', *, *, #158, .F. ) ;
#413 = CARTESIAN_POINT ( 'NONE',  ( 7.091490244915269692, -127.9303719267109472, 1.500000000000000000 ) ) ;
#414 = DIRECTION ( 'NONE',  ( 1.000000000000000000, 0.000000000000000000, 0.000000000000000000 ) ) ;
#415 = CIRCLE ( 'NONE', #290, 1.499999999999999556 ) ;
#416 = ADVANCED_FACE ( 'NONE', ( #332 ), #249, .T. ) ;
#417 = ORIENTED_EDGE ( 'NONE', *, *, #279, .F. ) ;
#418 = LINE ( 'NONE', #675, #439 ) ;
#419 = LINE ( 'NONE', #520, #617 ) ;
#420 = EDGE_CURVE ( 'NONE', #496, #942, #1083, .T. ) ;
#421 = ORIENTED_EDGE ( 'NONE', *, *, #198, .T. ) ;
#422 = AXIS2_PLACEMENT_3D ( 'NONE', #845, #87, #846 ) ;
#423 = PRODUCT ( '1-front', '1-front', '', ( #777 ) ) ;
#424 = CARTESIAN_POINT ( 'NONE',  ( -0.09999999999998898659, -22.96208152801711933, -10.55000000000000782 ) ) ;
#425 = ORIENTED_EDGE ( 'NONE', *, *, #684, .F. ) ;
#426 = VERTEX_POINT ( 'NONE', #663 ) ;
#427 = CARTESIAN_POINT ( 'NONE',  ( 12.54620887067673785, -133.9303719267109614, 1.500000000000000000 ) ) ;
#428 = ADVANCED_FACE ( 'NONE', ( #670, #153, #1006 ), #756, .F. ) ;
#429 = ORIENTED_EDGE ( 'NONE', *, *, #972, .T. ) ;
#430 = AXIS2_PLACEMENT_3D ( 'NONE', #436, #531, #1038 ) ;
#431 = EDGE_CURVE ( 'NONE', #180, #924, #842, .T. ) ;
#432 = LINE ( 'NONE', #688, #345 ) ;
#433 = VERTEX_POINT ( 'NONE', #922 ) ;
#434 = ORIENTED_EDGE ( 'NONE', *, *, #487, .F. ) ;
#435 = AXIS2_PLACEMENT_3D ( 'NONE', #920, #404, #475 ) ;
#436 = CARTESIAN_POINT ( 'NONE',  ( 17.41444009751397104, -130.3133217793096037, 1.500000000000000000 ) ) ;
#437 = LOCAL_TIME ( 20, 17, 3.000000000000000000, #113 ) ;
#438 = ORIENTED_EDGE ( 'NONE', *, *, #154, .T. ) ;
#439 = VECTOR ( 'NONE', #9, 1000.000000000000000 ) ;
#440 = DATE_AND_TIME ( #461, #437 ) ;
#441 = ORIENTED_EDGE ( 'NONE', *, *, #936, .F. ) ;
#442 = PLANE ( 'NONE',  #17 ) ;
#443 = DIRECTION ( 'NONE',  ( 0.000000000000000000, 0.000000000000000000, 1.000000000000000000 ) ) ;
#444 = EDGE_LOOP ( 'NONE', ( #293, #160, #258, #421, #204, #605, #1005, #1069, #939, #89, #745, #273, #43, #948 ) ) ;
#445 = DIRECTION ( 'NONE',  ( -0.000000000000000000, -0.000000000000000000, 1.000000000000000000 ) ) ;
#446 = VECTOR ( 'NONE', #44, 1000.000000000000000 ) ;
#447 = VERTEX_POINT ( 'NONE', #572 ) ;
#448 = PERSON_AND_ORGANIZATION ( #18446744073709551615, #18446744073709551615 ) ;
#449 = APPLICATION_CONTEXT ( 'configuration controlled 3d designs of mechanical parts and assemblies' ) ;
#450 = EDGE_CURVE ( 'NONE', #681, #180, #916, .T. ) ;
#451 = ORIENTED_EDGE ( 'NONE', *, *, #21, .F. ) ;
#452 = LINE ( 'NONE', #968, #1067 ) ;
#453 = ORIENTED_EDGE ( 'NONE', *, *, #666, .T. ) ;
#454 = FACE_OUTER_BOUND ( 'NONE', #347, .T. ) ;
#455 = DATE_AND_TIME ( #878, #721 ) ;
#456 = CIRCLE ( 'NONE', #597, 1.499999999999999556 ) ;
#457 = VERTEX_POINT ( 'NONE', #246 ) ;
#458 = LINE ( 'NONE', #608, #1032 ) ;
#459 = EDGE_LOOP ( 'NONE', ( #703, #551 ) ) ;
#460 = DIRECTION ( 'NONE',  ( -0.7071067811865474617, 0.7071067811865474617, 0.000000000000000000 ) ) ;
#461 = CALENDAR_DATE ( 2025, 5, 11 ) ;
#462 = EDGE_CURVE ( 'NONE', #39, #547, #418, .T. ) ;
#463 = VERTEX_POINT ( 'NONE', #591 ) ;
#464 = DIRECTION ( 'NONE',  ( 0.7071067811865476838, -0.7071067811865474617, 0.000000000000000000 ) ) ;
#465 = ADVANCED_FACE ( 'NONE', ( #657 ), #394, .F. ) ;
#466 = VERTEX_POINT ( 'NONE', #314 ) ;
#467 = DIRECTION ( 'NONE',  ( 0.7071067811865475727, 0.7071067811865475727, -0.000000000000000000 ) ) ;
#468 = ORIENTED_EDGE ( 'NONE', *, *, #913, .T. ) ;
#469 = PLANE ( 'NONE',  #131 ) ;
#470 = VERTEX_POINT ( 'NONE', #650 ) ;
#471 = PLANE ( 'NONE',  #244 ) ;
#472 = PLANE ( 'NONE',  #23 ) ;
#473 = VECTOR ( 'NONE', #336, 1000.000000000000000 ) ;
#474 = VECTOR ( 'NONE', #838, 1000.000000000000000 ) ;
#475 = DIRECTION ( 'NONE',  ( 0.000000000000000000, -0.000000000000000000, -1.000000000000000000 ) ) ;
#476 = DIRECTION ( 'NONE',  ( 0.000000000000000000, 0.000000000000000000, 1.000000000000000000 ) ) ;
#477 = ORIENTED_EDGE ( 'NONE', *, *, #352, .T. ) ;
#478 = CARTESIAN_POINT ( 'NONE',  ( -0.1000000000000000056, 0.1000000000000000056, -14.05000000000000071 ) ) ;
#479 = CARTESIAN_POINT ( 'NONE',  ( 4.300000000000000711, -125.1388816817956808, 0.000000000000000000 ) ) ;
#480 = EDGE_CURVE ( 'NONE', #73, #678, #1056, .T. ) ;
#481 = CARTESIAN_POINT ( 'NONE',  ( 4.300000000000000711, -125.1388816817956808, 0.000000000000000000 ) ) ;
#482 = CARTESIAN_POINT ( 'NONE',  ( 214.1400000000000432, -136.3133217793096037, 1.500000000000000000 ) ) ;
#483 = ORIENTED_EDGE ( 'NONE', *, *, #851, .F. ) ;
#484 = DIRECTION ( 'NONE',  ( 0.000000000000000000, 0.000000000000000000, 1.000000000000000000 ) ) ;
#485 = LINE ( 'NONE', #409, #759 ) ;
#486 = VECTOR ( 'NONE', #620, 1000.000000000000000 ) ;
#487 = EDGE_CURVE ( 'NONE', #547, #683, #722, .T. ) ;
#488 = LINE ( 'NONE', #59, #176 ) ;
#489 = PLANE ( 'NONE',  #272 ) ;
#490 = ORIENTED_EDGE ( 'NONE', *, *, #224, .F. ) ;
#491 = DIRECTION ( 'NONE',  ( 0.7071067811865474617, -0.7071067811865474617, 0.000000000000000000 ) ) ;
#492 = CARTESIAN_POINT ( 'NONE',  ( 7.091490244915269692, -127.9303719267109472, 0.000000000000000000 ) ) ;
#493 = VECTOR ( 'NONE', #389, 1000.000000000000000 ) ;
#494 = VECTOR ( 'NONE', #930, 1000.000000000000000 ) ;
#495 = DIRECTION ( 'NONE',  ( -1.000000000000000000, -0.000000000000000000, -0.000000000000000000 ) ) ;
#496 = VERTEX_POINT ( 'NONE', #395 ) ;
#497 = DIRECTION ( 'NONE',  ( 0.000000000000000000, 0.000000000000000000, 1.000000000000000000 ) ) ;
#498 = DIRECTION ( 'NONE',  ( -0.000000000000000000, -1.000000000000000000, -0.000000000000000000 ) ) ;
#499 = EDGE_CURVE ( 'NONE', #196, #33, #218, .T. ) ;
#500 = CARTESIAN_POINT ( 'NONE',  ( 45.76000000000001933, -14.22654878189439920, -4.750000000000002665 ) ) ;
#501 = CC_DESIGN_DATE_AND_TIME_ASSIGNMENT ( #971, #195, ( #339 ) ) ;
#502 = ORIENTED_EDGE ( 'NONE', *, *, #936, .T. ) ;
#503 = LINE ( 'NONE', #327, #473 ) ;
#504 = CARTESIAN_POINT ( 'NONE',  ( -1.700000000000000178, -102.9620815280171087, -9.050000000000007816 ) ) ;
#505 = AXIS2_PLACEMENT_3D ( 'NONE', #221, #312, #151 ) ;
#506 = DIRECTION ( 'NONE',  ( 0.7071067811865474617, -0.7071067811865474617, 0.000000000000000000 ) ) ;
#507 = CARTESIAN_POINT ( 'NONE',  ( -1.700000000000000178, 1.700000000000000178, 1.500000000000000000 ) ) ;
#508 = DIRECTION ( 'NONE',  ( -7.177836520139454383E-18, 1.000000000000000000, 0.000000000000000000 ) ) ;
#509 = FACE_OUTER_BOUND ( 'NONE', #814, .T. ) ;
#510 =( GEOMETRIC_REPRESENTATION_CONTEXT ( 3 ) GLOBAL_UNCERTAINTY_ASSIGNED_CONTEXT ( ( #612 ) ) GLOBAL_UNIT_ASSIGNED_CONTEXT ( ( #411, #945, #859 ) ) REPRESENTATION_CONTEXT ( 'NONE', 'WORKASPACE' ) );
#511 = ORIENTED_EDGE ( 'NONE', *, *, #154, .F. ) ;
#512 = DIRECTION ( 'NONE',  ( 0.000000000000000000, 0.000000000000000000, 1.000000000000000000 ) ) ;
#513 = EDGE_CURVE ( 'NONE', #607, #123, #485, .T. ) ;
#514 = CC_DESIGN_PERSON_AND_ORGANIZATION_ASSIGNMENT ( #377, #1035, ( #897 ) ) ;
#515 = PLANE ( 'NONE',  #349 ) ;
#516 = ORIENTED_EDGE ( 'NONE', *, *, #121, .F. ) ;
#517 = DIRECTION ( 'NONE',  ( -0.000000000000000000, 0.000000000000000000, 1.000000000000000000 ) ) ;
#518 = CARTESIAN_POINT ( 'NONE',  ( 40.26000000000001933, -14.22654878189439920, -11.75000000000000000 ) ) ;
#519 = EDGE_LOOP ( 'NONE', ( #100, #619, #202, #429 ) ) ;
#520 = CARTESIAN_POINT ( 'NONE',  ( 412.6880995769276410, -134.7133217793096094, -14.05000000000000071 ) ) ;
#521 = DIRECTION ( 'NONE',  ( -1.000000000000000000, 0.000000000000000000, 0.000000000000000000 ) ) ;
#522 = PERSON_AND_ORGANIZATION ( #18446744073709551615, #18446744073709551615 ) ;
#523 = ORIENTED_EDGE ( 'NONE', *, *, #121, .T. ) ;
#524 = FACE_OUTER_BOUND ( 'NONE', #662, .T. ) ;
#525 = AXIS2_PLACEMENT_3D ( 'NONE', #3, #716, #544 ) ;
#526 = PLANE ( 'NONE',  #790 ) ;
#527 = VECTOR ( 'NONE', #497, 1000.000000000000000 ) ;
#528 = DATE_AND_TIME ( #950, #672 ) ;
#529 = ADVANCED_FACE ( 'NONE', ( #735, #991 ), #472, .F. ) ;
#530 = ORIENTED_EDGE ( 'NONE', *, *, #383, .F. ) ;
#531 = DIRECTION ( 'NONE',  ( 0.000000000000000000, 1.000000000000000000, 0.000000000000000000 ) ) ;
#532 = ORIENTED_EDGE ( 'NONE', *, *, #851, .T. ) ;
#533 = APPLICATION_PROTOCOL_DEFINITION ( 'international standard', 'config_control_design', 1994, #449 ) ;
#534 = ORIENTED_EDGE ( 'NONE', *, *, #579, .T. ) ;
#535 = LINE ( 'NONE', #857, #150 ) ;
#536 = VECTOR ( 'NONE', #464, 1000.000000000000000 ) ;
#537 = ORIENTED_EDGE ( 'NONE', *, *, #267, .F. ) ;
#538 = CYLINDRICAL_SURFACE ( 'NONE', #384, 3.499999999999998668 ) ;
#539 = ORIENTED_EDGE ( 'NONE', *, *, #883, .F. ) ;
#540 = CARTESIAN_POINT ( 'NONE',  ( 15.03149024491531804, -127.9303719267109472, 1.500000000000000000 ) ) ;
#541 = EDGE_LOOP ( 'NONE', ( #367, #168, #228, #559 ) ) ;
#542 = FACE_OUTER_BOUND ( 'NONE', #541, .T. ) ;
#543 = AXIS2_PLACEMENT_3D ( 'NONE', #223, #135, #970 ) ;
#544 = DIRECTION ( 'NONE',  ( 1.000000000000000000, 0.000000000000000000, 0.000000000000000000 ) ) ;
#545 = AXIS2_PLACEMENT_3D ( 'NONE', #954, #205, #294 ) ;
#546 = EDGE_CURVE ( 'NONE', #850, #944, #821, .T. ) ;
#547 = VERTEX_POINT ( 'NONE', #402 ) ;
#548 = FACE_OUTER_BOUND ( 'NONE', #125, .T. ) ;
#549 = ORIENTED_EDGE ( 'NONE', *, *, #1077, .T. ) ;
#550 = DIRECTION ( 'NONE',  ( 0.000000000000000000, -1.000000000000000000, 0.000000000000000000 ) ) ;
#551 = ORIENTED_EDGE ( 'NONE', *, *, #690, .T. ) ;
#552 = FACE_OUTER_BOUND ( 'NONE', #331, .T. ) ;
#553 = EDGE_LOOP ( 'NONE', ( #959, #792, #270, #819 ) ) ;
#554 = CARTESIAN_POINT ( 'NONE',  ( 45.76000000000001933, 0.09999999999999939493, -4.750000000000002665 ) ) ;
#555 = CARTESIAN_POINT ( 'NONE',  ( 45.76000000000001933, -14.22654878189439920, -4.750000000000002665 ) ) ;
#556 = VECTOR ( 'NONE', #512, 1000.000000000000000 ) ;
#557 = CARTESIAN_POINT ( 'NONE',  ( 17.41444009751397104, -130.3133217793096037, 0.000000000000000000 ) ) ;
#558 = CARTESIAN_POINT ( 'NONE',  ( -1.700000000000000178, -127.6241630560342486, -14.05000000000000071 ) ) ;
#559 = ORIENTED_EDGE ( 'NONE', *, *, #764, .T. ) ;
#560 = LINE ( 'NONE', #554, #277 ) ;
#561 = LINE ( 'NONE', #479, #11 ) ;
#562 = CLOSED_SHELL ( 'NONE', ( #465, #594, #348, #586, #7, #177, #1, #416, #770, #428, #529, #319, #938, #601, #788, #1046, #872, #986, #705, #171, #997, #268, #905, #378, #79, #299, #186, #183, #694, #64, #289 ) ) ;
#563 = LINE ( 'NONE', #220, #701 ) ;
#564 = DIRECTION ( 'NONE',  ( 0.000000000000000000, -0.000000000000000000, 1.000000000000000000 ) ) ;
#565 = ORIENTED_EDGE ( 'NONE', *, *, #462, .F. ) ;
#566 = DIRECTION ( 'NONE',  ( 0.000000000000000000, -1.000000000000000000, 0.000000000000000000 ) ) ;
#567 = DIRECTION ( 'NONE',  ( 0.000000000000000000, 0.000000000000000000, 1.000000000000000000 ) ) ;
#568 = EDGE_CURVE ( 'NONE', #902, #624, #1010, .T. ) ;
#569 = LINE ( 'NONE', #149, #1078 ) ;
#570 = CARTESIAN_POINT ( 'NONE',  ( 423.9799999999999613, -4.299999999999999822, 1.500000000000000000 ) ) ;
#571 = ORIENTED_EDGE ( 'NONE', *, *, #795, .F. ) ;
#572 = CARTESIAN_POINT ( 'NONE',  ( 7.091490244915269692, -127.9303719267109472, 0.000000000000000000 ) ) ;
#573 = FACE_BOUND ( 'NONE', #794, .T. ) ;
#574 = VECTOR ( 'NONE', #108, 1000.000000000000000 ) ;
#575 = DIRECTION ( 'NONE',  ( -1.000000000000000000, 0.000000000000000000, 3.154042683594192162E-16 ) ) ;
#576 = LINE ( 'NONE', #330, #646 ) ;
#577 = VERTEX_POINT ( 'NONE', #829 ) ;
#578 = CARTESIAN_POINT ( 'NONE',  ( 13.20895057047370180, -132.3303719267109670, 0.000000000000000000 ) ) ;
#579 = EDGE_CURVE ( 'NONE', #457, #470, #729, .T. ) ;
#580 = DIRECTION ( 'NONE',  ( -0.000000000000000000, 1.000000000000000000, -0.000000000000000000 ) ) ;
#581 = PRODUCT_RELATED_PRODUCT_CATEGORY ( 'detail', '', ( #423 ) ) ;
#582 = AXIS2_PLACEMENT_3D ( 'NONE', #500, #1080, #1066 ) ;
#583 = LOCAL_TIME ( 20, 17, 3.000000000000000000, #37 ) ;
#584 = AXIS2_PLACEMENT_3D ( 'NONE', #229, #498, #1060 ) ;
#585 = CARTESIAN_POINT ( 'NONE',  ( 40.26000000000001933, 1.700000000000000178, -8.250000000000000000 ) ) ;
#586 = ADVANCED_FACE ( 'NONE', ( #891, #573 ), #242, .T. ) ;
#587 = ORIENTED_EDGE ( 'NONE', *, *, #706, .F. ) ;
#588 = CARTESIAN_POINT ( 'NONE',  ( 45.76000000000001933, -14.22654878189439920, -8.250000000000000000 ) ) ;
#589 = FACE_OUTER_BOUND ( 'NONE', #717, .T. ) ;
#590 = VERTEX_POINT ( 'NONE', #741 ) ;
#591 = CARTESIAN_POINT ( 'NONE',  ( 4.606208870676706368, -133.9303719267109614, -14.05000000000000071 ) ) ;
#592 = CARTESIAN_POINT ( 'NONE',  ( 214.1400000000000432, -130.3133217793096037, 0.000000000000000000 ) ) ;
#593 = VECTOR ( 'NONE', #325, 1000.000000000000000 ) ;
#594 = ADVANCED_FACE ( 'NONE', ( #136 ), #1002, .F. ) ;
#595 = CARTESIAN_POINT ( 'NONE',  ( 15.59190042307235480, -134.7133217793096094, -14.05000000000000071 ) ) ;
#596 = CARTESIAN_POINT ( 'NONE',  ( 45.76000000000001933, 0.09999999999999939493, -4.750000000000002665 ) ) ;
#597 = AXIS2_PLACEMENT_3D ( 'NONE', #815, #877, #62 ) ;
#598 = ORIENTED_EDGE ( 'NONE', *, *, #397, .F. ) ;
#599 = DIRECTION ( 'NONE',  ( 1.000000000000000000, 0.000000000000000000, 0.000000000000000000 ) ) ;
#600 = ORIENTED_EDGE ( 'NONE', *, *, #764, .F. ) ;
#601 = ADVANCED_FACE ( 'NONE', ( #82 ), #303, .F. ) ;
#602 = CARTESIAN_POINT ( 'NONE',  ( 434.2226406871192808, -102.9620815280171087, -9.050000000000007816 ) ) ;
#603 = EDGE_LOOP ( 'NONE', ( #921, #709, #1042, #61 ) ) ;
#604 = FACE_OUTER_BOUND ( 'NONE', #381, .T. ) ;
#605 = ORIENTED_EDGE ( 'NONE', *, *, #684, .T. ) ;
#606 = VECTOR ( 'NONE', #679, 1000.000000000000000 ) ;
#607 = VERTEX_POINT ( 'NONE', #323 ) ;
#608 = CARTESIAN_POINT ( 'NONE',  ( 4.606208870676706368, -133.9303719267109614, -14.05000000000000071 ) ) ;
#609 = EDGE_CURVE ( 'NONE', #982, #33, #1071, .T. ) ;
#610 = APPROVAL_ROLE ( '' ) ;
#611 = CC_DESIGN_DATE_AND_TIME_ASSIGNMENT ( #440, #48, ( #897 ) ) ;
#612 = UNCERTAINTY_MEASURE_WITH_UNIT (LENGTH_MEASURE( 1.000000000000000082E-05 ), #411, 'distance_accuracy_value', 'NONE');
#613 = ORIENTED_EDGE ( 'NONE', *, *, #568, .F. ) ;
#614 = EDGE_CURVE ( 'NONE', #33, #344, #337, .T. ) ;
#615 = VECTOR ( 'NONE', #979, 1000.000000000000000 ) ;
#616 = CARTESIAN_POINT ( 'NONE',  ( 434.2226406871192808, -22.96208152801711933, -10.55000000000000782 ) ) ;
#617 = VECTOR ( 'NONE', #342, 1000.000000000000000 ) ;
#618 = APPROVAL_STATUS ( 'not_yet_approved' ) ;
#619 = ORIENTED_EDGE ( 'NONE', *, *, #665, .F. ) ;
#620 = DIRECTION ( 'NONE',  ( 1.000000000000000000, 0.000000000000000000, 0.000000000000000000 ) ) ;
#621 = ORIENTED_EDGE ( 'NONE', *, *, #95, .T. ) ;
#622 = DIRECTION ( 'NONE',  ( -1.000000000000000000, 0.000000000000000000, 3.154042683594192655E-16 ) ) ;
#623 = PERSON_AND_ORGANIZATION_ROLE ( 'design_supplier' ) ;
#624 = VERTEX_POINT ( 'NONE', #911 ) ;
#625 = LINE ( 'NONE', #1034, #85 ) ;
#626 = VECTOR ( 'NONE', #359, 1000.000000000000000 ) ;
#627 = EDGE_CURVE ( 'NONE', #447, #941, #225, .T. ) ;
#628 = ORIENTED_EDGE ( 'NONE', *, *, #267, .T. ) ;
#629 = CARTESIAN_POINT ( 'NONE',  ( 45.76000000000001933, 0.09999999999999939493, -11.75000000000000000 ) ) ;
#630 = ORIENTED_EDGE ( 'NONE', *, *, #888, .F. ) ;
#631 = DIRECTION ( 'NONE',  ( -1.000000000000000000, 0.000000000000000000, 0.000000000000000000 ) ) ;
#632 = ORIENTED_EDGE ( 'NONE', *, *, #1021, .T. ) ;
#633 = VECTOR ( 'NONE', #322, 1000.000000000000000 ) ;
#634 = COORDINATED_UNIVERSAL_TIME_OFFSET ( 1, 0, .AHEAD. ) ;
#635 = VECTOR ( 'NONE', #143, 1000.000000000000000 ) ;
#636 = ORIENTED_EDGE ( 'NONE', *, *, #956, .T. ) ;
#637 = PLANE ( 'NONE',  #238 ) ;
#638 = ORIENTED_EDGE ( 'NONE', *, *, #957, .T. ) ;
#639 = DIRECTION ( 'NONE',  ( 0.000000000000000000, -0.000000000000000000, -1.000000000000000000 ) ) ;
#640 = DIRECTION ( 'NONE',  ( 0.000000000000000000, -0.000000000000000000, -1.000000000000000000 ) ) ;
#641 = DIRECTION ( 'NONE',  ( 1.000000000000000000, 0.000000000000000000, 0.000000000000000000 ) ) ;
#642 = LINE ( 'NONE', #67, #201 ) ;
#643 = ORIENTED_EDGE ( 'NONE', *, *, #450, .F. ) ;
#644 = CARTESIAN_POINT ( 'NONE',  ( 13.20895057047370180, -132.3303719267109670, -14.05000000000000071 ) ) ;
#645 = CARTESIAN_POINT ( 'NONE',  ( 5.268950570473669437, -132.3303719267109670, -14.05000000000000071 ) ) ;
#646 = VECTOR ( 'NONE', #668, 1000.000000000000000 ) ;
#647 = CARTESIAN_POINT ( 'NONE',  ( 45.76000000000001933, 1.700000000000000178, -4.750000000000002665 ) ) ;
#648 = CARTESIAN_POINT ( 'NONE',  ( -1.700000000000000178, -127.6241630560342486, -14.05000000000000071 ) ) ;
#649 = EDGE_LOOP ( 'NONE', ( #417, #837, #630, #307 ) ) ;
#650 = CARTESIAN_POINT ( 'NONE',  ( -0.1000000000000028644, -126.9614213562372811, 0.000000000000000000 ) ) ;
#651 = EDGE_CURVE ( 'NONE', #274, #433, #747, .T. ) ;
#652 = DIRECTION ( 'NONE',  ( 0.000000000000000000, 1.000000000000000000, 0.000000000000000000 ) ) ;
#653 = AXIS2_PLACEMENT_3D ( 'NONE', #602, #353, #269 ) ;
#654 = DIRECTION ( 'NONE',  ( 0.7071067811865474617, -0.7071067811865474617, 0.000000000000000000 ) ) ;
#655 = LINE ( 'NONE', #306, #822 ) ;
#656 = ORIENTED_EDGE ( 'NONE', *, *, #263, .T. ) ;
#657 = FACE_OUTER_BOUND ( 'NONE', #1037, .T. ) ;
#658 = CARTESIAN_POINT ( 'NONE',  ( 45.76000000000001933, 1.700000000000000178, -4.750000000000002665 ) ) ;
#659 = EDGE_CURVE ( 'NONE', #123, #447, #561, .T. ) ;
#660 = PLANE ( 'NONE',  #22 ) ;
#661 = DIRECTION ( 'NONE',  ( 1.000000000000000000, 0.000000000000000000, 0.000000000000000000 ) ) ;
#662 = EDGE_LOOP ( 'NONE', ( #214, #375, #264, #873, #739, #12, #438, #132, #549, #530, #765, #301, #110, #365 ) ) ;
#663 = CARTESIAN_POINT ( 'NONE',  ( -0.1000000000000000056, 0.1000000000000000056, -14.05000000000000071 ) ) ;
#664 = DIRECTION ( 'NONE',  ( 0.000000000000000000, 1.000000000000000000, 0.000000000000000000 ) ) ;
#665 = EDGE_CURVE ( 'NONE', #248, #944, #63, .T. ) ;
#666 = EDGE_CURVE ( 'NONE', #885, #774, #419, .T. ) ;
#667 = CARTESIAN_POINT ( 'NONE',  ( 40.26000000000001933, 0.09999999999999939493, -4.750000000000001776 ) ) ;
#668 = DIRECTION ( 'NONE',  ( 0.000000000000000000, -1.000000000000000000, 0.000000000000000000 ) ) ;
#669 = ORIENTED_EDGE ( 'NONE', *, *, #94, .F. ) ;
#670 = FACE_BOUND ( 'NONE', #459, .T. ) ;
#671 = DIRECTION ( 'NONE',  ( 0.7071067811865469066, -0.7071067811865481278, 0.000000000000000000 ) ) ;
#672 = LOCAL_TIME ( 20, 17, 3.000000000000000000, #102 ) ;
#673 = AXIS2_PLACEMENT_3D ( 'NONE', #76, #315, #640 ) ;
#674 = ORIENTED_EDGE ( 'NONE', *, *, #862, .T. ) ;
#675 = CARTESIAN_POINT ( 'NONE',  ( -1.700000000000000178, 1.700000000000000178, -14.05000000000000071 ) ) ;
#676 = LINE ( 'NONE', #766, #114 ) ;
#677 = EDGE_CURVE ( 'NONE', #751, #248, #1023, .T. ) ;
#678 = VERTEX_POINT ( 'NONE', #839 ) ;
#679 = DIRECTION ( 'NONE',  ( 0.000000000000000000, 0.000000000000000000, 1.000000000000000000 ) ) ;
#680 = AXIS2_PLACEMENT_3D ( 'NONE', #1074, #725, #140 ) ;
#681 = VERTEX_POINT ( 'NONE', #1029 ) ;
#682 = LINE ( 'NONE', #595, #556 ) ;
#683 = VERTEX_POINT ( 'NONE', #172 ) ;
#684 = EDGE_CURVE ( 'NONE', #577, #248, #843, .T. ) ;
#685 = LINE ( 'NONE', #518, #990 ) ;
#686 = VECTOR ( 'NONE', #566, 1000.000000000000000 ) ;
#687 = EDGE_LOOP ( 'NONE', ( #502, #15, #1075, #638 ) ) ;
#688 = CARTESIAN_POINT ( 'NONE',  ( 4.606208870676706368, -133.9303719267109614, -14.05000000000000071 ) ) ;
#689 = DIRECTION ( 'NONE',  ( -0.7071067811865475727, -0.7071067811865475727, 0.000000000000000000 ) ) ;
#690 = EDGE_CURVE ( 'NONE', #719, #393, #139, .T. ) ;
#691 = ORIENTED_EDGE ( 'NONE', *, *, #77, .F. ) ;
#692 = DIRECTION ( 'NONE',  ( -1.000000000000000000, -0.000000000000000000, -0.000000000000000000 ) ) ;
#693 = ORIENTED_EDGE ( 'NONE', *, *, #1011, .T. ) ;
#694 = ADVANCED_FACE ( 'NONE', ( #589 ), #90, .F. ) ;
#695 = EDGE_CURVE ( 'NONE', #700, #577, #676, .T. ) ;
#696 = VECTOR ( 'NONE', #392, 1000.000000000000000 ) ;
#697 = ORIENTED_EDGE ( 'NONE', *, *, #726, .F. ) ;
#698 = CARTESIAN_POINT ( 'NONE',  ( 429.9799999999999613, 1.700000000000000178, 1.500000000000000000 ) ) ;
#699 = COORDINATED_UNIVERSAL_TIME_OFFSET ( 1, 0, .AHEAD. ) ;
#700 = VERTEX_POINT ( 'NONE', #13 ) ;
#701 = VECTOR ( 'NONE', #138, 1000.000000000000000 ) ;
#702 = LINE ( 'NONE', #1043, #446 ) ;
#703 = ORIENTED_EDGE ( 'NONE', *, *, #884, .T. ) ;
#704 = SECURITY_CLASSIFICATION_LEVEL ( 'unclassified' ) ;
#705 = ADVANCED_FACE ( 'NONE', ( #1016 ), #259, .T. ) ;
#706 = EDGE_CURVE ( 'NONE', #624, #902, #840, .T. ) ;
#707 = ORIENTED_EDGE ( 'NONE', *, *, #546, .F. ) ;
#708 = CARTESIAN_POINT ( 'NONE',  ( -1.700000000000000178, -102.9620815280171087, -10.55000000000000782 ) ) ;
#709 = ORIENTED_EDGE ( 'NONE', *, *, #173, .T. ) ;
#710 = CARTESIAN_POINT ( 'NONE',  ( -1.700000000000000178, -127.6241630560342486, 1.500000000000000000 ) ) ;
#711 = VERTEX_POINT ( 'NONE', #592 ) ;
#712 = LINE ( 'NONE', #698, #980 ) ;
#713 = VECTOR ( 'NONE', #30, 1000.000000000000000 ) ;
#714 = EDGE_LOOP ( 'NONE', ( #354, #112, #441, #57 ) ) ;
#715 = DIRECTION ( 'NONE',  ( -0.000000000000000000, 1.000000000000000000, -0.000000000000000000 ) ) ;
#716 = DIRECTION ( 'NONE',  ( 0.000000000000000000, 0.000000000000000000, 1.000000000000000000 ) ) ;
#717 = EDGE_LOOP ( 'NONE', ( #539, #780, #789, #961 ) ) ;
#718 = CARTESIAN_POINT ( 'NONE',  ( -0.1000000000000000056, -126.9614213562372811, -14.05000000000000071 ) ) ;
#719 = VERTEX_POINT ( 'NONE', #424 ) ;
#720 = PLANE ( 'NONE',  #122 ) ;
#721 = LOCAL_TIME ( 20, 17, 3.000000000000000000, #699 ) ;
#722 = LINE ( 'NONE', #390, #75 ) ;
#723 = VECTOR ( 'NONE', #491, 1000.000000000000114 ) ;
#724 = DIRECTION ( 'NONE',  ( 0.000000000000000000, -1.000000000000000000, 0.000000000000000000 ) ) ;
#725 = DIRECTION ( 'NONE',  ( -0.000000000000000000, -1.000000000000000000, -0.000000000000000000 ) ) ;
#726 = EDGE_CURVE ( 'NONE', #869, #496, #926, .T. ) ;
#727 = ORIENTED_EDGE ( 'NONE', *, *, #408, .T. ) ;
#728 = CARTESIAN_POINT ( 'NONE',  ( -1.700000000000000178, 1.700000000000000178, -14.05000000000000071 ) ) ;
#729 = LINE ( 'NONE', #235, #635 ) ;
#730 = DIRECTION ( 'NONE',  ( 0.000000000000000000, 0.000000000000000000, 1.000000000000000000 ) ) ;
#731 = CARTESIAN_POINT ( 'NONE',  ( 4.606208870676706368, -133.9303719267109614, 1.500000000000000000 ) ) ;
#732 = ORIENTED_EDGE ( 'NONE', *, *, #614, .F. ) ;
#733 = CARTESIAN_POINT ( 'NONE',  ( 434.2226406871192808, -22.96208152801711933, -9.050000000000007816 ) ) ;
#734 = MANIFOLD_SOLID_BREP ( 'Odebrat vysunut\X2\00ed\X0\m3', #562 ) ;
#735 = FACE_BOUND ( 'NONE', #649, .T. ) ;
#736 = VECTOR ( 'NONE', #445, 1000.000000000000000 ) ;
#737 = DIRECTION ( 'NONE',  ( 0.7071067811865474617, -0.7071067811865474617, 0.000000000000000000 ) ) ;
#738 = CARTESIAN_POINT ( 'NONE',  ( 413.3508412767246227, -136.3133217793096037, -14.05000000000000071 ) ) ;
#739 = ORIENTED_EDGE ( 'NONE', *, *, #659, .T. ) ;
#740 = LINE ( 'NONE', #74, #633 ) ;
#741 = CARTESIAN_POINT ( 'NONE',  ( 7.091490244915269692, -127.9303719267109472, 1.500000000000000000 ) ) ;
#742 = FACE_OUTER_BOUND ( 'NONE', #988, .T. ) ;
#743 = CC_DESIGN_PERSON_AND_ORGANIZATION_ASSIGNMENT ( #522, #864, ( #296 ) ) ;
#744 = LINE ( 'NONE', #731, #886 ) ;
#745 = ORIENTED_EDGE ( 'NONE', *, *, #263, .F. ) ;
#746 = DIRECTION ( 'NONE',  ( 0.7071067811865476838, -0.7071067811865474617, 0.000000000000000000 ) ) ;
#747 = LINE ( 'NONE', #645, #899 ) ;
#748 = EDGE_CURVE ( 'NONE', #393, #286, #1018, .T. ) ;
#749 = CARTESIAN_POINT ( 'NONE',  ( 45.76000000000001933, 1.700000000000000178, -11.75000000000000000 ) ) ;
#750 = DIRECTION ( 'NONE',  ( 0.7071067811865474617, -0.7071067811865474617, 0.000000000000000000 ) ) ;
#751 = VERTEX_POINT ( 'NONE', #247 ) ;
#752 = DIRECTION ( 'NONE',  ( -1.000000000000000000, 0.000000000000000000, 0.000000000000000000 ) ) ;
#753 = DIRECTION ( 'NONE',  ( 0.000000000000000000, 0.000000000000000000, 1.000000000000000000 ) ) ;
#754 = VECTOR ( 'NONE', #999, 1000.000000000000000 ) ;
#755 = ORIENTED_EDGE ( 'NONE', *, *, #651, .F. ) ;
#756 = PLANE ( 'NONE',  #919 ) ;
#757 = CARTESIAN_POINT ( 'NONE',  ( 14.92915872327539262, -136.3133217793096037, 1.500000000000000000 ) ) ;
#758 = CIRCLE ( 'NONE', #854, 3.499999999999998668 ) ;
#759 = VECTOR ( 'NONE', #996, 1000.000000000000000 ) ;
#760 = DIRECTION ( 'NONE',  ( -0.7071067811865483499, 0.7071067811865467956, 0.000000000000000000 ) ) ;
#761 = ORIENTED_EDGE ( 'NONE', *, *, #83, .F. ) ;
#762 = CARTESIAN_POINT ( 'NONE',  ( 214.1400000000000432, 0.1000000000000000056, -14.05000000000000071 ) ) ;
#763 = ORIENTED_EDGE ( 'NONE', *, *, #420, .F. ) ;
#764 = EDGE_CURVE ( 'NONE', #885, #924, #682, .T. ) ;
#765 = ORIENTED_EDGE ( 'NONE', *, *, #431, .F. ) ;
#766 = CARTESIAN_POINT ( 'NONE',  ( 12.54620887067673785, -133.9303719267109614, -14.05000000000000071 ) ) ;
#767 = ORIENTED_EDGE ( 'NONE', *, *, #156, .F. ) ;
#768 = CARTESIAN_POINT ( 'NONE',  ( 17.41444009751397104, -130.3133217793096037, 0.000000000000000000 ) ) ;
#769 = VERTEX_POINT ( 'NONE', #768 ) ;
#770 = ADVANCED_FACE ( 'NONE', ( #350 ), #265, .F. ) ;
#771 = ADVANCED_BREP_SHAPE_REPRESENTATION ( '1-front', ( #734, #525 ), #510 ) ;
#772 = AXIS2_PLACEMENT_3D ( 'NONE', #1027, #689, #506 ) ;
#773 = AXIS2_PLACEMENT_3D ( 'NONE', #1084, #328, #58 ) ;
#774 = VERTEX_POINT ( 'NONE', #6 ) ;
#775 = APPLICATION_CONTEXT ( 'configuration controlled 3d designs of mechanical parts and assemblies' ) ;
#776 = DIRECTION ( 'NONE',  ( -1.000000000000000000, 0.000000000000000000, 0.000000000000000000 ) ) ;
#777 = MECHANICAL_CONTEXT ( 'NONE', #449, 'mechanical' ) ;
#778 = EDGE_CURVE ( 'NONE', #286, #1063, #415, .T. ) ;
#779 = EDGE_CURVE ( 'NONE', #463, #700, #432, .T. ) ;
#780 = ORIENTED_EDGE ( 'NONE', *, *, #884, .F. ) ;
#781 = CARTESIAN_POINT ( 'NONE',  ( 40.26000000000001933, 1.700000000000000178, -11.75000000000000000 ) ) ;
#782 = CALENDAR_DATE ( 2025, 5, 11 ) ;
#783 = AXIS2_PLACEMENT_3D ( 'NONE', #504, #250, #175 ) ;
#784 = ORIENTED_EDGE ( 'NONE', *, *, #913, .F. ) ;
#785 = CARTESIAN_POINT ( 'NONE',  ( -0.09999999999998898659, -22.96208152801711933, -9.050000000000007816 ) ) ;
#786 = ORIENTED_EDGE ( 'NONE', *, *, #368, .T. ) ;
#787 = APPROVAL_ROLE ( '' ) ;
#788 = ADVANCED_FACE ( 'NONE', ( #604 ), #940, .F. ) ;
#789 = ORIENTED_EDGE ( 'NONE', *, *, #748, .T. ) ;
#790 = AXIS2_PLACEMENT_3D ( 'NONE', #36, #255, #98 ) ;
#791 = LINE ( 'NONE', #540, #865 ) ;
#792 = ORIENTED_EDGE ( 'NONE', *, *, #499, .T. ) ;
#793 = PLANE ( 'NONE',  #137 ) ;
#794 = EDGE_LOOP ( 'NONE', ( #732, #1014, #805, #669 ) ) ;
#795 = EDGE_CURVE ( 'NONE', #894, #683, #712, .T. ) ;
#796 = DIRECTION ( 'NONE',  ( 0.000000000000000000, 0.000000000000000000, 1.000000000000000000 ) ) ;
#797 = ORIENTED_EDGE ( 'NONE', *, *, #224, .T. ) ;
#798 = LINE ( 'NONE', #217, #334 ) ;
#799 = ORIENTED_EDGE ( 'NONE', *, *, #847, .F. ) ;
#800 = LINE ( 'NONE', #50, #1019 ) ;
#801 = ORIENTED_EDGE ( 'NONE', *, *, #862, .F. ) ;
#802 = EDGE_CURVE ( 'NONE', #199, #141, #861, .T. ) ;
#803 = ORIENTED_EDGE ( 'NONE', *, *, #568, .T. ) ;
#804 = CARTESIAN_POINT ( 'NONE',  ( 15.03149024491531804, -127.9303719267109472, 0.000000000000000000 ) ) ;
#805 = ORIENTED_EDGE ( 'NONE', *, *, #45, .F. ) ;
#806 = APPROVAL ( #618, 'Sjednocen√' ) ;
#807 = DIRECTION ( 'NONE',  ( 1.000000000000000000, 0.000000000000000000, 0.000000000000000000 ) ) ;
#808 = VECTOR ( 'NONE', #231, 1000.000000000000000 ) ;
#809 = CC_DESIGN_APPROVAL ( #806, ( #296 ) ) ;
#810 = DIRECTION ( 'NONE',  ( 0.000000000000000000, 0.000000000000000000, 1.000000000000000000 ) ) ;
#811 = VECTOR ( 'NONE', #230, 1000.000000000000000 ) ;
#812 = CARTESIAN_POINT ( 'NONE',  ( 413.3508412767246227, -136.3133217793096037, -14.05000000000000071 ) ) ;
#813 = FACE_OUTER_BOUND ( 'NONE', #444, .T. ) ;
#814 = EDGE_LOOP ( 'NONE', ( #841, #210, #969, #1054 ) ) ;
#815 = CARTESIAN_POINT ( 'NONE',  ( -0.09999999999998898659, -102.9620815280171087, -9.050000000000007816 ) ) ;
#816 = DIRECTION ( 'NONE',  ( 0.7071067811865483499, -0.7071067811865467956, 0.000000000000000000 ) ) ;
#817 = CARTESIAN_POINT ( 'NONE',  ( 4.300000000000000711, -125.1388816817956808, 1.500000000000000000 ) ) ;
#818 = DIRECTION ( 'NONE',  ( 0.000000000000000000, 1.000000000000000000, 0.000000000000000000 ) ) ;
#819 = ORIENTED_EDGE ( 'NONE', *, *, #824, .F. ) ;
#820 = DIRECTION ( 'NONE',  ( 0.000000000000000000, 0.000000000000000000, 1.000000000000000000 ) ) ;
#821 = LINE ( 'NONE', #1079, #297 ) ;
#822 = VECTOR ( 'NONE', #908, 1000.000000000000000 ) ;
#823 = EDGE_CURVE ( 'NONE', #850, #774, #535, .T. ) ;
#824 = EDGE_CURVE ( 'NONE', #233, #344, #702, .T. ) ;
#825 = CARTESIAN_POINT ( 'NONE',  ( 4.300000000000000711, -125.1388816817956808, 1.500000000000000000 ) ) ;
#826 = DIRECTION ( 'NONE',  ( 0.000000000000000000, -1.000000000000000000, 0.000000000000000000 ) ) ;
#827 = ORIENTED_EDGE ( 'NONE', *, *, #77, .T. ) ;
#828 = DIRECTION ( 'NONE',  ( 0.000000000000000000, 0.000000000000000000, -1.000000000000000000 ) ) ;
#829 = CARTESIAN_POINT ( 'NONE',  ( 12.54620887067673785, -133.9303719267109614, 1.500000000000000000 ) ) ;
#830 = VECTOR ( 'NONE', #641, 1000.000000000000000 ) ;
#831 = PLANE ( 'NONE',  #261 ) ;
#832 = CARTESIAN_POINT ( 'NONE',  ( 15.03149024491531804, -127.9303719267109472, 1.500000000000000000 ) ) ;
#833 = ORIENTED_EDGE ( 'NONE', *, *, #1065, .T. ) ;
#834 = LINE ( 'NONE', #69, #474 ) ;
#835 = DIRECTION ( 'NONE',  ( -1.000000000000000000, -0.000000000000000000, -0.000000000000000000 ) ) ;
#836 = DIRECTION ( 'NONE',  ( -0.000000000000000000, 1.000000000000000000, -0.000000000000000000 ) ) ;
#837 = ORIENTED_EDGE ( 'NONE', *, *, #1013, .F. ) ;
#838 = DIRECTION ( 'NONE',  ( -1.000000000000000000, 0.000000000000000000, 0.000000000000000000 ) ) ;
#839 = CARTESIAN_POINT ( 'NONE',  ( 40.26000000000001933, 0.1000000000000000056, -11.74999999999999822 ) ) ;
#840 = CIRCLE ( 'NONE', #783, 1.499999999999999556 ) ;
#841 = ORIENTED_EDGE ( 'NONE', *, *, #659, .F. ) ;
#842 = LINE ( 'NONE', #578, #723 ) ;
#843 = LINE ( 'NONE', #427, #351 ) ;
#844 = EDGE_LOOP ( 'NONE', ( #693, #643, #799, #51 ) ) ;
#845 = CARTESIAN_POINT ( 'NONE',  ( -0.09999999999998898659, -22.96208152801711933, -9.050000000000007816 ) ) ;
#846 = DIRECTION ( 'NONE',  ( 0.000000000000000000, 0.000000000000000000, 1.000000000000000000 ) ) ;
#847 = EDGE_CURVE ( 'NONE', #274, #681, #187, .T. ) ;
#848 = FACE_OUTER_BOUND ( 'NONE', #321, .T. ) ;
#849 = CC_DESIGN_PERSON_AND_ORGANIZATION_ASSIGNMENT ( #119, #109, ( #339 ) ) ;
#850 = VERTEX_POINT ( 'NONE', #275 ) ;
#851 = EDGE_CURVE ( 'NONE', #547, #976, #452, .T. ) ;
#852 = CARTESIAN_POINT ( 'NONE',  ( 0.000000000000000000, 0.000000000000000000, -14.05000000000000071 ) ) ;
#853 = APPROVAL_DATE_TIME ( #206, #304 ) ;
#854 = AXIS2_PLACEMENT_3D ( 'NONE', #585, #65, #730 ) ;
#855 = AXIS2_PLACEMENT_3D ( 'NONE', #1064, #835, #810 ) ;
#856 = ORIENTED_EDGE ( 'NONE', *, *, #499, .F. ) ;
#857 = CARTESIAN_POINT ( 'NONE',  ( 214.1400000000000432, -136.3133217793096037, -14.05000000000000071 ) ) ;
#858 = ORIENTED_EDGE ( 'NONE', *, *, #627, .F. ) ;
#859 =( NAMED_UNIT ( * ) SI_UNIT ( $, .STERADIAN. ) SOLID_ANGLE_UNIT ( ) );
#860 = EDGE_LOOP ( 'NONE', ( #335, #1044, #240, #636 ) ) ;
#861 = LINE ( 'NONE', #281, #574 ) ;
#862 = EDGE_CURVE ( 'NONE', #863, #941, #791, .T. ) ;
#863 = VERTEX_POINT ( 'NONE', #943 ) ;
#864 = PERSON_AND_ORGANIZATION_ROLE ( 'creator' ) ;
#865 = VECTOR ( 'NONE', #193, 1000.000000000000000 ) ;
#866 = ORIENTED_EDGE ( 'NONE', *, *, #1077, .F. ) ;
#867 = EDGE_CURVE ( 'NONE', #496, #457, #625, .T. ) ;
#868 = DIRECTION ( 'NONE',  ( 0.000000000000000000, -1.000000000000000000, 0.000000000000000000 ) ) ;
#869 = VERTEX_POINT ( 'NONE', #952 ) ;
#870 = DIRECTION ( 'NONE',  ( -0.000000000000000000, 1.000000000000000000, -0.000000000000000000 ) ) ;
#871 = APPLICATION_PROTOCOL_DEFINITION ( 'international standard', 'config_control_design', 1994, #775 ) ;
#872 = ADVANCED_FACE ( 'NONE', ( #524 ), #442, .F. ) ;
#873 = ORIENTED_EDGE ( 'NONE', *, *, #513, .T. ) ;
#874 = VECTOR ( 'NONE', #892, 1000.000000000000000 ) ;
#875 = CARTESIAN_POINT ( 'NONE',  ( 15.59190042307235480, -134.7133217793096094, 0.000000000000000000 ) ) ;
#876 = ORIENTED_EDGE ( 'NONE', *, *, #368, .F. ) ;
#877 = DIRECTION ( 'NONE',  ( -1.000000000000000000, 0.000000000000000000, 0.000000000000000000 ) ) ;
#878 = CALENDAR_DATE ( 2025, 5, 11 ) ;
#879 = VERTEX_POINT ( 'NONE', #292 ) ;
#880 = CARTESIAN_POINT ( 'NONE',  ( -1.700000000000000178, -22.96208152801711933, -10.55000000000000782 ) ) ;
#881 = VERTEX_POINT ( 'NONE', #781 ) ;
#882 = FACE_BOUND ( 'NONE', #194, .T. ) ;
#883 = EDGE_CURVE ( 'NONE', #719, #1063, #374, .T. ) ;
#884 = EDGE_CURVE ( 'NONE', #393, #719, #912, .T. ) ;
#885 = VERTEX_POINT ( 'NONE', #1031 ) ;
#886 = VECTOR ( 'NONE', #661, 1000.000000000000000 ) ;
#887 = CARTESIAN_POINT ( 'NONE',  ( -1.700000000000000178, -127.6241630560342486, -14.05000000000000071 ) ) ;
#888 = EDGE_CURVE ( 'NONE', #678, #233, #949, .T. ) ;
#889 = ORIENTED_EDGE ( 'NONE', *, *, #120, .T. ) ;
#890 = FACE_OUTER_BOUND ( 'NONE', #8, .T. ) ;
#891 = FACE_OUTER_BOUND ( 'NONE', #933, .T. ) ;
#892 = DIRECTION ( 'NONE',  ( -0.000000000000000000, 1.000000000000000000, -0.000000000000000000 ) ) ;
#893 = LINE ( 'NONE', #133, #593 ) ;
#894 = VERTEX_POINT ( 'NONE', #197 ) ;
#895 = LINE ( 'NONE', #52, #493 ) ;
#896 = AXIS2_PLACEMENT_3D ( 'NONE', #588, #234, #407 ) ;
#897 = SECURITY_CLASSIFICATION ( '', '', #704 ) ;
#898 = CARTESIAN_POINT ( 'NONE',  ( -0.1000000000000000056, 0.1000000000000000056, -14.05000000000000071 ) ) ;
#899 = VECTOR ( 'NONE', #984, 1000.000000000000000 ) ;
#900 = CARTESIAN_POINT ( 'NONE',  ( -0.1000000000000000056, 0.1000000000000000056, -14.05000000000000071 ) ) ;
#901 = CARTESIAN_POINT ( 'NONE',  ( -0.09999999999998898659, -102.9620815280171087, -10.55000000000000782 ) ) ;
#902 = VERTEX_POINT ( 'NONE', #708 ) ;
#903 = DIRECTION ( 'NONE',  ( 0.000000000000000000, 0.000000000000000000, 1.000000000000000000 ) ) ;
#904 = CARTESIAN_POINT ( 'NONE',  ( 45.76000000000001933, 1.700000000000000178, -8.250000000000000000 ) ) ;
#905 = ADVANCED_FACE ( 'NONE', ( #271 ), #211, .T. ) ;
#906 = CC_DESIGN_PERSON_AND_ORGANIZATION_ASSIGNMENT ( #188, #288, ( #423 ) ) ;
#907 = LINE ( 'NONE', #749, #159 ) ;
#908 = DIRECTION ( 'NONE',  ( 0.7071067811865469066, -0.7071067811865482389, 0.000000000000000000 ) ) ;
#909 = VERTEX_POINT ( 'NONE', #285 ) ;
#910 = CARTESIAN_POINT ( 'NONE',  ( 13.20895057047370180, -132.3303719267109670, -14.05000000000000071 ) ) ;
#911 = CARTESIAN_POINT ( 'NONE',  ( -1.700000000000000178, -102.9620815280171087, -7.550000000000007816 ) ) ;
#912 = CIRCLE ( 'NONE', #99, 1.499999999999999556 ) ;
#913 = EDGE_CURVE ( 'NONE', #39, #894, #960, .T. ) ;
#914 = CARTESIAN_POINT ( 'NONE',  ( 40.26000000000001933, -14.22654878189439920, -4.750000000000000888 ) ) ;
#915 = EDGE_LOOP ( 'NONE', ( #1024, #451, #691, #477 ) ) ;
#916 = LINE ( 'NONE', #910, #527 ) ;
#917 = DIRECTION ( 'NONE',  ( 0.000000000000000000, -0.000000000000000000, 1.000000000000000000 ) ) ;
#918 = APPROVAL_PERSON_ORGANIZATION ( #361, #806, #31 ) ;
#919 = AXIS2_PLACEMENT_3D ( 'NONE', #401, #1015, #484 ) ;
#920 = CARTESIAN_POINT ( 'NONE',  ( 4.606208870676706368, -133.9303719267109614, -14.05000000000000071 ) ) ;
#921 = ORIENTED_EDGE ( 'NONE', *, *, #480, .T. ) ;
#922 = CARTESIAN_POINT ( 'NONE',  ( 5.268950570473669437, -132.3303719267109670, 0.000000000000000000 ) ) ;
#923 = DIRECTION ( 'NONE',  ( -1.000000000000000000, 0.000000000000000000, 0.000000000000000000 ) ) ;
#924 = VERTEX_POINT ( 'NONE', #875 ) ;
#925 = DIRECTION ( 'NONE',  ( -0.7071067811865474617, -0.7071067811865476838, 0.000000000000000000 ) ) ;
#926 = LINE ( 'NONE', #762, #606 ) ;
#927 = EDGE_CURVE ( 'NONE', #199, #607, #124, .T. ) ;
#928 = AXIS2_PLACEMENT_3D ( 'NONE', #16, #1008, #508 ) ;
#929 = ORIENTED_EDGE ( 'NONE', *, *, #450, .T. ) ;
#930 = DIRECTION ( 'NONE',  ( 1.000000000000000000, 0.000000000000000000, 0.000000000000000000 ) ) ;
#931 = AXIS2_PLACEMENT_3D ( 'NONE', #366, #521, #443 ) ;
#932 = PRODUCT_DEFINITION_SHAPE ( 'NONE', 'NONE',  #339 ) ;
#933 = EDGE_LOOP ( 'NONE', ( #784, #1082, #1033, #571 ) ) ;
#934 = CARTESIAN_POINT ( 'NONE',  ( -1.700000000000000178, -22.96208152801711933, -9.050000000000007816 ) ) ;
#935 = APPROVAL ( #1052, 'Sjednocen√' ) ;
#936 = EDGE_CURVE ( 'NONE', #463, #466, #458, .T. ) ;
#937 = CC_DESIGN_SECURITY_CLASSIFICATION ( #897, ( #296 ) ) ;
#938 = ADVANCED_FACE ( 'NONE', ( #548 ), #26, .F. ) ;
#939 = ORIENTED_EDGE ( 'NONE', *, *, #352, .F. ) ;
#940 = PLANE ( 'NONE',  #958 ) ;
#941 = VERTEX_POINT ( 'NONE', #804 ) ;
#942 = VERTEX_POINT ( 'NONE', #981 ) ;
#943 = CARTESIAN_POINT ( 'NONE',  ( 15.03149024491531804, -127.9303719267109472, 1.500000000000000000 ) ) ;
#944 = VERTEX_POINT ( 'NONE', #482 ) ;
#945 =( NAMED_UNIT ( * ) PLANE_ANGLE_UNIT ( ) SI_UNIT ( $, .RADIAN. ) );
#946 = VECTOR ( 'NONE', #807, 1000.000000000000000 ) ;
#947 = AXIS2_PLACEMENT_3D ( 'NONE', #904, #309, #148 ) ;
#948 = ORIENTED_EDGE ( 'NONE', *, *, #408, .F. ) ;
#949 = LINE ( 'NONE', #1049, #713 ) ;
#950 = CALENDAR_DATE ( 2025, 5, 11 ) ;
#951 = VERTEX_POINT ( 'NONE', #993 ) ;
#952 = CARTESIAN_POINT ( 'NONE',  ( 214.1400000000000432, 0.09999999999998898659, -14.05000000000000071 ) ) ;
#953 = EDGE_LOOP ( 'NONE', ( #251, #280, #803, #115 ) ) ;
#954 = CARTESIAN_POINT ( 'NONE',  ( 214.1400000000000432, -136.3133217793096037, 1.500000000000000000 ) ) ;
#955 = CALENDAR_DATE ( 2025, 5, 11 ) ;
#956 = EDGE_CURVE ( 'NONE', #141, #123, #215, .T. ) ;
#957 = EDGE_CURVE ( 'NONE', #976, #463, #1081, .T. ) ;
#958 = AXIS2_PLACEMENT_3D ( 'NONE', #181, #333, #671 ) ;
#959 = ORIENTED_EDGE ( 'NONE', *, *, #1013, .T. ) ;
#960 = LINE ( 'NONE', #111, #736 ) ;
#961 = ORIENTED_EDGE ( 'NONE', *, *, #778, .T. ) ;
#962 = CARTESIAN_POINT ( 'NONE',  ( 15.03149024491531804, -127.9303719267109472, 1.500000000000000000 ) ) ;
#963 = APPROVAL_DATE_TIME ( #455, #806 ) ;
#964 = VECTOR ( 'NONE', #78, 1000.000000000000000 ) ;
#965 = ORIENTED_EDGE ( 'NONE', *, *, #254, .T. ) ;
#966 = EDGE_CURVE ( 'NONE', #1020, #902, #893, .T. ) ;
#967 = VECTOR ( 'NONE', #338, 1000.000000000000000 ) ;
#968 = CARTESIAN_POINT ( 'NONE',  ( -1.700000000000000178, 1.700000000000000178, -14.05000000000000071 ) ) ;
#969 = ORIENTED_EDGE ( 'NONE', *, *, #92, .T. ) ;
#970 = DIRECTION ( 'NONE',  ( 0.000000000000000000, 0.000000000000000000, 1.000000000000000000 ) ) ;
#971 = DATE_AND_TIME ( #782, #318 ) ;
#972 = EDGE_CURVE ( 'NONE', #751, #850, #56, .T. ) ;
#973 = EDGE_CURVE ( 'NONE', #944, #879, #1057, .T. ) ;
#974 = ORIENTED_EDGE ( 'NONE', *, *, #677, .T. ) ;
#975 = DIRECTION ( 'NONE',  ( 0.7071067811865469066, -0.7071067811865482389, 0.000000000000000000 ) ) ;
#976 = VERTEX_POINT ( 'NONE', #648 ) ;
#977 = CARTESIAN_POINT ( 'NONE',  ( 45.76000000000001933, 1.700000000000000178, -11.75000000000000000 ) ) ;
#978 = DIRECTION ( 'NONE',  ( 1.000000000000000000, 0.000000000000000000, 0.000000000000000000 ) ) ;
#979 = DIRECTION ( 'NONE',  ( -1.000000000000000000, 0.000000000000000000, 0.000000000000000000 ) ) ;
#980 = VECTOR ( 'NONE', #776, 1000.000000000000000 ) ;
#981 = CARTESIAN_POINT ( 'NONE',  ( 214.1400000000000432, -4.299999999999999822, 0.000000000000000000 ) ) ;
#982 = VERTEX_POINT ( 'NONE', #128 ) ;
#983 = DIRECTION ( 'NONE',  ( 0.7071067811865474617, -0.7071067811865474617, 0.000000000000000000 ) ) ;
#984 = DIRECTION ( 'NONE',  ( 0.000000000000000000, 0.000000000000000000, 1.000000000000000000 ) ) ;
#985 = LINE ( 'NONE', #144, #91 ) ;
#986 = ADVANCED_FACE ( 'NONE', ( #232 ), #637, .T. ) ;
#987 = DIRECTION ( 'NONE',  ( 0.000000000000000000, -0.000000000000000000, -1.000000000000000000 ) ) ;
#988 = EDGE_LOOP ( 'NONE', ( #866, #889, #174, #707, #326, #68 ) ) ;
#989 = CARTESIAN_POINT ( 'NONE',  ( -0.09999999999998898659, -22.96208152801711933, -7.550000000000007816 ) ) ;
#990 = VECTOR ( 'NONE', #836, 1000.000000000000000 ) ;
#991 = FACE_OUTER_BOUND ( 'NONE', #1039, .T. ) ;
#992 = CARTESIAN_POINT ( 'NONE',  ( 15.03149024491531804, -127.9303719267109472, 0.000000000000000000 ) ) ;
#993 = CARTESIAN_POINT ( 'NONE',  ( 214.1400000000000432, -134.7133217793096094, 0.000000000000000000 ) ) ;
#994 = ORIENTED_EDGE ( 'NONE', *, *, #690, .F. ) ;
#995 = CYLINDRICAL_SURFACE ( 'NONE', #896, 3.499999999999998668 ) ;
#996 = DIRECTION ( 'NONE',  ( 7.177836520139454383E-18, -1.000000000000000000, 0.000000000000000000 ) ) ;
#997 = ADVANCED_FACE ( 'NONE', ( #552 ), #469, .T. ) ;
#998 = CARTESIAN_POINT ( 'NONE',  ( 214.1400000000000432, -136.3133217793096037, 1.500000000000000000 ) ) ;
#999 = DIRECTION ( 'NONE',  ( 1.000000000000000000, 0.000000000000000000, 0.000000000000000000 ) ) ;
#1000 = ORIENTED_EDGE ( 'NONE', *, *, #847, .T. ) ;
#1001 = CARTESIAN_POINT ( 'NONE',  ( 214.1400000000000432, -4.299999999999999822, 1.500000000000000000 ) ) ;
#1002 = CYLINDRICAL_SURFACE ( 'NONE', #855, 1.499999999999999556 ) ;
#1003 = LINE ( 'NONE', #237, #615 ) ;
#1004 = LINE ( 'NONE', #832, #32 ) ;
#1005 = ORIENTED_EDGE ( 'NONE', *, *, #665, .T. ) ;
#1006 = FACE_OUTER_BOUND ( 'NONE', #298, .T. ) ;
#1007 = EDGE_CURVE ( 'NONE', #1048, #470, #642, .T. ) ;
#1008 = DIRECTION ( 'NONE',  ( 1.000000000000000000, 7.177836520139454383E-18, -0.000000000000000000 ) ) ;
#1009 = VECTOR ( 'NONE', #828, 1000.000000000000000 ) ;
#1010 = CIRCLE ( 'NONE', #773, 1.499999999999999556 ) ;
#1011 = EDGE_CURVE ( 'NONE', #433, #180, #380, .T. ) ;
#1012 = CARTESIAN_POINT ( 'NONE',  ( 13.20895057047370180, -132.3303719267109670, 0.000000000000000000 ) ) ;
#1013 = EDGE_CURVE ( 'NONE', #233, #196, #169, .T. ) ;
#1014 = ORIENTED_EDGE ( 'NONE', *, *, #609, .F. ) ;
#1015 = DIRECTION ( 'NONE',  ( -1.000000000000000000, 0.000000000000000000, 0.000000000000000000 ) ) ;
#1016 = FACE_OUTER_BOUND ( 'NONE', #860, .T. ) ;
#1017 = EDGE_LOOP ( 'NONE', ( #628, #965 ) ) ;
#1018 = LINE ( 'NONE', #346, #252 ) ;
#1019 = VECTOR ( 'NONE', #975, 1000.000000000000000 ) ;
#1020 = VERTEX_POINT ( 'NONE', #901 ) ;
#1021 = EDGE_CURVE ( 'NONE', #976, #282, #320, .T. ) ;
#1022 = CC_DESIGN_PERSON_AND_ORGANIZATION_ASSIGNMENT ( #28, #623, ( #296 ) ) ;
#1023 = LINE ( 'NONE', #167, #967 ) ;
#1024 = ORIENTED_EDGE ( 'NONE', *, *, #120, .F. ) ;
#1025 = VECTOR ( 'NONE', #983, 1000.000000000000114 ) ;
#1026 = CIRCLE ( 'NONE', #543, 1.499999999999999556 ) ;
#1027 = CARTESIAN_POINT ( 'NONE',  ( 12.54620887067673785, -133.9303719267109614, -14.05000000000000071 ) ) ;
#1028 = ORIENTED_EDGE ( 'NONE', *, *, #883, .T. ) ;
#1029 = CARTESIAN_POINT ( 'NONE',  ( 13.20895057047370180, -132.3303719267109670, -14.05000000000000071 ) ) ;
#1030 = ORIENTED_EDGE ( 'NONE', *, *, #431, .T. ) ;
#1031 = CARTESIAN_POINT ( 'NONE',  ( 15.59190042307235480, -134.7133217793096094, -14.05000000000000071 ) ) ;
#1032 = VECTOR ( 'NONE', #796, 1000.000000000000000 ) ;
#1033 = ORIENTED_EDGE ( 'NONE', *, *, #487, .T. ) ;
#1034 = CARTESIAN_POINT ( 'NONE',  ( -0.1000000000000000056, 0.1000000000000000056, 0.000000000000000000 ) ) ;
#1035 = PERSON_AND_ORGANIZATION_ROLE ( 'classification_officer' ) ;
#1036 = EDGE_CURVE ( 'NONE', #470, #433, #655, .T. ) ;
#1037 = EDGE_LOOP ( 'NONE', ( #994, #1028, #35, #341 ) ) ;
#1038 = DIRECTION ( 'NONE',  ( 0.000000000000000000, -0.000000000000000000, 1.000000000000000000 ) ) ;
#1039 = EDGE_LOOP ( 'NONE', ( #516, #212, #84, #184 ) ) ;
#1040 = CARTESIAN_POINT ( 'NONE',  ( 14.92915872327539262, -136.3133217793096037, 1.500000000000000000 ) ) ;
#1041 = APPROVAL_DATE_TIME ( #528, #935 ) ;
#1042 = ORIENTED_EDGE ( 'NONE', *, *, #45, .T. ) ;
#1043 = CARTESIAN_POINT ( 'NONE',  ( 45.76000000000001933, -14.22654878189439920, -11.75000000000000000 ) ) ;
#1044 = ORIENTED_EDGE ( 'NONE', *, *, #927, .F. ) ;
#1045 = CARTESIAN_POINT ( 'NONE',  ( 40.26000000000001933, -14.22654878189439920, -8.250000000000000000 ) ) ;
#1046 = ADVANCED_FACE ( 'NONE', ( #813 ), #489, .T. ) ;
#1047 = VECTOR ( 'NONE', #364, 1000.000000000000000 ) ;
#1048 = VERTEX_POINT ( 'NONE', #718 ) ;
#1049 = CARTESIAN_POINT ( 'NONE',  ( 45.76000000000001933, 0.09999999999999939493, -11.75000000000000000 ) ) ;
#1050 = ORIENTED_EDGE ( 'NONE', *, *, #1072, .T. ) ;
#1051 = CARTESIAN_POINT ( 'NONE',  ( -1.700000000000000178, -22.96208152801711933, -7.550000000000007816 ) ) ;
#1052 = APPROVAL_STATUS ( 'not_yet_approved' ) ;
#1053 = EDGE_CURVE ( 'NONE', #466, #577, #744, .T. ) ;
#1054 = ORIENTED_EDGE ( 'NONE', *, *, #397, .T. ) ;
#1055 = APPROVAL_PERSON_ORGANIZATION ( #448, #304, #787 ) ;
#1056 = CIRCLE ( 'NONE', #584, 3.499999999999998668 ) ;
#1057 = LINE ( 'NONE', #300, #696 ) ;
#1058 = VERTEX_POINT ( 'NONE', #239 ) ;
#1059 = DIRECTION ( 'NONE',  ( 0.000000000000000000, 0.000000000000000000, -1.000000000000000000 ) ) ;
#1060 = DIRECTION ( 'NONE',  ( 0.000000000000000000, 0.000000000000000000, 1.000000000000000000 ) ) ;
#1061 = DIRECTION ( 'NONE',  ( -0.000000000000000000, 0.000000000000000000, 1.000000000000000000 ) ) ;
#1062 = DIRECTION ( 'NONE',  ( -0.000000000000000000, -0.000000000000000000, -1.000000000000000000 ) ) ;
#1063 = VERTEX_POINT ( 'NONE', #880 ) ;
#1064 = CARTESIAN_POINT ( 'NONE',  ( 434.2226406871192808, -102.9620815280171087, -9.050000000000007816 ) ) ;
#1065 = EDGE_CURVE ( 'NONE', #1048, #274, #800, .T. ) ;
#1066 = DIRECTION ( 'NONE',  ( 1.000000000000000000, 0.000000000000000000, -3.154042683594192655E-16 ) ) ;
#1067 = VECTOR ( 'NONE', #868, 1000.000000000000000 ) ;
#1068 = CARTESIAN_POINT ( 'NONE',  ( 5.268950570473669437, -132.3303719267109670, 0.000000000000000000 ) ) ;
#1069 = ORIENTED_EDGE ( 'NONE', *, *, #973, .T. ) ;
#1070 = DIRECTION ( 'NONE',  ( -1.000000000000000000, -0.000000000000000000, -0.000000000000000000 ) ) ;
#1071 = LINE ( 'NONE', #658, #811 ) ;
#1072 = EDGE_CURVE ( 'NONE', #863, #1058, #1004, .T. ) ;
#1073 = LINE ( 'NONE', #317, #403 ) ;
#1074 = CARTESIAN_POINT ( 'NONE',  ( 45.76000000000001933, 0.09999999999999939493, -8.250000000000000000 ) ) ;
#1075 = ORIENTED_EDGE ( 'NONE', *, *, #1021, .F. ) ;
#1076 = LINE ( 'NONE', #413, #278 ) ;
#1077 = EDGE_CURVE ( 'NONE', #711, #951, #576, .T. ) ;
#1078 = VECTOR ( 'NONE', #343, 1000.000000000000000 ) ;
#1079 = CARTESIAN_POINT ( 'NONE',  ( 214.1400000000000432, -136.3133217793096037, 1.500000000000000000 ) ) ;
#1080 = DIRECTION ( 'NONE',  ( 3.154042683594192655E-16, 0.000000000000000000, 1.000000000000000000 ) ) ;
#1081 = LINE ( 'NONE', #887, #536 ) ;
#1082 = ORIENTED_EDGE ( 'NONE', *, *, #462, .T. ) ;
#1083 = LINE ( 'NONE', #241, #209 ) ;
#1084 = CARTESIAN_POINT ( 'NONE',  ( -1.700000000000000178, -102.9620815280171087, -9.050000000000007816 ) ) ;
ENDSEC;
END-ISO-10303-21;
