ISO-10303-21;
HEADER;
FILE_DESCRIPTION (( 'STEP AP203' ),
    '1' );
FILE_NAME ('2-front.STEP',
    '2025-11-05T19:17:01',
    ( '' ),
    ( '' ),
    'SwSTEP 2.0',
    'SolidWorks 2025',
    '' );
FILE_SCHEMA (( 'CONFIG_CONTROL_DESIGN' ));
ENDSEC;

DATA;
#1 = DIRECTION ( 'NONE',  ( -1.000000000000000000, -0.000000000000000000, -0.000000000000000000 ) ) ;
#2 = LINE ( 'NONE', #500, #665 ) ;
#3 = EDGE_CURVE ( 'NONE', #517, #211, #376, .T. ) ;
#4 = ORIENTED_EDGE ( 'NONE', *, *, #508, .T. ) ;
#5 = VERTEX_POINT ( 'NONE', #593 ) ;
#6 = CARTESIAN_POINT ( 'NONE',  ( 423.0110494295263379, -132.3303719267109670, -14.05000000000000071 ) ) ;
#7 = EDGE_CURVE ( 'NONE', #860, #561, #868, .T. ) ;
#8 = CARTESIAN_POINT ( 'NONE',  ( 410.8655599024860976, -130.3133217793096037, 0.000000000000000000 ) ) ;
#9 = ORIENTED_EDGE ( 'NONE', *, *, #179, .F. ) ;
#10 = SHAPE_DEFINITION_REPRESENTATION ( #363, #801 ) ;
#11 = VECTOR ( 'NONE', #892, 1000.000000000000000 ) ;
#12 = LINE ( 'NONE', #21, #429 ) ;
#13 = VECTOR ( 'NONE', #795, 1000.000000000000000 ) ;
#14 = CARTESIAN_POINT ( 'NONE',  ( 214.1400000000000432, -136.3133217793096037, 1.500000000000000000 ) ) ;
#15 = ORIENTED_EDGE ( 'NONE', *, *, #888, .T. ) ;
#16 = CARTESIAN_POINT ( 'NONE',  ( 413.2485097550847399, -127.9303719267109472, 1.500000000000000000 ) ) ;
#17 = CARTESIAN_POINT ( 'NONE',  ( 0.000000000000000000, 0.000000000000000000, 0.000000000000000000 ) ) ;
#18 = ADVANCED_FACE ( 'NONE', ( #823 ), #250, .T. ) ;
#19 = DIRECTION ( 'NONE',  ( -0.000000000000000000, 0.000000000000000000, -1.000000000000000000 ) ) ;
#20 = CIRCLE ( 'NONE', #805, 1.499999999999999556 ) ;
#21 = CARTESIAN_POINT ( 'NONE',  ( 412.6880995769276410, -134.7133217793096094, -14.05000000000000071 ) ) ;
#22 = CARTESIAN_POINT ( 'NONE',  ( 214.1400000000000432, -130.3133217793096037, 1.500000000000000000 ) ) ;
#23 = DIRECTION ( 'NONE',  ( 0.000000000000000000, 0.000000000000000000, -1.000000000000000000 ) ) ;
#24 = VECTOR ( 'NONE', #88, 1000.000000000000000 ) ;
#25 = VECTOR ( 'NONE', #129, 999.9999999999998863 ) ;
#26 = LINE ( 'NONE', #830, #480 ) ;
#27 = PLANE ( 'NONE',  #199 ) ;
#28 = ORIENTED_EDGE ( 'NONE', *, *, #538, .F. ) ;
#29 = CARTESIAN_POINT ( 'NONE',  ( 428.3799999999999955, 0.1000000000000000056, -14.05000000000000071 ) ) ;
#30 = CARTESIAN_POINT ( 'NONE',  ( 415.7337911293233219, -133.9303719267109614, -14.05000000000000071 ) ) ;
#31 = DIRECTION ( 'NONE',  ( 0.000000000000000000, 0.000000000000000000, 1.000000000000000000 ) ) ;
#32 = ORIENTED_EDGE ( 'NONE', *, *, #782, .F. ) ;
#33 = LINE ( 'NONE', #631, #613 ) ;
#34 = VECTOR ( 'NONE', #236, 1000.000000000000000 ) ;
#35 = CARTESIAN_POINT ( 'NONE',  ( 415.7337911293233219, -133.9303719267109614, -14.05000000000000071 ) ) ;
#36 = ADVANCED_FACE ( 'NONE', ( #178 ), #308, .F. ) ;
#37 = DIRECTION ( 'NONE',  ( 0.000000000000000000, -0.000000000000000000, -1.000000000000000000 ) ) ;
#38 = EDGE_LOOP ( 'NONE', ( #737, #688 ) ) ;
#39 = MECHANICAL_CONTEXT ( 'NONE', #496, 'mechanical' ) ;
#40 = CARTESIAN_POINT ( 'NONE',  ( 410.8655599024860976, -130.3133217793096037, 1.500000000000000000 ) ) ;
#41 = AXIS2_PLACEMENT_3D ( 'NONE', #511, #156, #442 ) ;
#42 = LINE ( 'NONE', #121, #388 ) ;
#43 = VERTEX_POINT ( 'NONE', #383 ) ;
#44 = DIRECTION ( 'NONE',  ( 0.000000000000000000, 1.000000000000000000, 0.000000000000000000 ) ) ;
#45 = PLANE ( 'NONE',  #437 ) ;
#46 = DIRECTION ( 'NONE',  ( 0.000000000000000000, 1.000000000000000000, 0.000000000000000000 ) ) ;
#47 = ORIENTED_EDGE ( 'NONE', *, *, #180, .T. ) ;
#48 = ORIENTED_EDGE ( 'NONE', *, *, #355, .F. ) ;
#49 = CARTESIAN_POINT ( 'NONE',  ( 17.41444009751397104, -130.3133217793096037, 1.500000000000000000 ) ) ;
#50 = DIRECTION ( 'NONE',  ( 0.000000000000000000, 0.000000000000000000, -1.000000000000000000 ) ) ;
#51 = EDGE_LOOP ( 'NONE', ( #291, #361, #638, #299 ) ) ;
#52 = VERTEX_POINT ( 'NONE', #601 ) ;
#53 = APPROVAL_ROLE ( '' ) ;
#54 = CARTESIAN_POINT ( 'NONE',  ( 214.1400000000000432, -136.3133217793096037, 1.500000000000000000 ) ) ;
#55 = DIRECTION ( 'NONE',  ( 0.000000000000000000, -0.000000000000000000, 1.000000000000000000 ) ) ;
#56 = AXIS2_PLACEMENT_3D ( 'NONE', #906, #185, #699 ) ;
#57 = ORIENTED_EDGE ( 'NONE', *, *, #330, .T. ) ;
#58 = DIRECTION ( 'NONE',  ( 0.000000000000000000, -0.000000000000000000, -1.000000000000000000 ) ) ;
#59 = LINE ( 'NONE', #617, #715 ) ;
#60 = CC_DESIGN_PERSON_AND_ORGANIZATION_ASSIGNMENT ( #647, #934, ( #851 ) ) ;
#61 = ORIENTED_EDGE ( 'NONE', *, *, #166, .F. ) ;
#62 = DIRECTION ( 'NONE',  ( 0.000000000000000000, -1.000000000000000000, 0.000000000000000000 ) ) ;
#63 = DIRECTION ( 'NONE',  ( 0.7071067811865459074, 0.7071067811865491270, 0.000000000000000000 ) ) ;
#64 = VECTOR ( 'NONE', #378, 1000.000000000000000 ) ;
#65 = EDGE_LOOP ( 'NONE', ( #357, #111, #695, #579 ) ) ;
#66 = DATE_TIME_ROLE ( 'creation_date' ) ;
#67 = LINE ( 'NONE', #656, #13 ) ;
#68 = EDGE_LOOP ( 'NONE', ( #803, #701, #584, #283 ) ) ;
#69 = VERTEX_POINT ( 'NONE', #462 ) ;
#70 = VECTOR ( 'NONE', #668, 1000.000000000000000 ) ;
#71 = CALENDAR_DATE ( 2025, 5, 11 ) ;
#72 = DIRECTION ( 'NONE',  ( 1.000000000000000000, 0.000000000000000000, 0.000000000000000000 ) ) ;
#73 = EDGE_CURVE ( 'NONE', #620, #438, #531, .T. ) ;
#74 = EDGE_CURVE ( 'NONE', #206, #501, #692, .T. ) ;
#75 = ORIENTED_EDGE ( 'NONE', *, *, #677, .T. ) ;
#76 = ORIENTED_EDGE ( 'NONE', *, *, #425, .F. ) ;
#77 = PLANE ( 'NONE',  #346 ) ;
#78 = CARTESIAN_POINT ( 'NONE',  ( 423.9799999999999613, -4.299999999999999822, 1.500000000000000000 ) ) ;
#79 = ORIENTED_EDGE ( 'NONE', *, *, #398, .T. ) ;
#80 = VECTOR ( 'NONE', #381, 1000.000000000000114 ) ;
#81 = CARTESIAN_POINT ( 'NONE',  ( 434.2226406871192808, -22.96208152801711933, -9.050000000000007816 ) ) ;
#82 = PRODUCT ( '2-front', '2-front', '', ( #39 ) ) ;
#83 = LINE ( 'NONE', #746, #435 ) ;
#84 = ORIENTED_EDGE ( 'NONE', *, *, #411, .F. ) ;
#85 = VECTOR ( 'NONE', #458, 1000.000000000000000 ) ;
#86 = ADVANCED_FACE ( 'NONE', ( #597 ), #27, .F. ) ;
#87 = LINE ( 'NONE', #319, #80 ) ;
#88 = DIRECTION ( 'NONE',  ( 0.000000000000000000, 0.000000000000000000, 1.000000000000000000 ) ) ;
#89 = FACE_OUTER_BOUND ( 'NONE', #401, .T. ) ;
#90 = EDGE_CURVE ( 'NONE', #131, #485, #387, .T. ) ;
#91 = EDGE_CURVE ( 'NONE', #620, #924, #328, .T. ) ;
#92 = FACE_OUTER_BOUND ( 'NONE', #146, .T. ) ;
#93 = DIRECTION ( 'NONE',  ( 0.000000000000000000, 0.000000000000000000, 1.000000000000000000 ) ) ;
#94 = DIRECTION ( 'NONE',  ( 0.000000000000000000, -1.000000000000000000, 0.000000000000000000 ) ) ;
#95 = DIRECTION ( 'NONE',  ( -0.7071067811865510144, 0.7071067811865441310, 0.000000000000000000 ) ) ;
#96 = LINE ( 'NONE', #253, #120 ) ;
#97 = LINE ( 'NONE', #687, #242 ) ;
#98 = ORIENTED_EDGE ( 'NONE', *, *, #106, .T. ) ;
#99 = LINE ( 'NONE', #306, #567 ) ;
#100 = CLOSED_SHELL ( 'NONE', ( #727, #645, #466, #326, #278, #343, #539, #18, #829, #338, #101, #274, #581, #36, #86, #912, #409, #643, #931, #133, #150, #818, #235, #441, #592, #422, #552 ) ) ;
#101 = ADVANCED_FACE ( 'NONE', ( #450, #393, #89 ), #672, .F. ) ;
#102 = VECTOR ( 'NONE', #72, 1000.000000000000000 ) ;
#103 = DIRECTION ( 'NONE',  ( -1.000000000000000000, 0.000000000000000000, 0.000000000000000000 ) ) ;
#104 = DIRECTION ( 'NONE',  ( 0.000000000000000000, -1.000000000000000000, 0.000000000000000000 ) ) ;
#105 = ORIENTED_EDGE ( 'NONE', *, *, #513, .F. ) ;
#106 = EDGE_CURVE ( 'NONE', #762, #779, #97, .T. ) ;
#107 = EDGE_LOOP ( 'NONE', ( #506, #9, #585, #659 ) ) ;
#108 = PLANE ( 'NONE',  #505 ) ;
#109 = DIRECTION ( 'NONE',  ( -1.000000000000000000, -0.000000000000000000, -0.000000000000000000 ) ) ;
#110 = DIRECTION ( 'NONE',  ( 0.000000000000000000, -0.000000000000000000, -1.000000000000000000 ) ) ;
#111 = ORIENTED_EDGE ( 'NONE', *, *, #370, .F. ) ;
#112 = VECTOR ( 'NONE', #891, 1000.000000000000000 ) ;
#113 = CARTESIAN_POINT ( 'NONE',  ( -1.700000000000000178, 1.700000000000000178, -14.05000000000000071 ) ) ;
#114 = ORIENTED_EDGE ( 'NONE', *, *, #452, .T. ) ;
#115 = ORIENTED_EDGE ( 'NONE', *, *, #7, .T. ) ;
#116 = CARTESIAN_POINT ( 'NONE',  ( 214.1400000000000432, -134.7133217793096094, -14.05000000000000071 ) ) ;
#117 = EDGE_CURVE ( 'NONE', #43, #633, #241, .T. ) ;
#118 = EDGE_CURVE ( 'NONE', #220, #541, #902, .T. ) ;
#119 = DIRECTION ( 'NONE',  ( 0.000000000000000000, -0.000000000000000000, 1.000000000000000000 ) ) ;
#120 = VECTOR ( 'NONE', #749, 1000.000000000000000 ) ;
#121 = CARTESIAN_POINT ( 'NONE',  ( 413.3508412767246227, -136.3133217793096037, -14.05000000000000071 ) ) ;
#122 = ORIENTED_EDGE ( 'NONE', *, *, #117, .T. ) ;
#123 = EDGE_LOOP ( 'NONE', ( #565, #920, #878, #366 ) ) ;
#124 = CARTESIAN_POINT ( 'NONE',  ( 214.1400000000000432, -4.299999999999998046, 1.500000000000000000 ) ) ;
#125 = VERTEX_POINT ( 'NONE', #321 ) ;
#126 = PERSON_AND_ORGANIZATION_ROLE ( 'classification_officer' ) ;
#127 = ORIENTED_EDGE ( 'NONE', *, *, #304, .T. ) ;
#128 = DIRECTION ( 'NONE',  ( 0.000000000000000000, -0.000000000000000000, 1.000000000000000000 ) ) ;
#129 = DIRECTION ( 'NONE',  ( 0.7071067811865441310, 0.7071067811865510144, 0.000000000000000000 ) ) ;
#130 = AXIS2_PLACEMENT_3D ( 'NONE', #81, #742, #460 ) ;
#131 = VERTEX_POINT ( 'NONE', #245 ) ;
#132 = CARTESIAN_POINT ( 'NONE',  ( 214.1400000000000432, 0.09999999999998898659, -14.05000000000000071 ) ) ;
#133 = ADVANCED_FACE ( 'NONE', ( #612 ), #528, .T. ) ;
#134 = CARTESIAN_POINT ( 'NONE',  ( 434.2226406871192808, -22.96208152801711933, -10.55000000000000782 ) ) ;
#135 = VECTOR ( 'NONE', #430, 1000.000000000000000 ) ;
#136 = VECTOR ( 'NONE', #869, 1000.000000000000114 ) ;
#137 = ORIENTED_EDGE ( 'NONE', *, *, #471, .T. ) ;
#138 = EDGE_CURVE ( 'NONE', #69, #859, #545, .T. ) ;
#139 = DIRECTION ( 'NONE',  ( 1.000000000000000000, 0.000000000000000000, -0.000000000000000000 ) ) ;
#140 = CARTESIAN_POINT ( 'NONE',  ( 429.9799999999999613, -127.6241630560342486, -14.05000000000000071 ) ) ;
#141 = ORIENTED_EDGE ( 'NONE', *, *, #880, .F. ) ;
#142 = CARTESIAN_POINT ( 'NONE',  ( 428.3799999999999955, -22.96208152801711933, -9.050000000000007816 ) ) ;
#143 = DIRECTION ( 'NONE',  ( 0.7071067811865516806, 0.7071067811865434649, -0.000000000000000000 ) ) ;
#144 = VECTOR ( 'NONE', #684, 1000.000000000000000 ) ;
#145 = ORIENTED_EDGE ( 'NONE', *, *, #685, .F. ) ;
#146 = EDGE_LOOP ( 'NONE', ( #229, #651, #48, #296 ) ) ;
#147 = APPROVAL_ROLE ( '' ) ;
#148 = EDGE_CURVE ( 'NONE', #52, #196, #42, .T. ) ;
#149 = CYLINDRICAL_SURFACE ( 'NONE', #588, 1.499999999999999556 ) ;
#150 = ADVANCED_FACE ( 'NONE', ( #928 ), #492, .T. ) ;
#151 = EDGE_LOOP ( 'NONE', ( #683, #498, #47, #791 ) ) ;
#152 = ORIENTED_EDGE ( 'NONE', *, *, #888, .F. ) ;
#153 = VECTOR ( 'NONE', #719, 1000.000000000000000 ) ;
#154 = VECTOR ( 'NONE', #548, 1000.000000000000000 ) ;
#155 = DIRECTION ( 'NONE',  ( 0.000000000000000000, 0.000000000000000000, -1.000000000000000000 ) ) ;
#156 = DIRECTION ( 'NONE',  ( 1.000000000000000000, 0.000000000000000000, -0.000000000000000000 ) ) ;
#157 = EDGE_LOOP ( 'NONE', ( #797, #903, #28, #562 ) ) ;
#158 = LINE ( 'NONE', #239, #919 ) ;
#159 = FACE_OUTER_BOUND ( 'NONE', #288, .T. ) ;
#160 = ORIENTED_EDGE ( 'NONE', *, *, #162, .T. ) ;
#161 = VECTOR ( 'NONE', #625, 1000.000000000000000 ) ;
#162 = EDGE_CURVE ( 'NONE', #607, #324, #279, .T. ) ;
#163 = PLANE ( 'NONE',  #551 ) ;
#164 = DIRECTION ( 'NONE',  ( 0.000000000000000000, 0.000000000000000000, -1.000000000000000000 ) ) ;
#165 = EDGE_CURVE ( 'NONE', #762, #331, #564, .T. ) ;
#166 = EDGE_CURVE ( 'NONE', #860, #730, #790, .T. ) ;
#167 = DIRECTION ( 'NONE',  ( 0.7071067811865434649, -0.7071067811865516806, 0.000000000000000000 ) ) ;
#168 = VECTOR ( 'NONE', #885, 1000.000000000000000 ) ;
#169 = LINE ( 'NONE', #16, #786 ) ;
#170 = PLANE ( 'NONE',  #271 ) ;
#171 = CARTESIAN_POINT ( 'NONE',  ( 412.6880995769276410, -134.7133217793096094, -14.05000000000000071 ) ) ;
#172 = CARTESIAN_POINT ( 'NONE',  ( 421.1885097550847377, -127.9303719267109472, 0.000000000000000000 ) ) ;
#173 = LINE ( 'NONE', #30, #406 ) ;
#174 = DIRECTION ( 'NONE',  ( 1.000000000000000000, 0.000000000000000000, 0.000000000000000000 ) ) ;
#175 = EDGE_CURVE ( 'NONE', #859, #720, #59, .T. ) ;
#176 = CARTESIAN_POINT ( 'NONE',  ( 429.9799999999999613, -22.96208152801711933, -9.050000000000007816 ) ) ;
#177 = CARTESIAN_POINT ( 'NONE',  ( 429.9799999999999613, -127.6241630560342486, 1.500000000000000000 ) ) ;
#178 = FACE_OUTER_BOUND ( 'NONE', #714, .T. ) ;
#179 = EDGE_CURVE ( 'NONE', #420, #125, #264, .T. ) ;
#180 = EDGE_CURVE ( 'NONE', #196, #779, #195, .T. ) ;
#181 = ORIENTED_EDGE ( 'NONE', *, *, #179, .T. ) ;
#182 = ORIENTED_EDGE ( 'NONE', *, *, #452, .F. ) ;
#183 = VECTOR ( 'NONE', #290, 1000.000000000000000 ) ;
#184 = LINE ( 'NONE', #14, #556 ) ;
#185 = DIRECTION ( 'NONE',  ( -0.7071067811865435759, 0.7071067811865515695, 0.000000000000000000 ) ) ;
#186 = ORIENTED_EDGE ( 'NONE', *, *, #165, .T. ) ;
#187 = ORIENTED_EDGE ( 'NONE', *, *, #682, .F. ) ;
#188 = LINE ( 'NONE', #410, #559 ) ;
#189 = VERTEX_POINT ( 'NONE', #350 ) ;
#190 = EDGE_CURVE ( 'NONE', #5, #846, #650, .T. ) ;
#191 = VERTEX_POINT ( 'NONE', #807 ) ;
#192 = APPROVAL_DATE_TIME ( #547, #566 ) ;
#193 = CC_DESIGN_APPROVAL ( #641, ( #238 ) ) ;
#194 = LINE ( 'NONE', #40, #542 ) ;
#195 = LINE ( 'NONE', #662, #313 ) ;
#196 = VERTEX_POINT ( 'NONE', #576 ) ;
#197 = VERTEX_POINT ( 'NONE', #873 ) ;
#198 = PLANE ( 'NONE',  #231 ) ;
#199 = AXIS2_PLACEMENT_3D ( 'NONE', #171, #104, #37 ) ;
#200 = AXIS2_PLACEMENT_3D ( 'NONE', #930, #284, #423 ) ;
#201 = ORIENTED_EDGE ( 'NONE', *, *, #248, .F. ) ;
#202 = APPROVAL_DATE_TIME ( #580, #641 ) ;
#203 = ORIENTED_EDGE ( 'NONE', *, *, #118, .F. ) ;
#204 = PERSON_AND_ORGANIZATION ( #18446744073709551615, #18446744073709551615 ) ;
#205 = DIRECTION ( 'NONE',  ( 0.000000000000000000, 0.000000000000000000, -1.000000000000000000 ) ) ;
#206 = VERTEX_POINT ( 'NONE', #723 ) ;
#207 = DIRECTION ( 'NONE',  ( 0.000000000000000000, 1.000000000000000000, 0.000000000000000000 ) ) ;
#208 = LOCAL_TIME ( 20, 17, 1.000000000000000000, #489 ) ;
#209 = MANIFOLD_SOLID_BREP ( 'Odebrat vysunut\X2\00ed\X0\m3', #100 ) ;
#210 = DIRECTION ( 'NONE',  ( 1.000000000000000000, -0.000000000000000000, -0.000000000000000000 ) ) ;
#211 = VERTEX_POINT ( 'NONE', #218 ) ;
#212 = EDGE_CURVE ( 'NONE', #634, #846, #618, .T. ) ;
#213 = EDGE_CURVE ( 'NONE', #131, #431, #223, .T. ) ;
#214 = CARTESIAN_POINT ( 'NONE',  ( 423.9799999999999613, -4.299999999999999822, 1.500000000000000000 ) ) ;
#215 = DIRECTION ( 'NONE',  ( -1.000000000000000000, -0.000000000000000000, -0.000000000000000000 ) ) ;
#216 = ORIENTED_EDGE ( 'NONE', *, *, #212, .T. ) ;
#217 = DIRECTION ( 'NONE',  ( 0.000000000000000000, -1.000000000000000000, 0.000000000000000000 ) ) ;
#218 = CARTESIAN_POINT ( 'NONE',  ( 415.0710494295263402, -132.3303719267109670, 0.000000000000000000 ) ) ;
#219 = ORIENTED_EDGE ( 'NONE', *, *, #886, .F. ) ;
#220 = VERTEX_POINT ( 'NONE', #735 ) ;
#221 = CALENDAR_DATE ( 2025, 5, 11 ) ;
#222 = CYLINDRICAL_SURFACE ( 'NONE', #883, 1.499999999999999556 ) ;
#223 = LINE ( 'NONE', #497, #135 ) ;
#224 = LOCAL_TIME ( 20, 17, 1.000000000000000000, #352 ) ;
#225 = ORIENTED_EDGE ( 'NONE', *, *, #74, .T. ) ;
#226 = EDGE_LOOP ( 'NONE', ( #488, #939, #484, #614 ) ) ;
#227 = CARTESIAN_POINT ( 'NONE',  ( 429.9799999999999613, -102.9620815280171087, -9.050000000000007816 ) ) ;
#228 = LINE ( 'NONE', #78, #572 ) ;
#229 = ORIENTED_EDGE ( 'NONE', *, *, #7, .F. ) ;
#230 = VECTOR ( 'NONE', #273, 1000.000000000000000 ) ;
#231 = AXIS2_PLACEMENT_3D ( 'NONE', #113, #207, #119 ) ;
#232 = CARTESIAN_POINT ( 'NONE',  ( 214.1400000000000432, 1.700000000000000178, 1.500000000000000000 ) ) ;
#233 = FACE_OUTER_BOUND ( 'NONE', #157, .T. ) ;
#234 = ORIENTED_EDGE ( 'NONE', *, *, #640, .F. ) ;
#235 = ADVANCED_FACE ( 'NONE', ( #282 ), #364, .T. ) ;
#236 = DIRECTION ( 'NONE',  ( 0.000000000000000000, 1.000000000000000000, 0.000000000000000000 ) ) ;
#237 = CARTESIAN_POINT ( 'NONE',  ( 423.6737911293233196, -133.9303719267109614, -14.05000000000000071 ) ) ;
#238 = SECURITY_CLASSIFICATION ( '', '', #798 ) ;
#239 = CARTESIAN_POINT ( 'NONE',  ( 423.9799999999999613, -4.299999999999999822, 0.000000000000000000 ) ) ;
#240 = DIRECTION ( 'NONE',  ( -0.000000000000000000, 0.000000000000000000, -1.000000000000000000 ) ) ;
#241 = LINE ( 'NONE', #827, #810 ) ;
#242 = VECTOR ( 'NONE', #680, 1000.000000000000000 ) ;
#243 = PLANE ( 'NONE',  #490 ) ;
#244 = CARTESIAN_POINT ( 'NONE',  ( 214.1400000000000432, -130.3133217793096037, 1.500000000000000000 ) ) ;
#245 = CARTESIAN_POINT ( 'NONE',  ( 214.1400000000000432, -134.7133217793096094, 0.000000000000000000 ) ) ;
#246 = EDGE_CURVE ( 'NONE', #431, #211, #2, .T. ) ;
#247 = DIRECTION ( 'NONE',  ( 0.000000000000000000, 0.000000000000000000, 1.000000000000000000 ) ) ;
#248 = EDGE_CURVE ( 'NONE', #331, #191, #295, .T. ) ;
#249 = DIRECTION ( 'NONE',  ( -0.000000000000000000, 1.000000000000000000, -0.000000000000000000 ) ) ;
#250 = PLANE ( 'NONE',  #451 ) ;
#251 = UNCERTAINTY_MEASURE_WITH_UNIT (LENGTH_MEASURE( 1.000000000000000082E-05 ), #554, 'distance_accuracy_value', 'NONE');
#252 = ORIENTED_EDGE ( 'NONE', *, *, #398, .F. ) ;
#253 = CARTESIAN_POINT ( 'NONE',  ( -0.1000000000000000056, 0.1000000000000000056, 0.000000000000000000 ) ) ;
#254 = DIRECTION ( 'NONE',  ( 0.000000000000000000, 0.000000000000000000, -1.000000000000000000 ) ) ;
#255 = ORIENTED_EDGE ( 'NONE', *, *, #865, .T. ) ;
#256 = AXIS2_PLACEMENT_3D ( 'NONE', #587, #739, #657 ) ;
#257 = CIRCLE ( 'NONE', #667, 1.499999999999999556 ) ;
#258 = LINE ( 'NONE', #397, #635 ) ;
#259 = EDGE_CURVE ( 'NONE', #702, #813, #228, .T. ) ;
#260 = ORIENTED_EDGE ( 'NONE', *, *, #3, .F. ) ;
#261 = CALENDAR_DATE ( 2025, 5, 11 ) ;
#262 = EDGE_CURVE ( 'NONE', #189, #125, #368, .T. ) ;
#263 = FACE_OUTER_BOUND ( 'NONE', #65, .T. ) ;
#264 = LINE ( 'NONE', #627, #679 ) ;
#265 = VERTEX_POINT ( 'NONE', #644 ) ;
#266 = CIRCLE ( 'NONE', #532, 1.499999999999999556 ) ;
#267 = LINE ( 'NONE', #914, #272 ) ;
#268 = ORIENTED_EDGE ( 'NONE', *, *, #468, .T. ) ;
#269 = APPLICATION_PROTOCOL_DEFINITION ( 'international standard', 'config_control_design', 1994, #400 ) ;
#270 = CARTESIAN_POINT ( 'NONE',  ( 214.1400000000000432, -134.7133217793096094, -14.05000000000000071 ) ) ;
#271 = AXIS2_PLACEMENT_3D ( 'NONE', #17, #93, #836 ) ;
#272 = VECTOR ( 'NONE', #922, 1000.000000000000114 ) ;
#273 = DIRECTION ( 'NONE',  ( 0.000000000000000000, 0.000000000000000000, 1.000000000000000000 ) ) ;
#274 = ADVANCED_FACE ( 'NONE', ( #233 ), #516, .F. ) ;
#275 = ORIENTED_EDGE ( 'NONE', *, *, #304, .F. ) ;
#276 = ORIENTED_EDGE ( 'NONE', *, *, #936, .F. ) ;
#277 = CARTESIAN_POINT ( 'NONE',  ( 434.2226406871192808, -102.9620815280171087, -9.050000000000007816 ) ) ;
#278 = ADVANCED_FACE ( 'NONE', ( #159 ), #446, .T. ) ;
#279 = LINE ( 'NONE', #347, #230 ) ;
#280 = VERTEX_POINT ( 'NONE', #285 ) ;
#281 = CARTESIAN_POINT ( 'NONE',  ( 429.9799999999999613, -127.6241630560342486, -14.05000000000000071 ) ) ;
#282 = FACE_OUTER_BOUND ( 'NONE', #123, .T. ) ;
#283 = ORIENTED_EDGE ( 'NONE', *, *, #522, .T. ) ;
#284 = DIRECTION ( 'NONE',  ( -1.000000000000000000, -0.000000000000000000, 0.000000000000000000 ) ) ;
#285 = CARTESIAN_POINT ( 'NONE',  ( 428.3799999999999955, 0.1000000000000000056, -14.05000000000000071 ) ) ;
#286 = VECTOR ( 'NONE', #174, 1000.000000000000000 ) ;
#287 = EDGE_CURVE ( 'NONE', #331, #485, #870, .T. ) ;
#288 = EDGE_LOOP ( 'NONE', ( #75, #145, #759, #122 ) ) ;
#289 = DATE_TIME_ROLE ( 'classification_date' ) ;
#290 = DIRECTION ( 'NONE',  ( 0.000000000000000000, 1.000000000000000000, 0.000000000000000000 ) ) ;
#291 = ORIENTED_EDGE ( 'NONE', *, *, #374, .T. ) ;
#292 = ORIENTED_EDGE ( 'NONE', *, *, #91, .T. ) ;
#293 = APPROVAL_ROLE ( '' ) ;
#294 = CARTESIAN_POINT ( 'NONE',  ( 423.0110494295263379, -132.3303719267109670, -14.05000000000000071 ) ) ;
#295 = LINE ( 'NONE', #583, #300 ) ;
#296 = ORIENTED_EDGE ( 'NONE', *, *, #799, .F. ) ;
#297 = VERTEX_POINT ( 'NONE', #177 ) ;
#298 = CARTESIAN_POINT ( 'NONE',  ( 214.1400000000000432, -4.299999999999999822, 0.000000000000000000 ) ) ;
#299 = ORIENTED_EDGE ( 'NONE', *, *, #444, .T. ) ;
#300 = VECTOR ( 'NONE', #877, 1000.000000000000000 ) ;
#301 = EDGE_CURVE ( 'NONE', #447, #206, #173, .T. ) ;
#302 = LINE ( 'NONE', #526, #34 ) ;
#303 = DIRECTION ( 'NONE',  ( 0.000000000000000000, -0.000000000000000000, 1.000000000000000000 ) ) ;
#304 = EDGE_CURVE ( 'NONE', #633, #220, #457, .T. ) ;
#305 = CARTESIAN_POINT ( 'NONE',  ( 415.0710494295263402, -132.3303719267109670, -14.05000000000000071 ) ) ;
#306 = CARTESIAN_POINT ( 'NONE',  ( 17.41444009751397104, -130.3133217793096037, 0.000000000000000000 ) ) ;
#307 = DIRECTION ( 'NONE',  ( 0.000000000000000000, 1.000000000000000000, 0.000000000000000000 ) ) ;
#308 = PLANE ( 'NONE',  #600 ) ;
#309 =( GEOMETRIC_REPRESENTATION_CONTEXT ( 3 ) GLOBAL_UNCERTAINTY_ASSIGNED_CONTEXT ( ( #251 ) ) GLOBAL_UNIT_ASSIGNED_CONTEXT ( ( #554, #414, #621 ) ) REPRESENTATION_CONTEXT ( 'NONE', 'WORKASPACE' ) );
#310 = FACE_OUTER_BOUND ( 'NONE', #68, .T. ) ;
#311 = DIRECTION ( 'NONE',  ( -1.000000000000000000, -0.000000000000000000, 0.000000000000000000 ) ) ;
#312 = EDGE_CURVE ( 'NONE', #191, #420, #320, .T. ) ;
#313 = VECTOR ( 'NONE', #436, 1000.000000000000000 ) ;
#314 = AXIS2_PLACEMENT_3D ( 'NONE', #277, #844, #703 ) ;
#315 = CARTESIAN_POINT ( 'NONE',  ( 214.1400000000000432, -136.3133217793096037, 1.500000000000000000 ) ) ;
#316 = CARTESIAN_POINT ( 'NONE',  ( 214.1400000000000432, 1.700000000000000178, 1.500000000000000000 ) ) ;
#317 = CARTESIAN_POINT ( 'NONE',  ( 214.1400000000000432, -4.299999999999999822, 1.500000000000000000 ) ) ;
#318 = EDGE_LOOP ( 'NONE', ( #459, #219, #502, #841 ) ) ;
#319 = CARTESIAN_POINT ( 'NONE',  ( 428.3799999999999955, -126.9614213562373095, 0.000000000000000000 ) ) ;
#320 = LINE ( 'NONE', #671, #793 ) ;
#321 = CARTESIAN_POINT ( 'NONE',  ( 413.2485097550847399, -127.9303719267109472, 0.000000000000000000 ) ) ;
#322 = ORIENTED_EDGE ( 'NONE', *, *, #373, .F. ) ;
#323 = APPROVAL_PERSON_ORGANIZATION ( #503, #641, #147 ) ;
#324 = VERTEX_POINT ( 'NONE', #604 ) ;
#325 = DIRECTION ( 'NONE',  ( -0.000000000000000000, 1.000000000000000000, -0.000000000000000000 ) ) ;
#326 = ADVANCED_FACE ( 'NONE', ( #375, #527, #905 ), #530, .T. ) ;
#327 = CARTESIAN_POINT ( 'NONE',  ( 428.3799999999999955, 0.1000000000000000056, 0.000000000000000000 ) ) ;
#328 = LINE ( 'NONE', #380, #774 ) ;
#329 = VERTEX_POINT ( 'NONE', #833 ) ;
#330 = EDGE_CURVE ( 'NONE', #534, #924, #96, .T. ) ;
#331 = VERTEX_POINT ( 'NONE', #22 ) ;
#332 = CARTESIAN_POINT ( 'NONE',  ( 423.9799999999999613, -125.1388816817957093, 1.500000000000000000 ) ) ;
#333 = ORIENTED_EDGE ( 'NONE', *, *, #213, .F. ) ;
#334 = CARTESIAN_POINT ( 'NONE',  ( 415.7337911293233219, -133.9303719267109614, -14.05000000000000071 ) ) ;
#335 = DIRECTION ( 'NONE',  ( -0.000000000000000000, 1.000000000000000000, -0.000000000000000000 ) ) ;
#336 = VERTEX_POINT ( 'NONE', #386 ) ;
#337 = CARTESIAN_POINT ( 'NONE',  ( 423.6737911293233196, -133.9303719267109614, -14.05000000000000071 ) ) ;
#338 = ADVANCED_FACE ( 'NONE', ( #822 ), #596, .F. ) ;
#339 = DIRECTION ( 'NONE',  ( -0.000000000000000000, -0.000000000000000000, -1.000000000000000000 ) ) ;
#340 = ORIENTED_EDGE ( 'NONE', *, *, #697, .T. ) ;
#341 = ORIENTED_EDGE ( 'NONE', *, *, #287, .T. ) ;
#342 = CARTESIAN_POINT ( 'NONE',  ( 429.9799999999999613, 1.700000000000000178, 1.500000000000000000 ) ) ;
#343 = ADVANCED_FACE ( 'NONE', ( #901 ), #379, .T. ) ;
#344 = CARTESIAN_POINT ( 'NONE',  ( 415.0710494295263402, -132.3303719267109670, -14.05000000000000071 ) ) ;
#345 = CIRCLE ( 'NONE', #896, 1.499999999999999556 ) ;
#346 = AXIS2_PLACEMENT_3D ( 'NONE', #353, #217, #367 ) ;
#347 = CARTESIAN_POINT ( 'NONE',  ( 428.3799999999999955, -126.9614213562373095, -14.05000000000000071 ) ) ;
#348 = ORIENTED_EDGE ( 'NONE', *, *, #935, .F. ) ;
#349 = CARTESIAN_POINT ( 'NONE',  ( 423.6737911293233196, -133.9303719267109614, 1.500000000000000000 ) ) ;
#350 = CARTESIAN_POINT ( 'NONE',  ( 410.8655599024860976, -130.3133217793096037, 0.000000000000000000 ) ) ;
#351 = ORIENTED_EDGE ( 'NONE', *, *, #918, .F. ) ;
#352 = COORDINATED_UNIVERSAL_TIME_OFFSET ( 1, 0, .AHEAD. ) ;
#353 = CARTESIAN_POINT ( 'NONE',  ( 423.0110494295263379, -132.3303719267109670, -14.05000000000000071 ) ) ;
#354 = CC_DESIGN_SECURITY_CLASSIFICATION ( #238, ( #851 ) ) ;
#355 = EDGE_CURVE ( 'NONE', #197, #730, #345, .T. ) ;
#356 = DIRECTION ( 'NONE',  ( -0.000000000000000000, -0.000000000000000000, -1.000000000000000000 ) ) ;
#357 = ORIENTED_EDGE ( 'NONE', *, *, #301, .T. ) ;
#358 = CARTESIAN_POINT ( 'NONE',  ( 429.9799999999999613, -127.6241630560342486, 1.500000000000000000 ) ) ;
#359 = VECTOR ( 'NONE', #215, 1000.000000000000000 ) ;
#360 = ORIENTED_EDGE ( 'NONE', *, *, #262, .F. ) ;
#361 = ORIENTED_EDGE ( 'NONE', *, *, #74, .F. ) ;
#362 = FACE_OUTER_BOUND ( 'NONE', #318, .T. ) ;
#363 = PRODUCT_DEFINITION_SHAPE ( 'NONE', 'NONE',  #814 ) ;
#364 = PLANE ( 'NONE',  #256 ) ;
#365 = ORIENTED_EDGE ( 'NONE', *, *, #918, .T. ) ;
#366 = ORIENTED_EDGE ( 'NONE', *, *, #259, .T. ) ;
#367 = DIRECTION ( 'NONE',  ( 0.000000000000000000, -0.000000000000000000, -1.000000000000000000 ) ) ;
#368 = LINE ( 'NONE', #8, #168 ) ;
#369 = LOCAL_TIME ( 20, 17, 1.000000000000000000, #857 ) ;
#370 = EDGE_CURVE ( 'NONE', #779, #206, #26, .T. ) ;
#371 = ORIENTED_EDGE ( 'NONE', *, *, #677, .F. ) ;
#372 = LINE ( 'NONE', #676, #660 ) ;
#373 = EDGE_CURVE ( 'NONE', #514, #464, #83, .T. ) ;
#374 = EDGE_CURVE ( 'NONE', #43, #501, #666, .T. ) ;
#375 = FACE_BOUND ( 'NONE', #736, .T. ) ;
#376 = LINE ( 'NONE', #305, #70 ) ;
#377 = VECTOR ( 'NONE', #766, 1000.000000000000000 ) ;
#378 = DIRECTION ( 'NONE',  ( 0.000000000000000000, 0.000000000000000000, 1.000000000000000000 ) ) ;
#379 = PLANE ( 'NONE',  #482 ) ;
#380 = CARTESIAN_POINT ( 'NONE',  ( 214.1400000000000432, 0.000000000000000000, 0.000000000000000000 ) ) ;
#381 = DIRECTION ( 'NONE',  ( 0.7071067811865474617, 0.7071067811865474617, -0.000000000000000000 ) ) ;
#382 = CARTESIAN_POINT ( 'NONE',  ( 423.9799999999999613, -4.299999999999999822, 1.500000000000000000 ) ) ;
#383 = CARTESIAN_POINT ( 'NONE',  ( 423.6737911293233196, -133.9303719267109614, -14.05000000000000071 ) ) ;
#384 = VECTOR ( 'NONE', #23, 1000.000000000000000 ) ;
#385 = CARTESIAN_POINT ( 'NONE',  ( 413.3508412767246227, -136.3133217793096037, 1.500000000000000000 ) ) ;
#386 = CARTESIAN_POINT ( 'NONE',  ( 429.9799999999999613, -102.9620815280171087, -10.55000000000000782 ) ) ;
#387 = LINE ( 'NONE', #838, #85 ) ;
#388 = VECTOR ( 'NONE', #210, 1000.000000000000000 ) ;
#389 = VECTOR ( 'NONE', #937, 1000.000000000000000 ) ;
#390 = ORIENTED_EDGE ( 'NONE', *, *, #538, .T. ) ;
#391 = CARTESIAN_POINT ( 'NONE',  ( 415.0710494295263402, -132.3303719267109670, -14.05000000000000071 ) ) ;
#392 = DIRECTION ( 'NONE',  ( 0.000000000000000000, -0.000000000000000000, -1.000000000000000000 ) ) ;
#393 = FACE_BOUND ( 'NONE', #573, .T. ) ;
#394 = ORIENTED_EDGE ( 'NONE', *, *, #610, .T. ) ;
#395 = EDGE_LOOP ( 'NONE', ( #365, #569, #557, #432 ) ) ;
#396 = DIRECTION ( 'NONE',  ( 1.000000000000000000, -0.000000000000000000, -0.000000000000000000 ) ) ;
#397 = CARTESIAN_POINT ( 'NONE',  ( -1.700000000000000178, 1.700000000000000178, -14.05000000000000071 ) ) ;
#398 = EDGE_CURVE ( 'NONE', #438, #412, #184, .T. ) ;
#399 = APPROVAL_PERSON_ORGANIZATION ( #867, #907, #293 ) ;
#400 = APPLICATION_CONTEXT ( 'configuration controlled 3d designs of mechanical parts and assemblies' ) ;
#401 = EDGE_LOOP ( 'NONE', ( #944, #439, #187, #160 ) ) ;
#402 = DIRECTION ( 'NONE',  ( 0.000000000000000000, 0.000000000000000000, 1.000000000000000000 ) ) ;
#403 = DIRECTION ( 'NONE',  ( 0.000000000000000000, 0.000000000000000000, -1.000000000000000000 ) ) ;
#404 = ORIENTED_EDGE ( 'NONE', *, *, #685, .T. ) ;
#405 = LINE ( 'NONE', #535, #725 ) ;
#406 = VECTOR ( 'NONE', #454, 1000.000000000000000 ) ;
#407 = LINE ( 'NONE', #337, #923 ) ;
#408 = EDGE_LOOP ( 'NONE', ( #61, #553, #624, #470 ) ) ;
#409 = ADVANCED_FACE ( 'NONE', ( #599 ), #170, .F. ) ;
#410 = CARTESIAN_POINT ( 'NONE',  ( 214.1400000000000432, -136.3133217793096037, -14.05000000000000071 ) ) ;
#411 = EDGE_CURVE ( 'NONE', #702, #438, #898, .T. ) ;
#412 = VERTEX_POINT ( 'NONE', #316 ) ;
#413 = ORIENTED_EDGE ( 'NONE', *, *, #682, .T. ) ;
#414 =( NAMED_UNIT ( * ) PLANE_ANGLE_UNIT ( ) SI_UNIT ( $, .RADIAN. ) );
#415 = CARTESIAN_POINT ( 'NONE',  ( 428.3799999999999955, -102.9620815280171087, -9.050000000000007816 ) ) ;
#416 = ORIENTED_EDGE ( 'NONE', *, *, #355, .T. ) ;
#417 = CARTESIAN_POINT ( 'NONE',  ( 423.9799999999999613, -4.299999999999999822, 1.500000000000000000 ) ) ;
#418 = VECTOR ( 'NONE', #747, 1000.000000000000000 ) ;
#419 = VECTOR ( 'NONE', #434, 1000.000000000000000 ) ;
#420 = VERTEX_POINT ( 'NONE', #686 ) ;
#421 = DATE_AND_TIME ( #221, #741 ) ;
#422 = ADVANCED_FACE ( 'NONE', ( #467 ), #674, .F. ) ;
#423 = DIRECTION ( 'NONE',  ( 0.000000000000000000, 0.000000000000000000, -1.000000000000000000 ) ) ;
#424 = DIRECTION ( 'NONE',  ( 0.7071067811865491270, -0.7071067811865459074, 0.000000000000000000 ) ) ;
#425 = EDGE_CURVE ( 'NONE', #220, #265, #258, .T. ) ;
#426 = ORIENTED_EDGE ( 'NONE', *, *, #763, .F. ) ;
#427 = CALENDAR_DATE ( 2025, 5, 11 ) ;
#428 = LINE ( 'NONE', #494, #419 ) ;
#429 = VECTOR ( 'NONE', #247, 1000.000000000000000 ) ;
#430 = DIRECTION ( 'NONE',  ( 1.000000000000000000, -0.000000000000000000, -0.000000000000000000 ) ) ;
#431 = VERTEX_POINT ( 'NONE', #691 ) ;
#432 = ORIENTED_EDGE ( 'NONE', *, *, #3, .T. ) ;
#433 = COORDINATED_UNIVERSAL_TIME_OFFSET ( 1, 0, .AHEAD. ) ;
#434 = DIRECTION ( 'NONE',  ( 0.000000000000000000, 0.000000000000000000, 1.000000000000000000 ) ) ;
#435 = VECTOR ( 'NONE', #756, 1000.000000000000000 ) ;
#436 = DIRECTION ( 'NONE',  ( 0.000000000000000000, 0.000000000000000000, 1.000000000000000000 ) ) ;
#437 = AXIS2_PLACEMENT_3D ( 'NONE', #334, #483, #712 ) ;
#438 = VERTEX_POINT ( 'NONE', #124 ) ;
#439 = ORIENTED_EDGE ( 'NONE', *, *, #819, .F. ) ;
#440 = CARTESIAN_POINT ( 'NONE',  ( 434.2226406871192808, -22.96208152801711933, -9.050000000000007816 ) ) ;
#441 = ADVANCED_FACE ( 'NONE', ( #477 ), #544, .F. ) ;
#442 = DIRECTION ( 'NONE',  ( 0.000000000000000000, 0.000000000000000000, -1.000000000000000000 ) ) ;
#443 = ORIENTED_EDGE ( 'NONE', *, *, #373, .T. ) ;
#444 = EDGE_CURVE ( 'NONE', #447, #43, #407, .T. ) ;
#445 = LINE ( 'NONE', #815, #112 ) ;
#446 = PLANE ( 'NONE',  #837 ) ;
#447 = VERTEX_POINT ( 'NONE', #35 ) ;
#448 = CARTESIAN_POINT ( 'NONE',  ( 0.000000000000000000, 0.000000000000000000, -14.05000000000000071 ) ) ;
#449 = DIRECTION ( 'NONE',  ( 0.7071067811865516806, 0.7071067811865434649, 0.000000000000000000 ) ) ;
#450 = FACE_BOUND ( 'NONE', #481, .T. ) ;
#451 = AXIS2_PLACEMENT_3D ( 'NONE', #605, #94, #110 ) ;
#452 = EDGE_CURVE ( 'NONE', #689, #265, #188, .T. ) ;
#453 = LINE ( 'NONE', #748, #161 ) ;
#454 = DIRECTION ( 'NONE',  ( 0.000000000000000000, 0.000000000000000000, 1.000000000000000000 ) ) ;
#455 = DIRECTION ( 'NONE',  ( 1.000000000000000000, 0.000000000000000000, -0.000000000000000000 ) ) ;
#456 = LINE ( 'NONE', #232, #384 ) ;
#457 = LINE ( 'NONE', #461, #941 ) ;
#458 = DIRECTION ( 'NONE',  ( 0.000000000000000000, 1.000000000000000000, 0.000000000000000000 ) ) ;
#459 = ORIENTED_EDGE ( 'NONE', *, *, #73, .F. ) ;
#460 = DIRECTION ( 'NONE',  ( 0.000000000000000000, 0.000000000000000000, 1.000000000000000000 ) ) ;
#461 = CARTESIAN_POINT ( 'NONE',  ( 429.9799999999999613, 1.700000000000000178, -14.05000000000000071 ) ) ;
#462 = CARTESIAN_POINT ( 'NONE',  ( 421.1885097550847377, -127.9303719267109472, 1.500000000000000000 ) ) ;
#463 = VECTOR ( 'NONE', #653, 1000.000000000000000 ) ;
#464 = VERTEX_POINT ( 'NONE', #858 ) ;
#465 = DIRECTION ( 'NONE',  ( -1.000000000000000000, 0.000000000000000000, 0.000000000000000000 ) ) ;
#466 = ADVANCED_FACE ( 'NONE', ( #783 ), #198, .T. ) ;
#467 = FACE_OUTER_BOUND ( 'NONE', #550, .T. ) ;
#468 = EDGE_CURVE ( 'NONE', #720, #813, #917, .T. ) ;
#469 = CARTESIAN_POINT ( 'NONE',  ( 415.7337911293233219, -133.9303719267109614, 1.500000000000000000 ) ) ;
#470 = ORIENTED_EDGE ( 'NONE', *, *, #697, .F. ) ;
#471 = EDGE_CURVE ( 'NONE', #280, #689, #761, .T. ) ;
#472 = ORIENTED_EDGE ( 'NONE', *, *, #175, .T. ) ;
#473 = DIRECTION ( 'NONE',  ( -0.000000000000000000, 1.000000000000000000, -0.000000000000000000 ) ) ;
#474 = ORIENTED_EDGE ( 'NONE', *, *, #935, .T. ) ;
#475 = ORIENTED_EDGE ( 'NONE', *, *, #713, .F. ) ;
#476 = PLANE ( 'NONE',  #693 ) ;
#477 = FACE_OUTER_BOUND ( 'NONE', #740, .T. ) ;
#478 = CARTESIAN_POINT ( 'NONE',  ( 214.1400000000000432, -136.3133217793096037, 1.500000000000000000 ) ) ;
#479 = ORIENTED_EDGE ( 'NONE', *, *, #769, .F. ) ;
#480 = VECTOR ( 'NONE', #449, 1000.000000000000000 ) ;
#481 = EDGE_LOOP ( 'NONE', ( #416, #340 ) ) ;
#482 = AXIS2_PLACEMENT_3D ( 'NONE', #678, #890, #392 ) ;
#483 = DIRECTION ( 'NONE',  ( 0.7071067811865434649, -0.7071067811865516806, 0.000000000000000000 ) ) ;
#484 = ORIENTED_EDGE ( 'NONE', *, *, #533, .F. ) ;
#485 = VERTEX_POINT ( 'NONE', #910 ) ;
#486 = PERSON_AND_ORGANIZATION ( #18446744073709551615, #18446744073709551615 ) ;
#487 = CARTESIAN_POINT ( 'NONE',  ( 429.9799999999999613, -22.96208152801711933, -7.550000000000007816 ) ) ;
#488 = ORIENTED_EDGE ( 'NONE', *, *, #717, .F. ) ;
#489 = COORDINATED_UNIVERSAL_TIME_OFFSET ( 1, 0, .AHEAD. ) ;
#490 = AXIS2_PLACEMENT_3D ( 'NONE', #448, #670, #745 ) ;
#491 = PLANE ( 'NONE',  #812 ) ;
#492 = PLANE ( 'NONE',  #510 ) ;
#493 = EDGE_LOOP ( 'NONE', ( #628, #808, #79, #255, #182, #152 ) ) ;
#494 = CARTESIAN_POINT ( 'NONE',  ( 429.9799999999999613, -127.6241630560342486, -14.05000000000000071 ) ) ;
#495 = CC_DESIGN_DATE_AND_TIME_ASSIGNMENT ( #940, #289, ( #238 ) ) ;
#496 = APPLICATION_CONTEXT ( 'configuration controlled 3d designs of mechanical parts and assemblies' ) ;
#497 = CARTESIAN_POINT ( 'NONE',  ( 412.6880995769276410, -134.7133217793096094, 0.000000000000000000 ) ) ;
#498 = ORIENTED_EDGE ( 'NONE', *, *, #148, .T. ) ;
#499 = DIRECTION ( 'NONE',  ( 0.000000000000000000, 0.000000000000000000, 1.000000000000000000 ) ) ;
#500 = CARTESIAN_POINT ( 'NONE',  ( 415.0710494295263402, -132.3303719267109670, 0.000000000000000000 ) ) ;
#501 = VERTEX_POINT ( 'NONE', #626 ) ;
#502 = ORIENTED_EDGE ( 'NONE', *, *, #259, .F. ) ;
#503 = PERSON_AND_ORGANIZATION ( #18446744073709551615, #18446744073709551615 ) ;
#504 = CARTESIAN_POINT ( 'NONE',  ( 434.2226406871192808, -102.9620815280171087, -9.050000000000007816 ) ) ;
#505 = AXIS2_PLACEMENT_3D ( 'NONE', #842, #772, #777 ) ;
#506 = ORIENTED_EDGE ( 'NONE', *, *, #577, .F. ) ;
#507 = ORIENTED_EDGE ( 'NONE', *, *, #262, .T. ) ;
#508 = EDGE_CURVE ( 'NONE', #191, #189, #194, .T. ) ;
#509 = LINE ( 'NONE', #358, #183 ) ;
#510 = AXIS2_PLACEMENT_3D ( 'NONE', #845, #46, #55 ) ;
#511 = CARTESIAN_POINT ( 'NONE',  ( 428.3799999999999955, -102.9620815280171087, -9.050000000000007816 ) ) ;
#512 = VECTOR ( 'NONE', #103, 1000.000000000000000 ) ;
#513 = EDGE_CURVE ( 'NONE', #69, #329, #622, .T. ) ;
#514 = VERTEX_POINT ( 'NONE', #270 ) ;
#515 = CARTESIAN_POINT ( 'NONE',  ( 423.0110494295263379, -132.3303719267109670, 0.000000000000000000 ) ) ;
#516 = PLANE ( 'NONE',  #825 ) ;
#517 = VERTEX_POINT ( 'NONE', #344 ) ;
#518 = DIRECTION ( 'NONE',  ( -1.000000000000000000, -0.000000000000000000, -0.000000000000000000 ) ) ;
#519 = CARTESIAN_POINT ( 'NONE',  ( 428.3799999999999955, -22.96208152801711933, -9.050000000000007816 ) ) ;
#520 = VECTOR ( 'NONE', #465, 1000.000000000000000 ) ;
#521 = CARTESIAN_POINT ( 'NONE',  ( 429.9799999999999613, -22.96208152801711933, -9.050000000000007816 ) ) ;
#522 = EDGE_CURVE ( 'NONE', #329, #720, #563, .T. ) ;
#523 = LINE ( 'NONE', #391, #144 ) ;
#524 = DIRECTION ( 'NONE',  ( 0.7071067811865516806, 0.7071067811865434649, 0.000000000000000000 ) ) ;
#525 = AXIS2_PLACEMENT_3D ( 'NONE', #609, #752, #240 ) ;
#526 = CARTESIAN_POINT ( 'NONE',  ( 423.9799999999999613, -125.1388816817957093, 1.500000000000000000 ) ) ;
#527 = FACE_BOUND ( 'NONE', #38, .T. ) ;
#528 = PLANE ( 'NONE',  #56 ) ;
#529 = FACE_OUTER_BOUND ( 'NONE', #775, .T. ) ;
#530 = PLANE ( 'NONE',  #525 ) ;
#531 = LINE ( 'NONE', #317, #418 ) ;
#532 = AXIS2_PLACEMENT_3D ( 'NONE', #227, #811, #155 ) ;
#533 = EDGE_CURVE ( 'NONE', #846, #634, #855, .T. ) ;
#534 = VERTEX_POINT ( 'NONE', #327 ) ;
#535 = CARTESIAN_POINT ( 'NONE',  ( 423.0110494295263379, -132.3303719267109670, 0.000000000000000000 ) ) ;
#536 = DIRECTION ( 'NONE',  ( 1.000000000000000000, 0.000000000000000000, -0.000000000000000000 ) ) ;
#537 = CARTESIAN_POINT ( 'NONE',  ( 415.0710494295263402, -132.3303719267109670, -14.05000000000000071 ) ) ;
#538 = EDGE_CURVE ( 'NONE', #619, #607, #267, .T. ) ;
#539 = ADVANCED_FACE ( 'NONE', ( #263 ), #45, .T. ) ;
#540 = VECTOR ( 'NONE', #339, 1000.000000000000000 ) ;
#541 = VERTEX_POINT ( 'NONE', #555 ) ;
#542 = VECTOR ( 'NONE', #636, 1000.000000000000000 ) ;
#543 = ORIENTED_EDGE ( 'NONE', *, *, #819, .T. ) ;
#544 = CYLINDRICAL_SURFACE ( 'NONE', #314, 1.499999999999999556 ) ;
#545 = LINE ( 'NONE', #784, #540 ) ;
#546 = ORIENTED_EDGE ( 'NONE', *, *, #248, .T. ) ;
#547 = DATE_AND_TIME ( #261, #369 ) ;
#548 = DIRECTION ( 'NONE',  ( -1.000000000000000000, -0.000000000000000000, -0.000000000000000000 ) ) ;
#549 = DIRECTION ( 'NONE',  ( -0.000000000000000000, -0.000000000000000000, -1.000000000000000000 ) ) ;
#550 = EDGE_LOOP ( 'NONE', ( #479, #141, #186, #341, #705, #348 ) ) ;
#551 = AXIS2_PLACEMENT_3D ( 'NONE', #895, #95, #821 ) ;
#552 = ADVANCED_FACE ( 'NONE', ( #853 ), #778, .F. ) ;
#553 = ORIENTED_EDGE ( 'NONE', *, *, #750, .F. ) ;
#554 =( LENGTH_UNIT ( ) NAMED_UNIT ( * ) SI_UNIT ( .MILLI., .METRE. ) );
#555 = CARTESIAN_POINT ( 'NONE',  ( 429.9799999999999613, 1.700000000000000178, 1.500000000000000000 ) ) ;
#556 = VECTOR ( 'NONE', #826, 1000.000000000000000 ) ;
#557 = ORIENTED_EDGE ( 'NONE', *, *, #610, .F. ) ;
#558 = APPROVAL_STATUS ( 'not_yet_approved' ) ;
#559 = VECTOR ( 'NONE', #473, 1000.000000000000000 ) ;
#560 = DIRECTION ( 'NONE',  ( 1.000000000000000000, 0.000000000000000000, 0.000000000000000000 ) ) ;
#561 = VERTEX_POINT ( 'NONE', #487 ) ;
#562 = ORIENTED_EDGE ( 'NONE', *, *, #623, .T. ) ;
#563 = LINE ( 'NONE', #332, #839 ) ;
#564 = LINE ( 'NONE', #478, #757 ) ;
#565 = ORIENTED_EDGE ( 'NONE', *, *, #468, .F. ) ;
#566 = APPROVAL ( #558, 'Sjednocen√' ) ;
#567 = VECTOR ( 'NONE', #608, 1000.000000000000000 ) ;
#568 = CARTESIAN_POINT ( 'NONE',  ( 413.2485097550847399, -127.9303719267109472, 0.000000000000000000 ) ) ;
#569 = ORIENTED_EDGE ( 'NONE', *, *, #623, .F. ) ;
#570 = PERSON_AND_ORGANIZATION ( #18446744073709551615, #18446744073709551615 ) ;
#571 = LINE ( 'NONE', #294, #389 ) ;
#572 = VECTOR ( 'NONE', #356, 1000.000000000000000 ) ;
#573 = EDGE_LOOP ( 'NONE', ( #871, #216 ) ) ;
#574 = PERSON_AND_ORGANIZATION_ROLE ( 'design_supplier' ) ;
#575 = LINE ( 'NONE', #349, #136 ) ;
#576 = CARTESIAN_POINT ( 'NONE',  ( 413.3508412767246227, -136.3133217793096037, -14.05000000000000071 ) ) ;
#577 = EDGE_CURVE ( 'NONE', #125, #859, #586, .T. ) ;
#578 = ORIENTED_EDGE ( 'NONE', *, *, #212, .F. ) ;
#579 = ORIENTED_EDGE ( 'NONE', *, *, #640, .T. ) ;
#580 = DATE_AND_TIME ( #731, #862 ) ;
#581 = ADVANCED_FACE ( 'NONE', ( #882 ), #77, .F. ) ;
#582 = DIRECTION ( 'NONE',  ( 0.000000000000000000, 0.000000000000000000, -1.000000000000000000 ) ) ;
#583 = CARTESIAN_POINT ( 'NONE',  ( 17.41444009751397104, -130.3133217793096037, 1.500000000000000000 ) ) ;
#584 = ORIENTED_EDGE ( 'NONE', *, *, #513, .T. ) ;
#585 = ORIENTED_EDGE ( 'NONE', *, *, #850, .T. ) ;
#586 = LINE ( 'NONE', #568, #102 ) ;
#587 = CARTESIAN_POINT ( 'NONE',  ( 423.9799999999999613, -125.1388816817957093, 1.500000000000000000 ) ) ;
#588 = AXIS2_PLACEMENT_3D ( 'NONE', #504, #649, #789 ) ;
#589 = EDGE_LOOP ( 'NONE', ( #322, #474, #817, #32 ) ) ;
#590 = CARTESIAN_POINT ( 'NONE',  ( 428.3799999999999955, -22.96208152801711933, -10.55000000000000782 ) ) ;
#591 = CARTESIAN_POINT ( 'NONE',  ( -0.1000000000000000056, 0.1000000000000000056, -14.05000000000000071 ) ) ;
#592 = ADVANCED_FACE ( 'NONE', ( #661 ), #222, .F. ) ;
#593 = CARTESIAN_POINT ( 'NONE',  ( 429.9799999999999613, -102.9620815280171087, -7.550000000000007816 ) ) ;
#594 = CC_DESIGN_DATE_AND_TIME_ASSIGNMENT ( #421, #66, ( #814 ) ) ;
#595 = CARTESIAN_POINT ( 'NONE',  ( 429.9799999999999613, -22.96208152801711933, -10.55000000000000782 ) ) ;
#596 = PLANE ( 'NONE',  #897 ) ;
#597 = FACE_OUTER_BOUND ( 'NONE', #589, .T. ) ;
#598 = DIRECTION ( 'NONE',  ( 0.000000000000000000, 0.000000000000000000, -1.000000000000000000 ) ) ;
#599 = FACE_OUTER_BOUND ( 'NONE', #754, .T. ) ;
#600 = AXIS2_PLACEMENT_3D ( 'NONE', #537, #167, #831 ) ;
#601 = CARTESIAN_POINT ( 'NONE',  ( 214.1400000000000432, -136.3133217793096037, -14.05000000000000071 ) ) ;
#602 = CIRCLE ( 'NONE', #200, 1.499999999999999556 ) ;
#603 = LINE ( 'NONE', #751, #932 ) ;
#604 = CARTESIAN_POINT ( 'NONE',  ( 428.3799999999999955, -126.9614213562373095, 0.000000000000000000 ) ) ;
#605 = CARTESIAN_POINT ( 'NONE',  ( 413.3508412767246227, -136.3133217793096037, -14.05000000000000071 ) ) ;
#606 = EDGE_CURVE ( 'NONE', #297, #541, #509, .T. ) ;
#607 = VERTEX_POINT ( 'NONE', #800 ) ;
#608 = DIRECTION ( 'NONE',  ( 1.000000000000000000, 0.000000000000000000, 0.000000000000000000 ) ) ;
#609 = CARTESIAN_POINT ( 'NONE',  ( 429.9799999999999613, 1.700000000000000178, -14.05000000000000071 ) ) ;
#610 = EDGE_CURVE ( 'NONE', #517, #619, #806, .T. ) ;
#611 = EDGE_CURVE ( 'NONE', #5, #336, #602, .T. ) ;
#612 = FACE_OUTER_BOUND ( 'NONE', #943, .T. ) ;
#613 = VECTOR ( 'NONE', #325, 1000.000000000000000 ) ;
#614 = ORIENTED_EDGE ( 'NONE', *, *, #190, .F. ) ;
#615 = LINE ( 'NONE', #342, #520 ) ;
#616 = DIRECTION ( 'NONE',  ( 1.000000000000000000, -0.000000000000000000, -0.000000000000000000 ) ) ;
#617 = CARTESIAN_POINT ( 'NONE',  ( 421.1885097550847377, -127.9303719267109472, 0.000000000000000000 ) ) ;
#618 = CIRCLE ( 'NONE', #41, 1.499999999999999556 ) ;
#619 = VERTEX_POINT ( 'NONE', #6 ) ;
#620 = VERTEX_POINT ( 'NONE', #298 ) ;
#621 =( NAMED_UNIT ( * ) SI_UNIT ( $, .STERADIAN. ) SOLID_ANGLE_UNIT ( ) );
#622 = LINE ( 'NONE', #927, #25 ) ;
#623 = EDGE_CURVE ( 'NONE', #619, #875, #571, .T. ) ;
#624 = ORIENTED_EDGE ( 'NONE', *, *, #799, .T. ) ;
#625 = DIRECTION ( 'NONE',  ( 0.000000000000000000, 0.000000000000000000, -1.000000000000000000 ) ) ;
#626 = CARTESIAN_POINT ( 'NONE',  ( 423.6737911293233196, -133.9303719267109614, 1.500000000000000000 ) ) ;
#627 = CARTESIAN_POINT ( 'NONE',  ( 413.2485097550847399, -127.9303719267109472, 1.500000000000000000 ) ) ;
#628 = ORIENTED_EDGE ( 'NONE', *, *, #91, .F. ) ;
#629 = CC_DESIGN_APPROVAL ( #566, ( #814 ) ) ;
#630 = ORIENTED_EDGE ( 'NONE', *, *, #854, .T. ) ;
#631 = CARTESIAN_POINT ( 'NONE',  ( 428.3799999999999955, 0.1000000000000000056, 0.000000000000000000 ) ) ;
#632 = DIRECTION ( 'NONE',  ( -0.000000000000000000, -0.000000000000000000, -1.000000000000000000 ) ) ;
#633 = VERTEX_POINT ( 'NONE', #281 ) ;
#634 = VERTEX_POINT ( 'NONE', #864 ) ;
#635 = VECTOR ( 'NONE', #109, 1000.000000000000000 ) ;
#636 = DIRECTION ( 'NONE',  ( -0.000000000000000000, -0.000000000000000000, -1.000000000000000000 ) ) ;
#637 = CC_DESIGN_PERSON_AND_ORGANIZATION_ASSIGNMENT ( #204, #639, ( #814 ) ) ;
#638 = ORIENTED_EDGE ( 'NONE', *, *, #301, .F. ) ;
#639 = PERSON_AND_ORGANIZATION_ROLE ( 'creator' ) ;
#640 = EDGE_CURVE ( 'NONE', #196, #447, #942, .T. ) ;
#641 = APPROVAL ( #804, 'Sjednocen√' ) ;
#642 = CARTESIAN_POINT ( 'NONE',  ( 434.2226406871192808, -102.9620815280171087, -10.55000000000000782 ) ) ;
#643 = ADVANCED_FACE ( 'NONE', ( #362 ), #491, .T. ) ;
#644 = CARTESIAN_POINT ( 'NONE',  ( 214.1400000000000432, 1.700000000000000178, -14.05000000000000071 ) ) ;
#645 = ADVANCED_FACE ( 'NONE', ( #718 ), #149, .F. ) ;
#646 = ORIENTED_EDGE ( 'NONE', *, *, #850, .F. ) ;
#647 = PERSON_AND_ORGANIZATION ( #18446744073709551615, #18446744073709551615 ) ;
#648 = APPROVAL_PERSON_ORGANIZATION ( #486, #566, #53 ) ;
#649 = DIRECTION ( 'NONE',  ( -1.000000000000000000, -0.000000000000000000, -0.000000000000000000 ) ) ;
#650 = LINE ( 'NONE', #728, #359 ) ;
#651 = ORIENTED_EDGE ( 'NONE', *, *, #166, .T. ) ;
#652 = APPROVAL_DATE_TIME ( #709, #907 ) ;
#653 = DIRECTION ( 'NONE',  ( 1.000000000000000000, -0.000000000000000000, -0.000000000000000000 ) ) ;
#654 = ORIENTED_EDGE ( 'NONE', *, *, #246, .T. ) ;
#655 = EDGE_LOOP ( 'NONE', ( #866, #546, #4, #863 ) ) ;
#656 = CARTESIAN_POINT ( 'NONE',  ( 428.3799999999999955, 0.1000000000000000056, -14.05000000000000071 ) ) ;
#657 = DIRECTION ( 'NONE',  ( 0.000000000000000000, 0.000000000000000000, 1.000000000000000000 ) ) ;
#658 = ORIENTED_EDGE ( 'NONE', *, *, #606, .T. ) ;
#659 = ORIENTED_EDGE ( 'NONE', *, *, #138, .T. ) ;
#660 = VECTOR ( 'NONE', #664, 1000.000000000000000 ) ;
#661 = FACE_OUTER_BOUND ( 'NONE', #408, .T. ) ;
#662 = CARTESIAN_POINT ( 'NONE',  ( 413.3508412767246227, -136.3133217793096037, -14.05000000000000071 ) ) ;
#663 = ORIENTED_EDGE ( 'NONE', *, *, #743, .T. ) ;
#664 = DIRECTION ( 'NONE',  ( -0.000000000000000000, 1.000000000000000000, -0.000000000000000000 ) ) ;
#665 = VECTOR ( 'NONE', #143, 1000.000000000000000 ) ;
#666 = LINE ( 'NONE', #237, #24 ) ;
#667 = AXIS2_PLACEMENT_3D ( 'NONE', #142, #139, #582 ) ;
#668 = DIRECTION ( 'NONE',  ( 0.000000000000000000, 0.000000000000000000, 1.000000000000000000 ) ) ;
#669 = CC_DESIGN_PERSON_AND_ORGANIZATION_ASSIGNMENT ( #925, #126, ( #238 ) ) ;
#670 = DIRECTION ( 'NONE',  ( -0.000000000000000000, 0.000000000000000000, 1.000000000000000000 ) ) ;
#671 = CARTESIAN_POINT ( 'NONE',  ( 410.8655599024860976, -130.3133217793096037, 1.500000000000000000 ) ) ;
#672 = PLANE ( 'NONE',  #700 ) ;
#673 = CARTESIAN_POINT ( 'NONE',  ( 423.9799999999999613, -4.299999999999999822, 0.000000000000000000 ) ) ;
#674 = PLANE ( 'NONE',  #734 ) ;
#675 = DIRECTION ( 'NONE',  ( 0.7071067811865460184, 0.7071067811865490160, -0.000000000000000000 ) ) ;
#676 = CARTESIAN_POINT ( 'NONE',  ( 214.1400000000000432, -136.3133217793096037, -14.05000000000000071 ) ) ;
#677 = EDGE_CURVE ( 'NONE', #633, #297, #428, .T. ) ;
#678 = CARTESIAN_POINT ( 'NONE',  ( 423.6737911293233196, -133.9303719267109614, -14.05000000000000071 ) ) ;
#679 = VECTOR ( 'NONE', #549, 1000.000000000000000 ) ;
#680 = DIRECTION ( 'NONE',  ( 1.000000000000000000, 0.000000000000000000, 0.000000000000000000 ) ) ;
#681 = AXIS2_PLACEMENT_3D ( 'NONE', #54, #560, #205 ) ;
#682 = EDGE_CURVE ( 'NONE', #607, #280, #67, .T. ) ;
#683 = ORIENTED_EDGE ( 'NONE', *, *, #880, .T. ) ;
#684 = DIRECTION ( 'NONE',  ( 0.7071067811865516806, 0.7071067811865434649, -0.000000000000000000 ) ) ;
#685 = EDGE_CURVE ( 'NONE', #501, #297, #575, .T. ) ;
#686 = CARTESIAN_POINT ( 'NONE',  ( 413.2485097550847399, -127.9303719267109472, 1.500000000000000000 ) ) ;
#687 = CARTESIAN_POINT ( 'NONE',  ( 14.92915872327539262, -136.3133217793096037, 1.500000000000000000 ) ) ;
#688 = ORIENTED_EDGE ( 'NONE', *, *, #717, .T. ) ;
#689 = VERTEX_POINT ( 'NONE', #132 ) ;
#690 = FACE_OUTER_BOUND ( 'NONE', #655, .T. ) ;
#691 = CARTESIAN_POINT ( 'NONE',  ( 412.6880995769276410, -134.7133217793096094, 0.000000000000000000 ) ) ;
#692 = LINE ( 'NONE', #469, #286 ) ;
#693 = AXIS2_PLACEMENT_3D ( 'NONE', #49, #44, #128 ) ;
#694 = ORIENTED_EDGE ( 'NONE', *, *, #312, .F. ) ;
#695 = ORIENTED_EDGE ( 'NONE', *, *, #180, .F. ) ;
#696 = PERSON_AND_ORGANIZATION_ROLE ( 'design_owner' ) ;
#697 = EDGE_CURVE ( 'NONE', #730, #197, #257, .T. ) ;
#698 = CARTESIAN_POINT ( 'NONE',  ( -0.1000000000000000056, 0.1000000000000000056, -14.05000000000000071 ) ) ;
#699 = DIRECTION ( 'NONE',  ( -0.7071067811865515695, -0.7071067811865435759, 0.000000000000000000 ) ) ;
#700 = AXIS2_PLACEMENT_3D ( 'NONE', #893, #455, #19 ) ;
#701 = ORIENTED_EDGE ( 'NONE', *, *, #138, .F. ) ;
#702 = VERTEX_POINT ( 'NONE', #417 ) ;
#703 = DIRECTION ( 'NONE',  ( 0.000000000000000000, 0.000000000000000000, 1.000000000000000000 ) ) ;
#704 = ORIENTED_EDGE ( 'NONE', *, *, #370, .T. ) ;
#705 = ORIENTED_EDGE ( 'NONE', *, *, #90, .F. ) ;
#706 = DIRECTION ( 'NONE',  ( 1.000000000000000000, 0.000000000000000000, 0.000000000000000000 ) ) ;
#707 = DIRECTION ( 'NONE',  ( 1.000000000000000000, 0.000000000000000000, 0.000000000000000000 ) ) ;
#708 = ORIENTED_EDGE ( 'NONE', *, *, #118, .T. ) ;
#709 = DATE_AND_TIME ( #71, #224 ) ;
#710 = ORIENTED_EDGE ( 'NONE', *, *, #312, .T. ) ;
#711 = PERSON_AND_ORGANIZATION ( #18446744073709551615, #18446744073709551615 ) ;
#712 = DIRECTION ( 'NONE',  ( 0.7071067811865516806, 0.7071067811865434649, 0.000000000000000000 ) ) ;
#713 = EDGE_CURVE ( 'NONE', #336, #634, #722, .T. ) ;
#714 = EDGE_LOOP ( 'NONE', ( #654, #260, #802, #764 ) ) ;
#715 = VECTOR ( 'NONE', #911, 999.9999999999998863 ) ;
#716 = AXIS2_PLACEMENT_3D ( 'NONE', #415, #861, #50 ) ;
#717 = EDGE_CURVE ( 'NONE', #336, #5, #266, .T. ) ;
#718 = FACE_OUTER_BOUND ( 'NONE', #226, .T. ) ;
#719 = DIRECTION ( 'NONE',  ( -1.000000000000000000, -0.000000000000000000, -0.000000000000000000 ) ) ;
#720 = VERTEX_POINT ( 'NONE', #738 ) ;
#721 = APPROVAL_STATUS ( 'not_yet_approved' ) ;
#722 = LINE ( 'NONE', #642, #794 ) ;
#723 = CARTESIAN_POINT ( 'NONE',  ( 415.7337911293233219, -133.9303719267109614, 1.500000000000000000 ) ) ;
#724 = ORIENTED_EDGE ( 'NONE', *, *, #165, .F. ) ;
#725 = VECTOR ( 'NONE', #396, 1000.000000000000000 ) ;
#726 = CARTESIAN_POINT ( 'NONE',  ( 415.7337911293233219, -133.9303719267109614, -14.05000000000000071 ) ) ;
#727 = ADVANCED_FACE ( 'NONE', ( #92 ), #889, .F. ) ;
#728 = CARTESIAN_POINT ( 'NONE',  ( 434.2226406871192808, -102.9620815280171087, -7.550000000000007816 ) ) ;
#729 = EDGE_LOOP ( 'NONE', ( #724, #98, #704, #225, #404, #658, #771, #252, #84, #840, #105, #646, #694, #201 ) ) ;
#730 = VERTEX_POINT ( 'NONE', #590 ) ;
#731 = CALENDAR_DATE ( 2025, 5, 11 ) ;
#732 = VECTOR ( 'NONE', #31, 1000.000000000000000 ) ;
#733 = DIRECTION ( 'NONE',  ( 0.7071067811865516806, 0.7071067811865434649, -0.000000000000000000 ) ) ;
#734 = AXIS2_PLACEMENT_3D ( 'NONE', #773, #707, #403 ) ;
#735 = CARTESIAN_POINT ( 'NONE',  ( 429.9799999999999613, 1.700000000000000178, -14.05000000000000071 ) ) ;
#736 = EDGE_LOOP ( 'NONE', ( #835, #115 ) ) ;
#737 = ORIENTED_EDGE ( 'NONE', *, *, #611, .T. ) ;
#738 = CARTESIAN_POINT ( 'NONE',  ( 423.9799999999999613, -125.1388816817957093, 0.000000000000000000 ) ) ;
#739 = DIRECTION ( 'NONE',  ( -1.000000000000000000, 0.000000000000000000, 0.000000000000000000 ) ) ;
#740 = EDGE_LOOP ( 'NONE', ( #475, #929, #915, #578 ) ) ;
#741 = LOCAL_TIME ( 20, 17, 1.000000000000000000, #792 ) ;
#742 = DIRECTION ( 'NONE',  ( -1.000000000000000000, -0.000000000000000000, -0.000000000000000000 ) ) ;
#743 = EDGE_CURVE ( 'NONE', #464, #517, #523, .T. ) ;
#744 = EDGE_LOOP ( 'NONE', ( #708, #852, #371, #127 ) ) ;
#745 = DIRECTION ( 'NONE',  ( 1.000000000000000000, 0.000000000000000000, 0.000000000000000000 ) ) ;
#746 = CARTESIAN_POINT ( 'NONE',  ( 412.6880995769276410, -134.7133217793096094, -14.05000000000000071 ) ) ;
#747 = DIRECTION ( 'NONE',  ( -0.000000000000000000, 0.000000000000000000, 1.000000000000000000 ) ) ;
#748 = CARTESIAN_POINT ( 'NONE',  ( 214.1400000000000432, 0.1000000000000000056, -14.05000000000000071 ) ) ;
#749 = DIRECTION ( 'NONE',  ( -1.000000000000000000, -0.000000000000000000, -0.000000000000000000 ) ) ;
#750 = EDGE_CURVE ( 'NONE', #561, #860, #20, .T. ) ;
#751 = CARTESIAN_POINT ( 'NONE',  ( 434.2226406871192808, -22.96208152801711933, -7.550000000000007816 ) ) ;
#752 = DIRECTION ( 'NONE',  ( 1.000000000000000000, 0.000000000000000000, -0.000000000000000000 ) ) ;
#753 = DIRECTION ( 'NONE',  ( 0.000000000000000000, 1.000000000000000000, 0.000000000000000000 ) ) ;
#754 = EDGE_LOOP ( 'NONE', ( #333, #809, #630, #507, #926, #472, #268, #834, #292, #856, #276, #426, #351, #908 ) ) ;
#755 = DIRECTION ( 'NONE',  ( -1.000000000000000000, -0.000000000000000000, 0.000000000000000000 ) ) ;
#756 = DIRECTION ( 'NONE',  ( 1.000000000000000000, -0.000000000000000000, -0.000000000000000000 ) ) ;
#757 = VECTOR ( 'NONE', #335, 1000.000000000000000 ) ;
#758 = VECTOR ( 'NONE', #733, 1000.000000000000000 ) ;
#759 = ORIENTED_EDGE ( 'NONE', *, *, #374, .F. ) ;
#760 = FACE_OUTER_BOUND ( 'NONE', #729, .T. ) ;
#761 = LINE ( 'NONE', #698, #154 ) ;
#762 = VERTEX_POINT ( 'NONE', #315 ) ;
#763 = EDGE_CURVE ( 'NONE', #875, #324, #87, .T. ) ;
#764 = ORIENTED_EDGE ( 'NONE', *, *, #782, .T. ) ;
#765 = DIRECTION ( 'NONE',  ( -0.000000000000000000, 0.000000000000000000, 1.000000000000000000 ) ) ;
#766 = DIRECTION ( 'NONE',  ( 0.000000000000000000, 1.000000000000000000, 0.000000000000000000 ) ) ;
#767 = CC_DESIGN_PERSON_AND_ORGANIZATION_ASSIGNMENT ( #711, #696, ( #82 ) ) ;
#768 = VECTOR ( 'NONE', #765, 1000.000000000000000 ) ;
#769 = EDGE_CURVE ( 'NONE', #52, #514, #372, .T. ) ;
#770 = ORIENTED_EDGE ( 'NONE', *, *, #894, .F. ) ;
#771 = ORIENTED_EDGE ( 'NONE', *, *, #894, .T. ) ;
#772 = DIRECTION ( 'NONE',  ( 0.000000000000000000, 0.000000000000000000, 1.000000000000000000 ) ) ;
#773 = CARTESIAN_POINT ( 'NONE',  ( 214.1400000000000432, -136.3133217793096037, 1.500000000000000000 ) ) ;
#774 = VECTOR ( 'NONE', #753, 1000.000000000000000 ) ;
#775 = EDGE_LOOP ( 'NONE', ( #776, #916, #443, #663, #394, #390, #413, #137, #114, #76, #275, #913, #874, #234 ) ) ;
#776 = ORIENTED_EDGE ( 'NONE', *, *, #148, .F. ) ;
#777 = DIRECTION ( 'NONE',  ( 1.000000000000000000, 0.000000000000000000, -0.000000000000000000 ) ) ;
#778 = PLANE ( 'NONE',  #681 ) ;
#779 = VERTEX_POINT ( 'NONE', #385 ) ;
#780 = ORIENTED_EDGE ( 'NONE', *, *, #865, .F. ) ;
#781 = LINE ( 'NONE', #116, #768 ) ;
#782 = EDGE_CURVE ( 'NONE', #464, #431, #12, .T. ) ;
#783 = FACE_OUTER_BOUND ( 'NONE', #787, .T. ) ;
#784 = CARTESIAN_POINT ( 'NONE',  ( 421.1885097550847377, -127.9303719267109472, 1.500000000000000000 ) ) ;
#785 = DESIGN_CONTEXT ( 'detailed design', #400, 'design' ) ;
#786 = VECTOR ( 'NONE', #832, 1000.000000000000000 ) ;
#787 = EDGE_LOOP ( 'NONE', ( #780, #770, #203, #887 ) ) ;
#788 = EDGE_CURVE ( 'NONE', #329, #702, #302, .T. ) ;
#789 = DIRECTION ( 'NONE',  ( 0.000000000000000000, 0.000000000000000000, 1.000000000000000000 ) ) ;
#790 = LINE ( 'NONE', #134, #153 ) ;
#791 = ORIENTED_EDGE ( 'NONE', *, *, #106, .F. ) ;
#792 = COORDINATED_UNIVERSAL_TIME_OFFSET ( 1, 0, .AHEAD. ) ;
#793 = VECTOR ( 'NONE', #524, 1000.000000000000000 ) ;
#794 = VECTOR ( 'NONE', #876, 1000.000000000000000 ) ;
#795 = DIRECTION ( 'NONE',  ( -0.000000000000000000, 1.000000000000000000, -0.000000000000000000 ) ) ;
#796 = DIRECTION ( 'NONE',  ( 0.7071067811865475727, -0.7071067811865475727, 0.000000000000000000 ) ) ;
#797 = ORIENTED_EDGE ( 'NONE', *, *, #763, .T. ) ;
#798 = SECURITY_CLASSIFICATION_LEVEL ( 'unclassified' ) ;
#799 = EDGE_CURVE ( 'NONE', #561, #197, #603, .T. ) ;
#800 = CARTESIAN_POINT ( 'NONE',  ( 428.3799999999999955, -126.9614213562373095, -14.05000000000000071 ) ) ;
#801 = ADVANCED_BREP_SHAPE_REPRESENTATION ( '2-front', ( #209, #820 ), #309 ) ;
#802 = ORIENTED_EDGE ( 'NONE', *, *, #743, .F. ) ;
#803 = ORIENTED_EDGE ( 'NONE', *, *, #175, .F. ) ;
#804 = APPROVAL_STATUS ( 'not_yet_approved' ) ;
#805 = AXIS2_PLACEMENT_3D ( 'NONE', #176, #755, #598 ) ;
#806 = LINE ( 'NONE', #872, #463 ) ;
#807 = CARTESIAN_POINT ( 'NONE',  ( 410.8655599024860976, -130.3133217793096037, 1.500000000000000000 ) ) ;
#808 = ORIENTED_EDGE ( 'NONE', *, *, #73, .T. ) ;
#809 = ORIENTED_EDGE ( 'NONE', *, *, #90, .T. ) ;
#810 = VECTOR ( 'NONE', #675, 1000.000000000000114 ) ;
#811 = DIRECTION ( 'NONE',  ( -1.000000000000000000, -0.000000000000000000, 0.000000000000000000 ) ) ;
#812 = AXIS2_PLACEMENT_3D ( 'NONE', #214, #62, #58 ) ;
#813 = VERTEX_POINT ( 'NONE', #673 ) ;
#814 = PRODUCT_DEFINITION ( 'Obecn√', '', #851, #785 ) ;
#815 = CARTESIAN_POINT ( 'NONE',  ( 214.1400000000000432, -136.3133217793096037, 1.500000000000000000 ) ) ;
#816 = CARTESIAN_POINT ( 'NONE',  ( 428.3799999999999955, -126.9614213562373095, -14.05000000000000071 ) ) ;
#817 = ORIENTED_EDGE ( 'NONE', *, *, #213, .T. ) ;
#818 = ADVANCED_FACE ( 'NONE', ( #310 ), #163, .T. ) ;
#819 = EDGE_CURVE ( 'NONE', #280, #534, #900, .T. ) ;
#820 = AXIS2_PLACEMENT_3D ( 'NONE', #909, #402, #706 ) ;
#821 = DIRECTION ( 'NONE',  ( -0.7071067811865441310, -0.7071067811865510144, 0.000000000000000000 ) ) ;
#822 = FACE_OUTER_BOUND ( 'NONE', #879, .T. ) ;
#823 = FACE_OUTER_BOUND ( 'NONE', #151, .T. ) ;
#824 = DIRECTION ( 'NONE',  ( -1.000000000000000000, 0.000000000000000000, 0.000000000000000000 ) ) ;
#825 = AXIS2_PLACEMENT_3D ( 'NONE', #816, #796, #938 ) ;
#826 = DIRECTION ( 'NONE',  ( -0.000000000000000000, 1.000000000000000000, -0.000000000000000000 ) ) ;
#827 = CARTESIAN_POINT ( 'NONE',  ( 429.9799999999999613, -127.6241630560342486, -14.05000000000000071 ) ) ;
#828 = CARTESIAN_POINT ( 'NONE',  ( 428.3799999999999955, -102.9620815280171087, -7.550000000000007816 ) ) ;
#829 = ADVANCED_FACE ( 'NONE', ( #529 ), #243, .F. ) ;
#830 = CARTESIAN_POINT ( 'NONE',  ( 413.3508412767246227, -136.3133217793096037, 1.500000000000000000 ) ) ;
#831 = DIRECTION ( 'NONE',  ( 0.7071067811865516806, 0.7071067811865434649, 0.000000000000000000 ) ) ;
#832 = DIRECTION ( 'NONE',  ( 1.000000000000000000, 0.000000000000000000, 0.000000000000000000 ) ) ;
#833 = CARTESIAN_POINT ( 'NONE',  ( 423.9799999999999613, -125.1388816817957093, 1.500000000000000000 ) ) ;
#834 = ORIENTED_EDGE ( 'NONE', *, *, #886, .T. ) ;
#835 = ORIENTED_EDGE ( 'NONE', *, *, #750, .T. ) ;
#836 = DIRECTION ( 'NONE',  ( 1.000000000000000000, 0.000000000000000000, -0.000000000000000000 ) ) ;
#837 = AXIS2_PLACEMENT_3D ( 'NONE', #140, #424, #63 ) ;
#838 = CARTESIAN_POINT ( 'NONE',  ( 214.1400000000000432, 0.000000000000000000, 0.000000000000000000 ) ) ;
#839 = VECTOR ( 'NONE', #632, 1000.000000000000000 ) ;
#840 = ORIENTED_EDGE ( 'NONE', *, *, #788, .F. ) ;
#841 = ORIENTED_EDGE ( 'NONE', *, *, #411, .T. ) ;
#842 = CARTESIAN_POINT ( 'NONE',  ( 0.000000000000000000, 0.000000000000000000, 1.500000000000000000 ) ) ;
#843 = CC_DESIGN_PERSON_AND_ORGANIZATION_ASSIGNMENT ( #570, #574, ( #851 ) ) ;
#844 = DIRECTION ( 'NONE',  ( -1.000000000000000000, -0.000000000000000000, -0.000000000000000000 ) ) ;
#845 = CARTESIAN_POINT ( 'NONE',  ( 413.2485097550847399, -127.9303719267109472, 1.500000000000000000 ) ) ;
#846 = VERTEX_POINT ( 'NONE', #828 ) ;
#847 = ORIENTED_EDGE ( 'NONE', *, *, #471, .F. ) ;
#848 = CARTESIAN_POINT ( 'NONE',  ( 214.1400000000000432, 0.1000000000000000056, 0.000000000000000000 ) ) ;
#849 = CARTESIAN_POINT ( 'NONE',  ( 423.9799999999999613, -125.1388816817957093, 0.000000000000000000 ) ) ;
#850 = EDGE_CURVE ( 'NONE', #420, #69, #169, .T. ) ;
#851 = PRODUCT_DEFINITION_FORMATION_WITH_SPECIFIED_SOURCE ( 'Symetrick√', '', #82, .NOT_KNOWN. ) ;
#852 = ORIENTED_EDGE ( 'NONE', *, *, #606, .F. ) ;
#853 = FACE_OUTER_BOUND ( 'NONE', #493, .T. ) ;
#854 = EDGE_CURVE ( 'NONE', #485, #189, #99, .T. ) ;
#855 = CIRCLE ( 'NONE', #716, 1.499999999999999556 ) ;
#856 = ORIENTED_EDGE ( 'NONE', *, *, #330, .F. ) ;
#857 = COORDINATED_UNIVERSAL_TIME_OFFSET ( 1, 0, .AHEAD. ) ;
#858 = CARTESIAN_POINT ( 'NONE',  ( 412.6880995769276410, -134.7133217793096094, -14.05000000000000071 ) ) ;
#859 = VERTEX_POINT ( 'NONE', #172 ) ;
#860 = VERTEX_POINT ( 'NONE', #595 ) ;
#861 = DIRECTION ( 'NONE',  ( 1.000000000000000000, 0.000000000000000000, -0.000000000000000000 ) ) ;
#862 = LOCAL_TIME ( 20, 17, 1.000000000000000000, #433 ) ;
#863 = ORIENTED_EDGE ( 'NONE', *, *, #854, .F. ) ;
#864 = CARTESIAN_POINT ( 'NONE',  ( 428.3799999999999955, -102.9620815280171087, -10.55000000000000782 ) ) ;
#865 = EDGE_CURVE ( 'NONE', #412, #265, #456, .T. ) ;
#866 = ORIENTED_EDGE ( 'NONE', *, *, #287, .F. ) ;
#867 = PERSON_AND_ORGANIZATION ( #18446744073709551615, #18446744073709551615 ) ;
#868 = CIRCLE ( 'NONE', #881, 1.499999999999999556 ) ;
#869 = DIRECTION ( 'NONE',  ( 0.7071067811865460184, 0.7071067811865490160, 0.000000000000000000 ) ) ;
#870 = LINE ( 'NONE', #244, #11 ) ;
#871 = ORIENTED_EDGE ( 'NONE', *, *, #533, .T. ) ;
#872 = CARTESIAN_POINT ( 'NONE',  ( 423.0110494295263379, -132.3303719267109670, -14.05000000000000071 ) ) ;
#873 = CARTESIAN_POINT ( 'NONE',  ( 428.3799999999999955, -22.96208152801711933, -7.550000000000007816 ) ) ;
#874 = ORIENTED_EDGE ( 'NONE', *, *, #444, .F. ) ;
#875 = VERTEX_POINT ( 'NONE', #515 ) ;
#876 = DIRECTION ( 'NONE',  ( -1.000000000000000000, -0.000000000000000000, -0.000000000000000000 ) ) ;
#877 = DIRECTION ( 'NONE',  ( 1.000000000000000000, 0.000000000000000000, 0.000000000000000000 ) ) ;
#878 = ORIENTED_EDGE ( 'NONE', *, *, #788, .T. ) ;
#879 = EDGE_LOOP ( 'NONE', ( #57, #15, #847, #543 ) ) ;
#880 = EDGE_CURVE ( 'NONE', #762, #52, #445, .T. ) ;
#881 = AXIS2_PLACEMENT_3D ( 'NONE', #521, #311, #254 ) ;
#882 = FACE_OUTER_BOUND ( 'NONE', #395, .T. ) ;
#883 = AXIS2_PLACEMENT_3D ( 'NONE', #440, #1, #499 ) ;
#884 = PRODUCT_RELATED_PRODUCT_CATEGORY ( 'detail', '', ( #82 ) ) ;
#885 = DIRECTION ( 'NONE',  ( 0.7071067811865516806, 0.7071067811865434649, 0.000000000000000000 ) ) ;
#886 = EDGE_CURVE ( 'NONE', #813, #620, #158, .T. ) ;
#887 = ORIENTED_EDGE ( 'NONE', *, *, #425, .T. ) ;
#888 = EDGE_CURVE ( 'NONE', #924, #689, #453, .T. ) ;
#889 = CYLINDRICAL_SURFACE ( 'NONE', #130, 1.499999999999999556 ) ;
#890 = DIRECTION ( 'NONE',  ( 0.000000000000000000, -1.000000000000000000, 0.000000000000000000 ) ) ;
#891 = DIRECTION ( 'NONE',  ( 0.000000000000000000, 0.000000000000000000, -1.000000000000000000 ) ) ;
#892 = DIRECTION ( 'NONE',  ( 0.000000000000000000, 0.000000000000000000, -1.000000000000000000 ) ) ;
#893 = CARTESIAN_POINT ( 'NONE',  ( 428.3799999999999955, 0.1000000000000000056, -14.05000000000000071 ) ) ;
#894 = EDGE_CURVE ( 'NONE', #541, #412, #615, .T. ) ;
#895 = CARTESIAN_POINT ( 'NONE',  ( 421.1885097550847377, -127.9303719267109472, 1.500000000000000000 ) ) ;
#896 = AXIS2_PLACEMENT_3D ( 'NONE', #519, #536, #164 ) ;
#897 = AXIS2_PLACEMENT_3D ( 'NONE', #591, #307, #303 ) ;
#898 = LINE ( 'NONE', #382, #512 ) ;
#899 = CARTESIAN_POINT ( 'NONE',  ( 429.9799999999999613, 1.700000000000000178, -14.05000000000000071 ) ) ;
#900 = LINE ( 'NONE', #29, #64 ) ;
#901 = FACE_OUTER_BOUND ( 'NONE', #51, .T. ) ;
#902 = LINE ( 'NONE', #899, #732 ) ;
#903 = ORIENTED_EDGE ( 'NONE', *, *, #162, .F. ) ;
#904 = CC_DESIGN_APPROVAL ( #907, ( #851 ) ) ;
#905 = FACE_OUTER_BOUND ( 'NONE', #744, .T. ) ;
#906 = CARTESIAN_POINT ( 'NONE',  ( 410.8655599024860976, -130.3133217793096037, 1.500000000000000000 ) ) ;
#907 = APPROVAL ( #721, 'Sjednocen√' ) ;
#908 = ORIENTED_EDGE ( 'NONE', *, *, #246, .F. ) ;
#909 = CARTESIAN_POINT ( 'NONE',  ( 0.000000000000000000, 0.000000000000000000, 0.000000000000000000 ) ) ;
#910 = CARTESIAN_POINT ( 'NONE',  ( 214.1400000000000432, -130.3133217793096037, 0.000000000000000000 ) ) ;
#911 = DIRECTION ( 'NONE',  ( 0.7071067811865441310, 0.7071067811865510144, 0.000000000000000000 ) ) ;
#912 = ADVANCED_FACE ( 'NONE', ( #760 ), #108, .T. ) ;
#913 = ORIENTED_EDGE ( 'NONE', *, *, #117, .F. ) ;
#914 = CARTESIAN_POINT ( 'NONE',  ( 428.3799999999999955, -126.9614213562373095, -14.05000000000000071 ) ) ;
#915 = ORIENTED_EDGE ( 'NONE', *, *, #190, .T. ) ;
#916 = ORIENTED_EDGE ( 'NONE', *, *, #769, .T. ) ;
#917 = LINE ( 'NONE', #849, #377 ) ;
#918 = EDGE_CURVE ( 'NONE', #211, #875, #405, .T. ) ;
#919 = VECTOR ( 'NONE', #824, 1000.000000000000000 ) ;
#920 = ORIENTED_EDGE ( 'NONE', *, *, #522, .F. ) ;
#921 = APPLICATION_PROTOCOL_DEFINITION ( 'international standard', 'config_control_design', 1994, #496 ) ;
#922 = DIRECTION ( 'NONE',  ( 0.7071067811865474617, 0.7071067811865474617, -0.000000000000000000 ) ) ;
#923 = VECTOR ( 'NONE', #616, 1000.000000000000000 ) ;
#924 = VERTEX_POINT ( 'NONE', #848 ) ;
#925 = PERSON_AND_ORGANIZATION ( #18446744073709551615, #18446744073709551615 ) ;
#926 = ORIENTED_EDGE ( 'NONE', *, *, #577, .T. ) ;
#927 = CARTESIAN_POINT ( 'NONE',  ( 421.1885097550847377, -127.9303719267109472, 1.500000000000000000 ) ) ;
#928 = FACE_OUTER_BOUND ( 'NONE', #107, .T. ) ;
#929 = ORIENTED_EDGE ( 'NONE', *, *, #611, .F. ) ;
#930 = CARTESIAN_POINT ( 'NONE',  ( 429.9799999999999613, -102.9620815280171087, -9.050000000000007816 ) ) ;
#931 = ADVANCED_FACE ( 'NONE', ( #690 ), #476, .T. ) ;
#932 = VECTOR ( 'NONE', #518, 1000.000000000000000 ) ;
#933 = ORIENTED_EDGE ( 'NONE', *, *, #508, .F. ) ;
#934 = PERSON_AND_ORGANIZATION_ROLE ( 'creator' ) ;
#935 = EDGE_CURVE ( 'NONE', #514, #131, #781, .T. ) ;
#936 = EDGE_CURVE ( 'NONE', #324, #534, #33, .T. ) ;
#937 = DIRECTION ( 'NONE',  ( 0.000000000000000000, 0.000000000000000000, 1.000000000000000000 ) ) ;
#938 = DIRECTION ( 'NONE',  ( 0.7071067811865474617, 0.7071067811865474617, 0.000000000000000000 ) ) ;
#939 = ORIENTED_EDGE ( 'NONE', *, *, #713, .T. ) ;
#940 = DATE_AND_TIME ( #427, #208 ) ;
#941 = VECTOR ( 'NONE', #249, 1000.000000000000000 ) ;
#942 = LINE ( 'NONE', #726, #758 ) ;
#943 = EDGE_LOOP ( 'NONE', ( #360, #933, #710, #181 ) ) ;
#944 = ORIENTED_EDGE ( 'NONE', *, *, #936, .T. ) ;
ENDSEC;
END-ISO-10303-21;
