%TF.GenerationSoftware,KiCad,Pcbnew,9.0.5*%
%TF.CreationDate,2025-11-17T19:02:43+01:00*%
%TF.ProjectId,PCB,5043422e-6b69-4636-9164-5f7063625858,rev?*%
%TF.SameCoordinates,Original*%
%TF.FileFunction,Paste,Bot*%
%TF.FilePolarity,Positive*%
%FSLAX46Y46*%
G04 Gerber Fmt 4.6, Leading zero omitted, Abs format (unit mm)*
G04 Created by KiCad (PCBNEW 9.0.5) date 2025-11-17 19:02:43*
%MOMM*%
%LPD*%
G01*
G04 APERTURE LIST*
G04 Aperture macros list*
%AMRoundRect*
0 Rectangle with rounded corners*
0 $1 Rounding radius*
0 $2 $3 $4 $5 $6 $7 $8 $9 X,Y pos of 4 corners*
0 Add a 4 corners polygon primitive as box body*
4,1,4,$2,$3,$4,$5,$6,$7,$8,$9,$2,$3,0*
0 Add four circle primitives for the rounded corners*
1,1,$1+$1,$2,$3*
1,1,$1+$1,$4,$5*
1,1,$1+$1,$6,$7*
1,1,$1+$1,$8,$9*
0 Add four rect primitives between the rounded corners*
20,1,$1+$1,$2,$3,$4,$5,0*
20,1,$1+$1,$4,$5,$6,$7,0*
20,1,$1+$1,$6,$7,$8,$9,0*
20,1,$1+$1,$8,$9,$2,$3,0*%
G04 Aperture macros list end*
%ADD10RoundRect,0.250000X1.025000X1.000000X-1.025000X1.000000X-1.025000X-1.000000X1.025000X-1.000000X0*%
%ADD11RoundRect,0.205000X-0.495000X-0.205000X0.495000X-0.205000X0.495000X0.205000X-0.495000X0.205000X0*%
%ADD12RoundRect,0.205000X0.495000X0.205000X-0.495000X0.205000X-0.495000X-0.205000X0.495000X-0.205000X0*%
%ADD13RoundRect,0.250000X0.337500X0.475000X-0.337500X0.475000X-0.337500X-0.475000X0.337500X-0.475000X0*%
%ADD14RoundRect,0.225000X0.225000X0.375000X-0.225000X0.375000X-0.225000X-0.375000X0.225000X-0.375000X0*%
%ADD15RoundRect,0.250000X-0.337500X-0.475000X0.337500X-0.475000X0.337500X0.475000X-0.337500X0.475000X0*%
%ADD16R,3.800000X2.200000*%
%ADD17R,2.200000X3.800000*%
G04 APERTURE END LIST*
D10*
%TO.C,S62*%
X120532600Y-157164000D03*
X133459600Y-154624000D03*
%TD*%
%TO.C,S67*%
X238229200Y-154624000D03*
X225302200Y-157164000D03*
%TD*%
%TO.C,S100*%
X93775800Y-251455400D03*
X80848800Y-253995400D03*
%TD*%
%TO.C,S89*%
X441415200Y-178435000D03*
X428488200Y-180975000D03*
%TD*%
%TO.C,S49*%
X152508400Y-178435000D03*
X139581400Y-180975000D03*
%TD*%
%TO.C,S75*%
X400144000Y-154624000D03*
X387217000Y-157164000D03*
%TD*%
%TO.C,S61*%
X390618400Y-178435000D03*
X377691400Y-180975000D03*
%TD*%
%TO.C,S32*%
X233465800Y-235581400D03*
X220538800Y-238121400D03*
%TD*%
%TO.C,S8*%
X276332800Y-197483800D03*
X263405800Y-200023800D03*
%TD*%
%TO.C,S81*%
X460464000Y-235581400D03*
X447537000Y-238121400D03*
%TD*%
%TO.C,S82*%
X422366400Y-216532600D03*
X409439400Y-219072600D03*
%TD*%
%TO.C,S45*%
X342996400Y-254630200D03*
X330069400Y-257170200D03*
%TD*%
%TO.C,S37*%
X328709800Y-235581400D03*
X315782800Y-238121400D03*
%TD*%
%TO.C,S38*%
X347758600Y-235581400D03*
X334831600Y-238121400D03*
%TD*%
%TO.C,S93*%
X479512800Y-245105800D03*
X466585800Y-247645800D03*
%TD*%
%TO.C,S85*%
X422366400Y-197483800D03*
X409439400Y-200023800D03*
%TD*%
%TO.C,S39*%
X373950700Y-235581400D03*
X361023700Y-238121400D03*
%TD*%
%TO.C,S92*%
X460464000Y-254630200D03*
X447537000Y-257170200D03*
%TD*%
%TO.C,S16*%
X166795000Y-216532600D03*
X153868000Y-219072600D03*
%TD*%
%TO.C,S36*%
X309661000Y-235581400D03*
X296734000Y-238121400D03*
%TD*%
%TO.C,S23*%
X300136600Y-216532600D03*
X287209600Y-219072600D03*
%TD*%
%TO.C,S60*%
X362045200Y-178435000D03*
X349118200Y-180975000D03*
%TD*%
%TO.C,S101*%
X84251400Y-232406600D03*
X71324400Y-234946600D03*
%TD*%
%TO.C,S53*%
X228703600Y-178435000D03*
X215776600Y-180975000D03*
%TD*%
%TO.C,S68*%
X257278000Y-154624000D03*
X244351000Y-157164000D03*
%TD*%
%TO.C,S90*%
X460464000Y-178435000D03*
X447537000Y-180975000D03*
%TD*%
%TO.C,S44*%
X323947600Y-254630200D03*
X311020600Y-257170200D03*
%TD*%
%TO.C,S51*%
X190606000Y-178435000D03*
X177679000Y-180975000D03*
%TD*%
%TO.C,S33*%
X252514600Y-235581400D03*
X239587600Y-238121400D03*
%TD*%
%TO.C,S14*%
X395380600Y-197483800D03*
X382453600Y-200023800D03*
%TD*%
%TO.C,S2*%
X162032800Y-197483800D03*
X149105800Y-200023800D03*
%TD*%
%TO.C,S22*%
X281087800Y-216532600D03*
X268160800Y-219072600D03*
%TD*%
%TO.C,S9*%
X295382800Y-197483800D03*
X282455800Y-200023800D03*
%TD*%
%TO.C,S77*%
X401730200Y-237168800D03*
X388803200Y-239708800D03*
%TD*%
%TO.C,S87*%
X460464000Y-197483800D03*
X447537000Y-200023800D03*
%TD*%
%TO.C,S35*%
X290612200Y-235581400D03*
X277685200Y-238121400D03*
%TD*%
%TO.C,S20*%
X242990200Y-216532600D03*
X230063200Y-219072600D03*
%TD*%
%TO.C,S5*%
X219182800Y-197483800D03*
X206255800Y-200023800D03*
%TD*%
%TO.C,S55*%
X266801200Y-178435000D03*
X253874200Y-180975000D03*
%TD*%
%TO.C,S40*%
X135840700Y-254630200D03*
X122913700Y-257170200D03*
%TD*%
%TO.C,S88*%
X422366400Y-178435000D03*
X409439400Y-180975000D03*
%TD*%
%TO.C,S99*%
X479512800Y-154624000D03*
X466585800Y-157164000D03*
%TD*%
%TO.C,S7*%
X257282800Y-197483800D03*
X244355800Y-200023800D03*
%TD*%
%TO.C,S74*%
X376333000Y-154624000D03*
X363406000Y-157164000D03*
%TD*%
%TO.C,S72*%
X338235400Y-154624000D03*
X325308400Y-157164000D03*
%TD*%
%TO.C,S102*%
X103300200Y-232406600D03*
X90373200Y-234946600D03*
%TD*%
%TO.C,S52*%
X209654800Y-178435000D03*
X196727800Y-180975000D03*
%TD*%
%TO.C,S3*%
X181082800Y-197483800D03*
X168155800Y-200023800D03*
%TD*%
%TO.C,S19*%
X223941400Y-216532600D03*
X211014400Y-219072600D03*
%TD*%
%TO.C,S11*%
X333482800Y-197483800D03*
X320555800Y-200023800D03*
%TD*%
%TO.C,S103*%
X93775800Y-213357800D03*
X80848800Y-215897800D03*
%TD*%
%TO.C,S59*%
X342996400Y-178435000D03*
X330069400Y-180975000D03*
%TD*%
%TO.C,S66*%
X214418200Y-154624000D03*
X201491200Y-157164000D03*
%TD*%
%TO.C,S76*%
X401730200Y-256217600D03*
X388803200Y-258757600D03*
%TD*%
%TO.C,S98*%
X460464000Y-154624000D03*
X447537000Y-157164000D03*
%TD*%
%TO.C,S78*%
X420779000Y-256217600D03*
X407852000Y-258757600D03*
%TD*%
%TO.C,S83*%
X441415200Y-216532600D03*
X428488200Y-219072600D03*
%TD*%
%TO.C,S73*%
X357284200Y-154624000D03*
X344357200Y-157164000D03*
%TD*%
%TO.C,S54*%
X247752400Y-178435000D03*
X234825400Y-180975000D03*
%TD*%
%TO.C,S56*%
X285850000Y-178435000D03*
X272923000Y-180975000D03*
%TD*%
%TO.C,S57*%
X304898800Y-178435000D03*
X291971800Y-180975000D03*
%TD*%
%TO.C,S97*%
X441415200Y-154624000D03*
X428488200Y-157164000D03*
%TD*%
%TO.C,S47*%
X382681400Y-256217600D03*
X369754400Y-258757600D03*
%TD*%
%TO.C,S80*%
X441415200Y-235581400D03*
X428488200Y-238121400D03*
%TD*%
%TO.C,S1*%
X138221800Y-197483800D03*
X125294800Y-200023800D03*
%TD*%
%TO.C,S10*%
X314432800Y-197483800D03*
X301505800Y-200023800D03*
%TD*%
%TO.C,S94*%
X479512800Y-207008200D03*
X466585800Y-209548200D03*
%TD*%
%TO.C,S28*%
X145365100Y-235581400D03*
X132438100Y-238121400D03*
%TD*%
%TO.C,S70*%
X295375600Y-154624000D03*
X282448600Y-157164000D03*
%TD*%
%TO.C,S13*%
X371582800Y-197483800D03*
X358655800Y-200023800D03*
%TD*%
%TO.C,S95*%
X479512800Y-178435000D03*
X466585800Y-180975000D03*
%TD*%
%TO.C,S63*%
X157270600Y-154624000D03*
X144343600Y-157164000D03*
%TD*%
%TO.C,S21*%
X262039000Y-216532600D03*
X249112000Y-219072600D03*
%TD*%
%TO.C,S65*%
X195368200Y-154624000D03*
X182441200Y-157164000D03*
%TD*%
%TO.C,S25*%
X338234200Y-216532600D03*
X325307200Y-219072600D03*
%TD*%
%TO.C,S48*%
X133459600Y-178435000D03*
X120532600Y-180975000D03*
%TD*%
%TO.C,S46*%
X362045200Y-254630200D03*
X349118200Y-257170200D03*
%TD*%
%TO.C,S71*%
X319186600Y-154624000D03*
X306259600Y-157164000D03*
%TD*%
%TO.C,S4*%
X200132800Y-197483800D03*
X187205800Y-200023800D03*
%TD*%
%TO.C,S26*%
X357283000Y-216532600D03*
X344356000Y-219072600D03*
%TD*%
%TO.C,S84*%
X460464000Y-216532600D03*
X447537000Y-219072600D03*
%TD*%
%TO.C,S41*%
X159651700Y-254630200D03*
X146724700Y-257170200D03*
%TD*%
%TO.C,S17*%
X185843800Y-216532600D03*
X172916800Y-219072600D03*
%TD*%
%TO.C,S42*%
X183462700Y-254630200D03*
X170535700Y-257170200D03*
%TD*%
%TO.C,S27*%
X388237300Y-216532600D03*
X375310300Y-219072600D03*
%TD*%
%TO.C,S15*%
X140602900Y-216532600D03*
X127675900Y-219072600D03*
%TD*%
%TO.C,S43*%
X254895700Y-254630200D03*
X241968700Y-257170200D03*
%TD*%
%TO.C,S29*%
X176319400Y-235581400D03*
X163392400Y-238121400D03*
%TD*%
%TO.C,S86*%
X441415200Y-197483800D03*
X428488200Y-200023800D03*
%TD*%
%TO.C,S24*%
X319185400Y-216532600D03*
X306258400Y-219072600D03*
%TD*%
%TO.C,S69*%
X276326800Y-154624000D03*
X263399800Y-157164000D03*
%TD*%
%TO.C,S91*%
X441415200Y-254630200D03*
X428488200Y-257170200D03*
%TD*%
%TO.C,S58*%
X323947600Y-178435000D03*
X311020600Y-180975000D03*
%TD*%
%TO.C,S34*%
X271563400Y-235581400D03*
X258636400Y-238121400D03*
%TD*%
%TO.C,S64*%
X176319400Y-154624000D03*
X163392400Y-157164000D03*
%TD*%
%TO.C,S79*%
X422366400Y-235581400D03*
X409439400Y-238121400D03*
%TD*%
%TO.C,S96*%
X422366400Y-154624000D03*
X409439400Y-157164000D03*
%TD*%
%TO.C,S6*%
X238232800Y-197483800D03*
X225305800Y-200023800D03*
%TD*%
%TO.C,S18*%
X204892600Y-216532600D03*
X191965600Y-219072600D03*
%TD*%
%TO.C,S50*%
X171557200Y-178435000D03*
X158630200Y-180975000D03*
%TD*%
%TO.C,S12*%
X352532800Y-197483800D03*
X339605800Y-200023800D03*
%TD*%
%TO.C,S31*%
X214417000Y-235581400D03*
X201490000Y-238121400D03*
%TD*%
%TO.C,S30*%
X195368200Y-235581400D03*
X182441200Y-238121400D03*
%TD*%
D11*
%TO.C,D183*%
X224319800Y-171882800D03*
X224319800Y-170382800D03*
X218919800Y-170382800D03*
X218919800Y-171882800D03*
%TD*%
D12*
%TO.C,D202*%
X347499200Y-146571800D03*
X347499200Y-148071800D03*
X352899200Y-148071800D03*
X352899200Y-146571800D03*
%TD*%
D13*
%TO.C,C7*%
X148049500Y-248121700D03*
X145974500Y-248121700D03*
%TD*%
D14*
%TO.C,D13*%
X362228700Y-203674500D03*
X358928700Y-203674500D03*
%TD*%
D12*
%TO.C,D142*%
X166535600Y-227529200D03*
X166535600Y-229029200D03*
X171935600Y-229029200D03*
X171935600Y-227529200D03*
%TD*%
D15*
%TO.C,C28*%
X268998000Y-227485500D03*
X271073000Y-227485500D03*
%TD*%
D12*
%TO.C,D106*%
X266541800Y-146571800D03*
X266541800Y-148071800D03*
X271941800Y-148071800D03*
X271941800Y-146571800D03*
%TD*%
D11*
%TO.C,D184*%
X243368600Y-171882800D03*
X243368600Y-170382800D03*
X237968600Y-170382800D03*
X237968600Y-171882800D03*
%TD*%
D14*
%TO.C,D41*%
X150310800Y-260820900D03*
X147010800Y-260820900D03*
%TD*%
D12*
%TO.C,D131*%
X391946400Y-229116600D03*
X391946400Y-230616600D03*
X397346400Y-230616600D03*
X397346400Y-229116600D03*
%TD*%
%TO.C,D196*%
X469729000Y-146571800D03*
X469729000Y-148071800D03*
X475129000Y-148071800D03*
X475129000Y-146571800D03*
%TD*%
D13*
%TO.C,C85*%
X467910600Y-171926500D03*
X465835600Y-171926500D03*
%TD*%
D14*
%TO.C,D81*%
X451060500Y-241772100D03*
X447760500Y-241772100D03*
%TD*%
D12*
%TO.C,D136*%
X280828400Y-227529200D03*
X280828400Y-229029200D03*
X286228400Y-229029200D03*
X286228400Y-227529200D03*
%TD*%
D15*
%TO.C,C27*%
X288046800Y-227485500D03*
X290121800Y-227485500D03*
%TD*%
D14*
%TO.C,D38*%
X338355100Y-241772100D03*
X335055100Y-241772100D03*
%TD*%
%TO.C,D40*%
X126374600Y-260820900D03*
X123074600Y-260820900D03*
%TD*%
D11*
%TO.C,D114*%
X89392000Y-244903200D03*
X89392000Y-243403200D03*
X83992000Y-243403200D03*
X83992000Y-244903200D03*
%TD*%
D13*
%TO.C,C16*%
X429813000Y-248121700D03*
X427738000Y-248121700D03*
%TD*%
D12*
%TO.C,D138*%
X242730800Y-227529200D03*
X242730800Y-229029200D03*
X248130800Y-229029200D03*
X248130800Y-227529200D03*
%TD*%
%TO.C,D135*%
X299877200Y-227529200D03*
X299877200Y-229029200D03*
X305277200Y-229029200D03*
X305277200Y-227529200D03*
%TD*%
D14*
%TO.C,D92*%
X451123100Y-260820900D03*
X447823100Y-260820900D03*
%TD*%
D13*
%TO.C,C35*%
X155192800Y-210024100D03*
X153117800Y-210024100D03*
%TD*%
D12*
%TO.C,D174*%
X190346600Y-189431600D03*
X190346600Y-190931600D03*
X195746600Y-190931600D03*
X195746600Y-189431600D03*
%TD*%
D15*
%TO.C,C59*%
X292809000Y-189387900D03*
X294884000Y-189387900D03*
%TD*%
D12*
%TO.C,D203*%
X328450400Y-146571800D03*
X328450400Y-148071800D03*
X333850400Y-148071800D03*
X333850400Y-146571800D03*
%TD*%
D14*
%TO.C,D97*%
X432011700Y-160814700D03*
X428711700Y-160814700D03*
%TD*%
D12*
%TO.C,D171*%
X247493000Y-189431600D03*
X247493000Y-190931600D03*
X252893000Y-190931600D03*
X252893000Y-189431600D03*
%TD*%
D14*
%TO.C,D68*%
X247937100Y-160814700D03*
X244637100Y-160814700D03*
%TD*%
D13*
%TO.C,C47*%
X410764200Y-210024100D03*
X408689200Y-210024100D03*
%TD*%
%TO.C,C73*%
X236150200Y-171926500D03*
X234075200Y-171926500D03*
%TD*%
D15*
%TO.C,C88*%
X419801000Y-146528100D03*
X421876000Y-146528100D03*
%TD*%
D13*
%TO.C,C74*%
X255199000Y-171926500D03*
X253124000Y-171926500D03*
%TD*%
%TO.C,C80*%
X379016200Y-171926500D03*
X376941200Y-171926500D03*
%TD*%
%TO.C,C8*%
X172104300Y-248121700D03*
X170029300Y-248121700D03*
%TD*%
D14*
%TO.C,D9*%
X285970900Y-203674500D03*
X282670900Y-203674500D03*
%TD*%
%TO.C,D2*%
X152566700Y-203674500D03*
X149266700Y-203674500D03*
%TD*%
D15*
%TO.C,C101*%
X154705200Y-146528100D03*
X156780200Y-146528100D03*
%TD*%
D12*
%TO.C,D169*%
X285590600Y-189431600D03*
X285590600Y-190931600D03*
X290990600Y-190931600D03*
X290990600Y-189431600D03*
%TD*%
D14*
%TO.C,D93*%
X470046700Y-251296500D03*
X466746700Y-251296500D03*
%TD*%
D12*
%TO.C,D199*%
X412582600Y-146571800D03*
X412582600Y-148071800D03*
X417982600Y-148071800D03*
X417982600Y-146571800D03*
%TD*%
D15*
%TO.C,C63*%
X197565000Y-189387900D03*
X199640000Y-189387900D03*
%TD*%
D13*
%TO.C,C67*%
X121857400Y-171926500D03*
X119782400Y-171926500D03*
%TD*%
%TO.C,C34*%
X129000700Y-210024100D03*
X126925700Y-210024100D03*
%TD*%
D14*
%TO.C,D65*%
X185964700Y-160814700D03*
X182664700Y-160814700D03*
%TD*%
D15*
%TO.C,C22*%
X399164800Y-229072900D03*
X401239800Y-229072900D03*
%TD*%
D13*
%TO.C,C39*%
X231388000Y-210024100D03*
X229313000Y-210024100D03*
%TD*%
D12*
%TO.C,D204*%
X166535600Y-146571800D03*
X166535600Y-148071800D03*
X171935600Y-148071800D03*
X171935600Y-146571800D03*
%TD*%
D11*
%TO.C,D148*%
X219557600Y-209980400D03*
X219557600Y-208480400D03*
X214157600Y-208480400D03*
X214157600Y-209980400D03*
%TD*%
%TO.C,D155*%
X352899200Y-209980400D03*
X352899200Y-208480400D03*
X347499200Y-208480400D03*
X347499200Y-209980400D03*
%TD*%
D14*
%TO.C,D87*%
X450997900Y-203674500D03*
X447697900Y-203674500D03*
%TD*%
D13*
%TO.C,C72*%
X217101400Y-171926500D03*
X215026400Y-171926500D03*
%TD*%
D15*
%TO.C,C64*%
X178516200Y-189387900D03*
X180591200Y-189387900D03*
%TD*%
%TO.C,C24*%
X345193200Y-227485500D03*
X347268200Y-227485500D03*
%TD*%
D12*
%TO.C,D137*%
X261779600Y-227529200D03*
X261779600Y-229029200D03*
X267179600Y-229029200D03*
X267179600Y-227529200D03*
%TD*%
D14*
%TO.C,D36*%
X303433500Y-241772100D03*
X300133500Y-241772100D03*
%TD*%
D12*
%TO.C,D176*%
X152247800Y-189431600D03*
X152247800Y-190931600D03*
X157647800Y-190931600D03*
X157647800Y-189431600D03*
%TD*%
D11*
%TO.C,D195*%
X475129000Y-171882800D03*
X475129000Y-170382800D03*
X469729000Y-170382800D03*
X469729000Y-171882800D03*
%TD*%
D14*
%TO.C,D71*%
X309845700Y-160814700D03*
X306545700Y-160814700D03*
%TD*%
%TO.C,D100*%
X84372300Y-257646100D03*
X81072300Y-257646100D03*
%TD*%
D12*
%TO.C,D140*%
X204633200Y-227529200D03*
X204633200Y-229029200D03*
X210033200Y-229029200D03*
X210033200Y-227529200D03*
%TD*%
D13*
%TO.C,C69*%
X159955000Y-171926500D03*
X157880000Y-171926500D03*
%TD*%
%TO.C,C49*%
X448861800Y-210024100D03*
X446786800Y-210024100D03*
%TD*%
D12*
%TO.C,D132*%
X364166900Y-227529200D03*
X364166900Y-229029200D03*
X369566900Y-229029200D03*
X369566900Y-227529200D03*
%TD*%
D11*
%TO.C,D151*%
X276704000Y-209980400D03*
X276704000Y-208480400D03*
X271304000Y-208480400D03*
X271304000Y-209980400D03*
%TD*%
D12*
%TO.C,D163*%
X412582600Y-189431600D03*
X412582600Y-190931600D03*
X417982600Y-190931600D03*
X417982600Y-189431600D03*
%TD*%
%TO.C,D164*%
X385596800Y-189431600D03*
X385596800Y-190931600D03*
X390996800Y-190931600D03*
X390996800Y-189431600D03*
%TD*%
D14*
%TO.C,D63*%
X147804500Y-160814700D03*
X144504500Y-160814700D03*
%TD*%
%TO.C,D56*%
X276383900Y-184625700D03*
X273083900Y-184625700D03*
%TD*%
%TO.C,D54*%
X238411500Y-184625700D03*
X235111500Y-184625700D03*
%TD*%
D12*
%TO.C,D112*%
X93515200Y-224354400D03*
X93515200Y-225854400D03*
X98915200Y-225854400D03*
X98915200Y-224354400D03*
%TD*%
D14*
%TO.C,D18*%
X195551700Y-222723300D03*
X192251700Y-222723300D03*
%TD*%
D15*
%TO.C,C103*%
X438849800Y-146528100D03*
X440924800Y-146528100D03*
%TD*%
D12*
%TO.C,D130*%
X412582600Y-227529200D03*
X412582600Y-229029200D03*
X417982600Y-229029200D03*
X417982600Y-227529200D03*
%TD*%
D11*
%TO.C,D179*%
X148124600Y-171882800D03*
X148124600Y-170382800D03*
X142724600Y-170382800D03*
X142724600Y-171882800D03*
%TD*%
D12*
%TO.C,D134*%
X318926000Y-227529200D03*
X318926000Y-229029200D03*
X324326000Y-229029200D03*
X324326000Y-227529200D03*
%TD*%
D14*
%TO.C,D5*%
X209713100Y-203674500D03*
X206413100Y-203674500D03*
%TD*%
D11*
%TO.C,D126*%
X456080200Y-248078000D03*
X456080200Y-246578000D03*
X450680200Y-246578000D03*
X450680200Y-248078000D03*
%TD*%
%TO.C,D178*%
X129075800Y-171882800D03*
X129075800Y-170382800D03*
X123675800Y-170382800D03*
X123675800Y-171882800D03*
%TD*%
D15*
%TO.C,C56*%
X330906600Y-189387900D03*
X332981600Y-189387900D03*
%TD*%
D14*
%TO.C,D90*%
X451060500Y-184625700D03*
X447760500Y-184625700D03*
%TD*%
D15*
%TO.C,C87*%
X457898600Y-146528100D03*
X459973600Y-146528100D03*
%TD*%
%TO.C,C3*%
X100734800Y-224310700D03*
X102809800Y-224310700D03*
%TD*%
D14*
%TO.C,D7*%
X247935900Y-203674500D03*
X244635900Y-203674500D03*
%TD*%
D11*
%TO.C,D188*%
X319562600Y-171882800D03*
X319562600Y-170382800D03*
X314162600Y-170382800D03*
X314162600Y-171882800D03*
%TD*%
D14*
%TO.C,D14*%
X385977100Y-203674500D03*
X382677100Y-203674500D03*
%TD*%
D12*
%TO.C,D161*%
X450680200Y-189431600D03*
X450680200Y-190931600D03*
X456080200Y-190931600D03*
X456080200Y-189431600D03*
%TD*%
D14*
%TO.C,D27*%
X378833800Y-222723300D03*
X375533800Y-222723300D03*
%TD*%
D11*
%TO.C,D116*%
X155267900Y-248078000D03*
X155267900Y-246578000D03*
X149867900Y-246578000D03*
X149867900Y-248078000D03*
%TD*%
D13*
%TO.C,C37*%
X193290400Y-210024100D03*
X191215400Y-210024100D03*
%TD*%
D14*
%TO.C,D30*%
X185964700Y-241772100D03*
X182664700Y-241772100D03*
%TD*%
%TO.C,D98*%
X451060500Y-160814700D03*
X447760500Y-160814700D03*
%TD*%
D15*
%TO.C,C19*%
X457898600Y-227485500D03*
X459973600Y-227485500D03*
%TD*%
D14*
%TO.C,D78*%
X411375500Y-262408300D03*
X408075500Y-262408300D03*
%TD*%
D11*
%TO.C,D159*%
X456080200Y-209980400D03*
X456080200Y-208480400D03*
X450680200Y-208480400D03*
X450680200Y-209980400D03*
%TD*%
D14*
%TO.C,D16*%
X157391500Y-222723300D03*
X154091500Y-222723300D03*
%TD*%
%TO.C,D77*%
X392264100Y-243359500D03*
X388964100Y-243359500D03*
%TD*%
D15*
%TO.C,C81*%
X273760200Y-189387900D03*
X275835200Y-189387900D03*
%TD*%
D12*
%TO.C,D139*%
X223682000Y-227529200D03*
X223682000Y-229029200D03*
X229082000Y-229029200D03*
X229082000Y-227529200D03*
%TD*%
D14*
%TO.C,D25*%
X328830700Y-222723300D03*
X325530700Y-222723300D03*
%TD*%
D15*
%TO.C,C52*%
X438849800Y-189387900D03*
X440924800Y-189387900D03*
%TD*%
D11*
%TO.C,D190*%
X357661400Y-171882800D03*
X357661400Y-170382800D03*
X352261400Y-170382800D03*
X352261400Y-171882800D03*
%TD*%
D15*
%TO.C,C94*%
X293602700Y-146528100D03*
X295677700Y-146528100D03*
%TD*%
D13*
%TO.C,C13*%
X371079200Y-249709100D03*
X369004200Y-249709100D03*
%TD*%
D15*
%TO.C,C102*%
X130894200Y-146528100D03*
X132969200Y-146528100D03*
%TD*%
D14*
%TO.C,D20*%
X233586700Y-222723300D03*
X230286700Y-222723300D03*
%TD*%
D11*
%TO.C,D192*%
X417982600Y-171882800D03*
X417982600Y-170382800D03*
X412582600Y-170382800D03*
X412582600Y-171882800D03*
%TD*%
D12*
%TO.C,D128*%
X450680200Y-227529200D03*
X450680200Y-229029200D03*
X456080200Y-229029200D03*
X456080200Y-227529200D03*
%TD*%
D11*
%TO.C,D144*%
X136219100Y-209980400D03*
X136219100Y-208480400D03*
X130819100Y-208480400D03*
X130819100Y-209980400D03*
%TD*%
D14*
%TO.C,D85*%
X412900300Y-203674500D03*
X409600300Y-203674500D03*
%TD*%
D15*
%TO.C,C89*%
X397578600Y-146528100D03*
X399653600Y-146528100D03*
%TD*%
D14*
%TO.C,D28*%
X135961600Y-241772100D03*
X132661600Y-241772100D03*
%TD*%
D16*
%TO.C,A1*%
X113682900Y-191136600D03*
X113682900Y-188596600D03*
X113682900Y-186056600D03*
X113682900Y-183516600D03*
X113682900Y-180976600D03*
X113682900Y-178436600D03*
X113682900Y-175896600D03*
X113682900Y-173356600D03*
X113682900Y-170816600D03*
X113682900Y-168276600D03*
X113682900Y-165736600D03*
X113682900Y-163196600D03*
X113682900Y-160656600D03*
X113682900Y-158116600D03*
X113682900Y-155576600D03*
X113682900Y-153036600D03*
X113682900Y-150496600D03*
X113682900Y-147956600D03*
X113682900Y-145416600D03*
X113682900Y-142876600D03*
D17*
X106532900Y-191706600D03*
X103992900Y-191706600D03*
X101452900Y-191706600D03*
D16*
X94302900Y-191136600D03*
X94302900Y-188596600D03*
X94302900Y-186056600D03*
X94302900Y-183516600D03*
X94302900Y-180976600D03*
X94302900Y-178436600D03*
X94302900Y-175896600D03*
X94302900Y-173356600D03*
X94302900Y-170816600D03*
X94302900Y-168276600D03*
X94302900Y-165736600D03*
X94302900Y-163196600D03*
X94302900Y-160656600D03*
X94302900Y-158116600D03*
X94302900Y-155576600D03*
X94302900Y-153036600D03*
X94302900Y-150496600D03*
X94302900Y-147956600D03*
X94302900Y-145416600D03*
X94302900Y-142876600D03*
%TD*%
D13*
%TO.C,C77*%
X312345400Y-171926500D03*
X310270400Y-171926500D03*
%TD*%
D11*
%TO.C,D185*%
X262417400Y-171882800D03*
X262417400Y-170382800D03*
X257017400Y-170382800D03*
X257017400Y-171882800D03*
%TD*%
D15*
%TO.C,C51*%
X457898600Y-189387900D03*
X459973600Y-189387900D03*
%TD*%
%TO.C,C99*%
X192802800Y-146528100D03*
X194877800Y-146528100D03*
%TD*%
D14*
%TO.C,D84*%
X450997900Y-222723300D03*
X447697900Y-222723300D03*
%TD*%
D11*
%TO.C,D153*%
X314801600Y-209980400D03*
X314801600Y-208480400D03*
X309401600Y-208480400D03*
X309401600Y-209980400D03*
%TD*%
D12*
%TO.C,D107*%
X247493000Y-146571800D03*
X247493000Y-148071800D03*
X252893000Y-148071800D03*
X252893000Y-146571800D03*
%TD*%
D11*
%TO.C,D147*%
X200507600Y-209980400D03*
X200507600Y-208480400D03*
X195107600Y-208480400D03*
X195107600Y-209980400D03*
%TD*%
D15*
%TO.C,C92*%
X336462500Y-146528100D03*
X338537500Y-146528100D03*
%TD*%
D13*
%TO.C,C78*%
X331394200Y-171926500D03*
X329319200Y-171926500D03*
%TD*%
D14*
%TO.C,D47*%
X373277900Y-262408300D03*
X369977900Y-262408300D03*
%TD*%
D15*
%TO.C,C18*%
X476947400Y-237009900D03*
X479022400Y-237009900D03*
%TD*%
%TO.C,C98*%
X211851600Y-146528100D03*
X213926600Y-146528100D03*
%TD*%
D12*
%TO.C,D133*%
X337973600Y-227529200D03*
X337973600Y-229029200D03*
X343373600Y-229029200D03*
X343373600Y-227529200D03*
%TD*%
%TO.C,D168*%
X304639400Y-189431600D03*
X304639400Y-190931600D03*
X310039400Y-190931600D03*
X310039400Y-189431600D03*
%TD*%
D13*
%TO.C,C10*%
X312345400Y-248121700D03*
X310270400Y-248121700D03*
%TD*%
D11*
%TO.C,D115*%
X131456900Y-248078000D03*
X131456900Y-246578000D03*
X126056900Y-246578000D03*
X126056900Y-248078000D03*
%TD*%
D14*
%TO.C,D55*%
X257397700Y-184625700D03*
X254097700Y-184625700D03*
%TD*%
D13*
%TO.C,C70*%
X179003800Y-171926500D03*
X176928800Y-171926500D03*
%TD*%
D12*
%TO.C,D108*%
X228444200Y-146571800D03*
X228444200Y-148071800D03*
X233844200Y-148071800D03*
X233844200Y-146571800D03*
%TD*%
D14*
%TO.C,D17*%
X176440300Y-222723300D03*
X173140300Y-222723300D03*
%TD*%
D15*
%TO.C,C97*%
X235418800Y-146528100D03*
X237493800Y-146528100D03*
%TD*%
%TO.C,C25*%
X326144400Y-227485500D03*
X328219400Y-227485500D03*
%TD*%
D11*
%TO.C,D186*%
X281466200Y-171882800D03*
X281466200Y-170382800D03*
X276066200Y-170382800D03*
X276066200Y-171882800D03*
%TD*%
D13*
%TO.C,C68*%
X140906200Y-171926500D03*
X138831200Y-171926500D03*
%TD*%
D11*
%TO.C,D122*%
X378297600Y-249665400D03*
X378297600Y-248165400D03*
X372897600Y-248165400D03*
X372897600Y-249665400D03*
%TD*%
D13*
%TO.C,C9*%
X243293500Y-248121700D03*
X241218500Y-248121700D03*
%TD*%
D14*
%TO.C,D1*%
X128880900Y-203674500D03*
X125580900Y-203674500D03*
%TD*%
D13*
%TO.C,C14*%
X390128000Y-249709100D03*
X388053000Y-249709100D03*
%TD*%
D14*
%TO.C,D99*%
X470109300Y-160814700D03*
X466809300Y-160814700D03*
%TD*%
%TO.C,D102*%
X93896700Y-238597300D03*
X90596700Y-238597300D03*
%TD*%
%TO.C,D70*%
X285972100Y-160814700D03*
X282672100Y-160814700D03*
%TD*%
D13*
%TO.C,C50*%
X468154400Y-200499700D03*
X466079400Y-200499700D03*
%TD*%
D11*
%TO.C,D118*%
X250511900Y-248078000D03*
X250511900Y-246578000D03*
X245111900Y-246578000D03*
X245111900Y-248078000D03*
%TD*%
%TO.C,D191*%
X386234600Y-171882800D03*
X386234600Y-170382800D03*
X380834600Y-170382800D03*
X380834600Y-171882800D03*
%TD*%
D14*
%TO.C,D37*%
X319306300Y-241772100D03*
X316006300Y-241772100D03*
%TD*%
%TO.C,D35*%
X281208700Y-241772100D03*
X277908700Y-241772100D03*
%TD*%
D12*
%TO.C,D165*%
X361785800Y-189431600D03*
X361785800Y-190931600D03*
X367185800Y-190931600D03*
X367185800Y-189431600D03*
%TD*%
D13*
%TO.C,C82*%
X411008000Y-171926500D03*
X408933000Y-171926500D03*
%TD*%
D14*
%TO.C,D96*%
X412962900Y-160814700D03*
X409662900Y-160814700D03*
%TD*%
%TO.C,D50*%
X162153700Y-184625700D03*
X158853700Y-184625700D03*
%TD*%
D13*
%TO.C,C36*%
X174241600Y-210024100D03*
X172166600Y-210024100D03*
%TD*%
D11*
%TO.C,D123*%
X397346400Y-249665400D03*
X397346400Y-248165400D03*
X391946400Y-248165400D03*
X391946400Y-249665400D03*
%TD*%
%TO.C,D111*%
X89392000Y-206805600D03*
X89392000Y-205305600D03*
X83992000Y-205305600D03*
X83992000Y-206805600D03*
%TD*%
D12*
%TO.C,D143*%
X135581300Y-227529200D03*
X135581300Y-229029200D03*
X140981300Y-229029200D03*
X140981300Y-227529200D03*
%TD*%
%TO.C,D201*%
X366548000Y-146571800D03*
X366548000Y-148071800D03*
X371948000Y-148071800D03*
X371948000Y-146571800D03*
%TD*%
D14*
%TO.C,D11*%
X324068500Y-203674500D03*
X320768500Y-203674500D03*
%TD*%
D11*
%TO.C,D181*%
X186222200Y-171882800D03*
X186222200Y-170382800D03*
X180822200Y-170382800D03*
X180822200Y-171882800D03*
%TD*%
D15*
%TO.C,C60*%
X254711400Y-189387900D03*
X256786400Y-189387900D03*
%TD*%
D12*
%TO.C,D173*%
X209395400Y-189431600D03*
X209395400Y-190931600D03*
X214795400Y-190931600D03*
X214795400Y-189431600D03*
%TD*%
D13*
%TO.C,C42*%
X288534400Y-210024100D03*
X286459400Y-210024100D03*
%TD*%
D15*
%TO.C,C6*%
X142799700Y-227485500D03*
X144874700Y-227485500D03*
%TD*%
D13*
%TO.C,C11*%
X331394200Y-248121700D03*
X329319200Y-248121700D03*
%TD*%
D14*
%TO.C,D46*%
X352579100Y-260820900D03*
X349279100Y-260820900D03*
%TD*%
D11*
%TO.C,D180*%
X167173400Y-171882800D03*
X167173400Y-170382800D03*
X161773400Y-170382800D03*
X161773400Y-171882800D03*
%TD*%
%TO.C,D121*%
X357661400Y-248078000D03*
X357661400Y-246578000D03*
X352261400Y-246578000D03*
X352261400Y-248078000D03*
%TD*%
D12*
%TO.C,D129*%
X431631400Y-227529200D03*
X431631400Y-229029200D03*
X437031400Y-229029200D03*
X437031400Y-227529200D03*
%TD*%
D14*
%TO.C,D58*%
X314544100Y-184625700D03*
X311244100Y-184625700D03*
%TD*%
D11*
%TO.C,D158*%
X437031400Y-209980400D03*
X437031400Y-208480400D03*
X431631400Y-208480400D03*
X431631400Y-209980400D03*
%TD*%
D14*
%TO.C,D49*%
X143104900Y-184625700D03*
X139804900Y-184625700D03*
%TD*%
%TO.C,D15*%
X132788000Y-222723300D03*
X129488000Y-222723300D03*
%TD*%
%TO.C,D66*%
X204221000Y-160814700D03*
X200921000Y-160814700D03*
%TD*%
%TO.C,D48*%
X124056100Y-184625700D03*
X120756100Y-184625700D03*
%TD*%
D12*
%TO.C,D200*%
X390359000Y-146571800D03*
X390359000Y-148071800D03*
X395759000Y-148071800D03*
X395759000Y-146571800D03*
%TD*%
D11*
%TO.C,D182*%
X205271000Y-171882800D03*
X205271000Y-170382800D03*
X199871000Y-170382800D03*
X199871000Y-171882800D03*
%TD*%
D12*
%TO.C,D167*%
X323688200Y-189431600D03*
X323688200Y-190931600D03*
X329088200Y-190931600D03*
X329088200Y-189431600D03*
%TD*%
%TO.C,D198*%
X431631400Y-146571800D03*
X431631400Y-148071800D03*
X437031400Y-148071800D03*
X437031400Y-146571800D03*
%TD*%
D14*
%TO.C,D19*%
X214537900Y-222723300D03*
X211237900Y-222723300D03*
%TD*%
D15*
%TO.C,C96*%
X254467600Y-146528100D03*
X256542600Y-146528100D03*
%TD*%
D12*
%TO.C,D205*%
X147486800Y-146571800D03*
X147486800Y-148071800D03*
X152886800Y-148071800D03*
X152886800Y-146571800D03*
%TD*%
D15*
%TO.C,C90*%
X374560100Y-146528100D03*
X376635100Y-146528100D03*
%TD*%
D13*
%TO.C,C40*%
X250436800Y-210024100D03*
X248361800Y-210024100D03*
%TD*%
D14*
%TO.C,D72*%
X328894500Y-160814700D03*
X325594500Y-160814700D03*
%TD*%
%TO.C,D74*%
X366929500Y-160814700D03*
X363629500Y-160814700D03*
%TD*%
D13*
%TO.C,C84*%
X448861800Y-171926500D03*
X446786800Y-171926500D03*
%TD*%
D14*
%TO.C,D51*%
X181202500Y-184625700D03*
X177902500Y-184625700D03*
%TD*%
D15*
%TO.C,C66*%
X135656400Y-189387900D03*
X137731400Y-189387900D03*
%TD*%
%TO.C,C100*%
X173754000Y-146528100D03*
X175829000Y-146528100D03*
%TD*%
D11*
%TO.C,D152*%
X295752800Y-209980400D03*
X295752800Y-208480400D03*
X290352800Y-208480400D03*
X290352800Y-209980400D03*
%TD*%
D14*
%TO.C,D23*%
X290670500Y-222723300D03*
X287370500Y-222723300D03*
%TD*%
D15*
%TO.C,C33*%
X173754000Y-227485500D03*
X175829000Y-227485500D03*
%TD*%
D13*
%TO.C,C4*%
X82173600Y-244946900D03*
X80098600Y-244946900D03*
%TD*%
D11*
%TO.C,D157*%
X417982600Y-209980400D03*
X417982600Y-208480400D03*
X412582600Y-208480400D03*
X412582600Y-209980400D03*
%TD*%
D15*
%TO.C,C2*%
X81686000Y-224310700D03*
X83761000Y-224310700D03*
%TD*%
D14*
%TO.C,D73*%
X348005900Y-160814700D03*
X344705900Y-160814700D03*
%TD*%
D11*
%TO.C,D120*%
X338612600Y-248078000D03*
X338612600Y-246578000D03*
X333212600Y-246578000D03*
X333212600Y-248078000D03*
%TD*%
D14*
%TO.C,D101*%
X74847900Y-238597300D03*
X71547900Y-238597300D03*
%TD*%
D15*
%TO.C,C31*%
X211851600Y-227485500D03*
X213926600Y-227485500D03*
%TD*%
D11*
%TO.C,D150*%
X257655200Y-209980400D03*
X257655200Y-208480400D03*
X252255200Y-208480400D03*
X252255200Y-209980400D03*
%TD*%
D13*
%TO.C,C79*%
X350443000Y-171926500D03*
X348368000Y-171926500D03*
%TD*%
D14*
%TO.C,D91*%
X431949100Y-260820900D03*
X428649100Y-260820900D03*
%TD*%
D11*
%TO.C,D124*%
X416395200Y-249665400D03*
X416395200Y-248165400D03*
X410995200Y-248165400D03*
X410995200Y-249665400D03*
%TD*%
D15*
%TO.C,C53*%
X419801000Y-189387900D03*
X421876000Y-189387900D03*
%TD*%
D14*
%TO.C,D44*%
X314544100Y-260820900D03*
X311244100Y-260820900D03*
%TD*%
D11*
%TO.C,D119*%
X319562600Y-248078000D03*
X319562600Y-246578000D03*
X314162600Y-246578000D03*
X314162600Y-248078000D03*
%TD*%
%TO.C,D146*%
X181460000Y-209980400D03*
X181460000Y-208480400D03*
X176060000Y-208480400D03*
X176060000Y-209980400D03*
%TD*%
D15*
%TO.C,C23*%
X371385300Y-227485500D03*
X373460300Y-227485500D03*
%TD*%
D11*
%TO.C,D154*%
X333850400Y-209980400D03*
X333850400Y-208480400D03*
X328450400Y-208480400D03*
X328450400Y-209980400D03*
%TD*%
D13*
%TO.C,C41*%
X269485600Y-210024100D03*
X267410600Y-210024100D03*
%TD*%
D12*
%TO.C,D172*%
X228444200Y-189431600D03*
X228444200Y-190931600D03*
X233844200Y-190931600D03*
X233844200Y-189431600D03*
%TD*%
%TO.C,D162*%
X431631400Y-189431600D03*
X431631400Y-190931600D03*
X437031400Y-190931600D03*
X437031400Y-189431600D03*
%TD*%
D14*
%TO.C,D4*%
X190726900Y-203674500D03*
X187426900Y-203674500D03*
%TD*%
D12*
%TO.C,D177*%
X128438000Y-189431600D03*
X128438000Y-190931600D03*
X133838000Y-190931600D03*
X133838000Y-189431600D03*
%TD*%
D15*
%TO.C,C57*%
X349955400Y-189387900D03*
X352030400Y-189387900D03*
%TD*%
D11*
%TO.C,D117*%
X179078900Y-248078000D03*
X179078900Y-246578000D03*
X173678900Y-246578000D03*
X173678900Y-248078000D03*
%TD*%
D14*
%TO.C,D61*%
X381152300Y-184625700D03*
X377852300Y-184625700D03*
%TD*%
D13*
%TO.C,C1*%
X82099500Y-206793400D03*
X80024500Y-206793400D03*
%TD*%
D12*
%TO.C,D175*%
X171297800Y-189431600D03*
X171297800Y-190931600D03*
X176697800Y-190931600D03*
X176697800Y-189431600D03*
%TD*%
%TO.C,D206*%
X123675800Y-146571800D03*
X123675800Y-148071800D03*
X129075800Y-148071800D03*
X129075800Y-146571800D03*
%TD*%
D13*
%TO.C,C48*%
X429813000Y-210024100D03*
X427738000Y-210024100D03*
%TD*%
D14*
%TO.C,D86*%
X431949100Y-203674500D03*
X428649100Y-203674500D03*
%TD*%
%TO.C,D3*%
X171678100Y-203674500D03*
X168378100Y-203674500D03*
%TD*%
%TO.C,D45*%
X333592900Y-260820900D03*
X330292900Y-260820900D03*
%TD*%
D13*
%TO.C,C44*%
X326632000Y-210024100D03*
X324557000Y-210024100D03*
%TD*%
D12*
%TO.C,D141*%
X185584400Y-227529200D03*
X185584400Y-229029200D03*
X190984400Y-229029200D03*
X190984400Y-227529200D03*
%TD*%
D13*
%TO.C,C12*%
X350443000Y-248121700D03*
X348368000Y-248121700D03*
%TD*%
D14*
%TO.C,D34*%
X262159900Y-241772100D03*
X258859900Y-241772100D03*
%TD*%
D12*
%TO.C,D113*%
X74467600Y-224354400D03*
X74467600Y-225854400D03*
X79867600Y-225854400D03*
X79867600Y-224354400D03*
%TD*%
D14*
%TO.C,D33*%
X243111100Y-241772100D03*
X239811100Y-241772100D03*
%TD*%
%TO.C,D95*%
X470046700Y-184625700D03*
X466746700Y-184625700D03*
%TD*%
%TO.C,D103*%
X84372300Y-219548500D03*
X81072300Y-219548500D03*
%TD*%
D11*
%TO.C,D160*%
X475129000Y-200456000D03*
X475129000Y-198956000D03*
X469729000Y-198956000D03*
X469729000Y-200456000D03*
%TD*%
D15*
%TO.C,C29*%
X249949200Y-227485500D03*
X252024200Y-227485500D03*
%TD*%
D12*
%TO.C,D197*%
X450680200Y-146571800D03*
X450680200Y-148071800D03*
X456080200Y-148071800D03*
X456080200Y-146571800D03*
%TD*%
D14*
%TO.C,D75*%
X390740500Y-160814700D03*
X387440500Y-160814700D03*
%TD*%
D15*
%TO.C,C55*%
X369004200Y-189387900D03*
X371079200Y-189387900D03*
%TD*%
D14*
%TO.C,D6*%
X228761900Y-203674500D03*
X225461900Y-203674500D03*
%TD*%
%TO.C,D76*%
X392326700Y-262408300D03*
X389026700Y-262408300D03*
%TD*%
%TO.C,D10*%
X304957100Y-203674500D03*
X301657100Y-203674500D03*
%TD*%
D15*
%TO.C,C95*%
X274310100Y-146528100D03*
X276385100Y-146528100D03*
%TD*%
%TO.C,C32*%
X192802800Y-227485500D03*
X194877800Y-227485500D03*
%TD*%
D12*
%TO.C,D170*%
X266541800Y-189431600D03*
X266541800Y-190931600D03*
X271941800Y-190931600D03*
X271941800Y-189431600D03*
%TD*%
D13*
%TO.C,C75*%
X274247800Y-171926500D03*
X272172800Y-171926500D03*
%TD*%
D14*
%TO.C,D88*%
X412900300Y-184625700D03*
X409600300Y-184625700D03*
%TD*%
D15*
%TO.C,C54*%
X392815200Y-189387900D03*
X394890200Y-189387900D03*
%TD*%
D13*
%TO.C,C45*%
X345680800Y-210024100D03*
X343605800Y-210024100D03*
%TD*%
D11*
%TO.C,D194*%
X456080200Y-171882800D03*
X456080200Y-170382800D03*
X450680200Y-170382800D03*
X450680200Y-171882800D03*
%TD*%
D13*
%TO.C,C83*%
X429813000Y-171926500D03*
X427738000Y-171926500D03*
%TD*%
%TO.C,C43*%
X307583200Y-210024100D03*
X305508200Y-210024100D03*
%TD*%
D14*
%TO.C,D8*%
X266859500Y-203674500D03*
X263559500Y-203674500D03*
%TD*%
D11*
%TO.C,D189*%
X338612600Y-171882800D03*
X338612600Y-170382800D03*
X333212600Y-170382800D03*
X333212600Y-171882800D03*
%TD*%
D14*
%TO.C,D31*%
X205013500Y-241772100D03*
X201713500Y-241772100D03*
%TD*%
D13*
%TO.C,C15*%
X409176800Y-249709100D03*
X407101800Y-249709100D03*
%TD*%
D11*
%TO.C,D149*%
X238606400Y-209980400D03*
X238606400Y-208480400D03*
X233206400Y-208480400D03*
X233206400Y-209980400D03*
%TD*%
%TO.C,D145*%
X162411200Y-209980400D03*
X162411200Y-208480400D03*
X157011200Y-208480400D03*
X157011200Y-209980400D03*
%TD*%
D14*
%TO.C,D60*%
X352641700Y-184625700D03*
X349341700Y-184625700D03*
%TD*%
D13*
%TO.C,C46*%
X376635100Y-210024100D03*
X374560100Y-210024100D03*
%TD*%
D11*
%TO.C,D187*%
X300515000Y-171882800D03*
X300515000Y-170382800D03*
X295115000Y-170382800D03*
X295115000Y-171882800D03*
%TD*%
D14*
%TO.C,D22*%
X271621700Y-222723300D03*
X268321700Y-222723300D03*
%TD*%
%TO.C,D26*%
X347879500Y-222723300D03*
X344579500Y-222723300D03*
%TD*%
D13*
%TO.C,C76*%
X293296600Y-171926500D03*
X291221600Y-171926500D03*
%TD*%
D15*
%TO.C,C58*%
X311857800Y-189387900D03*
X313932800Y-189387900D03*
%TD*%
D11*
%TO.C,D193*%
X437031400Y-171882800D03*
X437031400Y-170382800D03*
X431631400Y-170382800D03*
X431631400Y-171882800D03*
%TD*%
D14*
%TO.C,D69*%
X266923300Y-160814700D03*
X263623300Y-160814700D03*
%TD*%
D13*
%TO.C,C17*%
X448861800Y-248121700D03*
X446786800Y-248121700D03*
%TD*%
D14*
%TO.C,D32*%
X224124900Y-241772100D03*
X220824900Y-241772100D03*
%TD*%
%TO.C,D29*%
X166915900Y-241772100D03*
X163615900Y-241772100D03*
%TD*%
%TO.C,D42*%
X174059200Y-260820900D03*
X170759200Y-260820900D03*
%TD*%
%TO.C,D82*%
X412900300Y-222723300D03*
X409600300Y-222723300D03*
%TD*%
%TO.C,D83*%
X431949100Y-222723300D03*
X428649100Y-222723300D03*
%TD*%
D12*
%TO.C,D166*%
X342747800Y-189431600D03*
X342747800Y-190931600D03*
X348147800Y-190931600D03*
X348147800Y-189431600D03*
%TD*%
D14*
%TO.C,D64*%
X166915900Y-160814700D03*
X163615900Y-160814700D03*
%TD*%
D15*
%TO.C,C86*%
X476947400Y-146528100D03*
X479022400Y-146528100D03*
%TD*%
D14*
%TO.C,D57*%
X295557900Y-184625700D03*
X292257900Y-184625700D03*
%TD*%
D12*
%TO.C,D104*%
X309401600Y-146571800D03*
X309401600Y-148071800D03*
X314801600Y-148071800D03*
X314801600Y-146571800D03*
%TD*%
D11*
%TO.C,D125*%
X437031400Y-248078000D03*
X437031400Y-246578000D03*
X431631400Y-246578000D03*
X431631400Y-248078000D03*
%TD*%
D15*
%TO.C,C93*%
X317413700Y-146528100D03*
X319488700Y-146528100D03*
%TD*%
%TO.C,C62*%
X216613800Y-189387900D03*
X218688800Y-189387900D03*
%TD*%
D14*
%TO.C,D79*%
X412962900Y-241772100D03*
X409662900Y-241772100D03*
%TD*%
%TO.C,D53*%
X219300100Y-184625700D03*
X216000100Y-184625700D03*
%TD*%
D11*
%TO.C,D156*%
X383853500Y-209980400D03*
X383853500Y-208480400D03*
X378453500Y-208480400D03*
X378453500Y-209980400D03*
%TD*%
D15*
%TO.C,C30*%
X230900400Y-227485500D03*
X232975400Y-227485500D03*
%TD*%
D13*
%TO.C,C71*%
X198296400Y-171926500D03*
X196221400Y-171926500D03*
%TD*%
D14*
%TO.C,D21*%
X252635500Y-222723300D03*
X249335500Y-222723300D03*
%TD*%
%TO.C,D39*%
X364484600Y-241772100D03*
X361184600Y-241772100D03*
%TD*%
%TO.C,D89*%
X431949100Y-184625700D03*
X428649100Y-184625700D03*
%TD*%
%TO.C,D62*%
X124056100Y-160814700D03*
X120756100Y-160814700D03*
%TD*%
D12*
%TO.C,D110*%
X185584400Y-146571800D03*
X185584400Y-148071800D03*
X190984400Y-148071800D03*
X190984400Y-146571800D03*
%TD*%
D15*
%TO.C,C20*%
X438849800Y-227485500D03*
X440924800Y-227485500D03*
%TD*%
D13*
%TO.C,C5*%
X124482300Y-248121700D03*
X122407300Y-248121700D03*
%TD*%
D12*
%TO.C,D109*%
X204633200Y-146571800D03*
X204633200Y-148071800D03*
X210033200Y-148071800D03*
X210033200Y-146571800D03*
%TD*%
D14*
%TO.C,D67*%
X228888300Y-160814700D03*
X225588300Y-160814700D03*
%TD*%
D12*
%TO.C,D127*%
X469729000Y-237053600D03*
X469729000Y-238553600D03*
X475129000Y-238553600D03*
X475129000Y-237053600D03*
%TD*%
D15*
%TO.C,C61*%
X235662600Y-189387900D03*
X237737600Y-189387900D03*
%TD*%
D14*
%TO.C,D94*%
X470046700Y-213198900D03*
X466746700Y-213198900D03*
%TD*%
D15*
%TO.C,C65*%
X159467400Y-189387900D03*
X161542400Y-189387900D03*
%TD*%
D14*
%TO.C,D52*%
X200313900Y-184625700D03*
X197013900Y-184625700D03*
%TD*%
%TO.C,D43*%
X245492200Y-260820900D03*
X242192200Y-260820900D03*
%TD*%
D15*
%TO.C,C21*%
X419801000Y-227485500D03*
X421876000Y-227485500D03*
%TD*%
D14*
%TO.C,D80*%
X432011700Y-241772100D03*
X428711700Y-241772100D03*
%TD*%
D12*
%TO.C,D105*%
X285590600Y-146571800D03*
X285590600Y-148071800D03*
X290990600Y-148071800D03*
X290990600Y-146571800D03*
%TD*%
D14*
%TO.C,D12*%
X343117300Y-203674500D03*
X339817300Y-203674500D03*
%TD*%
D13*
%TO.C,C38*%
X212339200Y-210024100D03*
X210264200Y-210024100D03*
%TD*%
D14*
%TO.C,D24*%
X309719300Y-222723300D03*
X306419300Y-222723300D03*
%TD*%
D15*
%TO.C,C26*%
X307095600Y-227485500D03*
X309170600Y-227485500D03*
%TD*%
D14*
%TO.C,D59*%
X333592900Y-184625700D03*
X330292900Y-184625700D03*
%TD*%
D15*
%TO.C,C91*%
X355511300Y-146528100D03*
X357586300Y-146528100D03*
%TD*%
M02*
