M48
; DRILL file {KiCad 9.0.5} date 2025-11-17T19:03:04+0100
; FORMAT={-:-/ absolute / metric / decimal}
; #@! TF.CreationDate,2025-11-17T19:03:04+01:00
; #@! TF.GenerationSoftware,Kicad,Pcbnew,9.0.5
; #@! TF.FileFunction,NonPlated,1,2,NPTH
FMAT,2
METRIC
; #@! TA.AperFunction,NonPlated,NPTH,ComponentDrill
T1C1.750
; #@! TA.AperFunction,NonPlated,NPTH,ComponentDrill
T2C1.850
; #@! TA.AperFunction,NonPlated,NPTH,ComponentDrill
T3C2.200
; #@! TA.AperFunction,NonPlated,NPTH,ComponentDrill
T4C3.048
; #@! TA.AperFunction,NonPlated,NPTH,ComponentDrill
T5C3.050
; #@! TA.AperFunction,NonPlated,NPTH,ComponentDrill
T6C3.988
; #@! TA.AperFunction,NonPlated,NPTH,ComponentDrill
T7C4.000
%
G90
G05
T1
X72.086Y-229.867
X81.611Y-210.818
X81.611Y-248.915
X82.246Y-229.867
X91.135Y-229.867
X91.771Y-210.818
X91.771Y-248.915
X101.295Y-229.867
X121.295Y-152.084
X121.295Y-175.895
X123.676Y-252.09
X126.057Y-194.944
X128.438Y-213.993
X131.455Y-152.084
X131.455Y-175.895
X133.2Y-233.041
X133.836Y-252.09
X136.217Y-194.944
X138.598Y-213.993
X140.343Y-175.895
X143.36Y-233.041
X145.106Y-152.084
X147.487Y-252.09
X149.868Y-194.944
X150.503Y-175.895
X154.63Y-213.993
X155.266Y-152.084
X157.647Y-252.09
X159.392Y-175.895
X160.028Y-194.944
X164.154Y-152.084
X164.154Y-233.041
X164.79Y-213.993
X168.918Y-194.944
X169.552Y-175.895
X171.298Y-252.09
X173.679Y-213.993
X174.314Y-152.084
X174.314Y-233.041
X178.441Y-175.895
X179.078Y-194.944
X181.458Y-252.09
X183.203Y-152.084
X183.203Y-233.041
X183.839Y-213.993
X187.968Y-194.944
X188.601Y-175.895
X192.728Y-213.993
X193.363Y-152.084
X193.363Y-233.041
X197.49Y-175.895
X198.128Y-194.944
X202.252Y-233.041
X202.253Y-152.084
X202.888Y-213.993
X207.018Y-194.944
X207.65Y-175.895
X211.776Y-213.993
X212.412Y-233.041
X212.413Y-152.084
X216.539Y-175.895
X217.178Y-194.944
X221.301Y-233.041
X221.936Y-213.993
X226.064Y-152.084
X226.068Y-194.944
X226.699Y-175.895
X230.825Y-213.993
X231.461Y-233.041
X235.587Y-175.895
X236.224Y-152.084
X236.228Y-194.944
X240.35Y-233.041
X240.985Y-213.993
X242.731Y-252.09
X245.113Y-152.084
X245.118Y-194.944
X245.747Y-175.895
X249.874Y-213.993
X250.51Y-233.041
X252.891Y-252.09
X254.636Y-175.895
X255.273Y-152.084
X255.278Y-194.944
X259.398Y-233.041
X260.034Y-213.993
X264.162Y-152.084
X264.168Y-194.944
X264.796Y-175.895
X268.923Y-213.993
X269.558Y-233.041
X273.685Y-175.895
X274.322Y-152.084
X274.328Y-194.944
X278.447Y-233.041
X279.083Y-213.993
X283.211Y-152.084
X283.218Y-194.944
X283.845Y-175.895
X287.972Y-213.993
X288.607Y-233.041
X292.734Y-175.895
X293.371Y-152.084
X293.378Y-194.944
X297.496Y-233.041
X298.132Y-213.993
X302.268Y-194.944
X302.894Y-175.895
X307.02Y-213.993
X307.022Y-152.084
X307.656Y-233.041
X311.783Y-175.895
X311.783Y-252.09
X312.428Y-194.944
X316.545Y-233.041
X317.18Y-213.993
X317.182Y-152.084
X321.318Y-194.944
X321.943Y-175.895
X321.943Y-252.09
X326.069Y-213.993
X326.07Y-152.084
X326.705Y-233.041
X330.831Y-175.895
X330.831Y-252.09
X331.478Y-194.944
X335.594Y-233.041
X336.229Y-213.993
X336.23Y-152.084
X340.368Y-194.944
X340.991Y-175.895
X340.991Y-252.09
X345.118Y-213.993
X345.119Y-152.084
X345.754Y-233.041
X349.88Y-175.895
X349.88Y-252.09
X350.528Y-194.944
X355.278Y-213.993
X355.279Y-152.084
X359.418Y-194.944
X360.04Y-175.895
X360.04Y-252.09
X361.786Y-233.041
X364.168Y-152.084
X369.578Y-194.944
X370.516Y-253.678
X371.946Y-233.041
X374.328Y-152.084
X376.072Y-213.993
X378.453Y-175.895
X380.676Y-253.678
X383.216Y-194.944
X386.232Y-213.993
X387.979Y-152.084
X388.613Y-175.895
X389.565Y-234.629
X389.565Y-253.678
X393.376Y-194.944
X398.139Y-152.084
X399.725Y-234.629
X399.725Y-253.678
X408.614Y-253.678
X410.201Y-152.084
X410.201Y-175.895
X410.201Y-194.944
X410.201Y-213.993
X410.201Y-233.041
X418.774Y-253.678
X420.361Y-152.084
X420.361Y-175.895
X420.361Y-194.944
X420.361Y-213.993
X420.361Y-233.041
X429.25Y-152.084
X429.25Y-175.895
X429.25Y-194.944
X429.25Y-213.993
X429.25Y-233.041
X429.25Y-252.09
X439.41Y-152.084
X439.41Y-175.895
X439.41Y-194.944
X439.41Y-213.993
X439.41Y-233.041
X439.41Y-252.09
X448.299Y-152.084
X448.299Y-175.895
X448.299Y-194.944
X448.299Y-213.993
X448.299Y-233.041
X448.299Y-252.09
X458.459Y-152.084
X458.459Y-175.895
X458.459Y-194.944
X458.459Y-213.993
X458.459Y-233.041
X458.459Y-252.09
X467.348Y-152.084
X467.348Y-175.895
X467.348Y-204.468
X467.348Y-242.566
X477.508Y-152.084
X477.508Y-175.895
X477.508Y-204.468
X477.508Y-242.566
T2
X101.568Y-146.037
X106.418Y-146.037
T3
X101.268Y-143.007
X106.718Y-143.007
T4
X126.343Y-226.056
X150.219Y-226.056
X197.812Y-245.105
X297.812Y-245.105
X369.214Y-207.008
X371.595Y-168.91
X393.09Y-207.008
X395.471Y-168.91
X479.413Y-192.53
X479.413Y-216.406
T5
X74.626Y-234.947
X80.976Y-232.407
X84.151Y-215.898
X84.151Y-253.995
X90.501Y-213.358
X90.501Y-251.455
X93.675Y-234.947
X100.025Y-232.407
X123.835Y-157.164
X123.835Y-180.975
X126.216Y-257.17
X128.597Y-200.024
X130.185Y-154.624
X130.185Y-178.435
X130.978Y-219.073
X132.566Y-254.63
X134.947Y-197.484
X135.74Y-238.121
X137.328Y-216.533
X142.09Y-235.581
X142.883Y-180.975
X147.646Y-157.164
X149.233Y-178.435
X150.027Y-257.17
X152.408Y-200.024
X153.996Y-154.624
X156.377Y-254.63
X157.17Y-219.073
X158.758Y-197.484
X161.932Y-180.975
X163.52Y-216.533
X166.694Y-157.164
X166.694Y-238.121
X168.282Y-178.435
X171.458Y-200.024
X173.044Y-154.624
X173.044Y-235.581
X173.838Y-257.17
X176.219Y-219.073
X177.808Y-197.484
X180.188Y-254.63
X180.981Y-180.975
X182.569Y-216.533
X185.743Y-157.164
X185.743Y-238.121
X187.331Y-178.435
X190.508Y-200.024
X192.093Y-154.624
X192.093Y-235.581
X195.268Y-219.073
X196.858Y-197.484
X200.03Y-180.975
X201.618Y-216.533
X204.792Y-238.121
X204.793Y-157.164
X206.38Y-178.435
X209.558Y-200.024
X211.142Y-235.581
X211.143Y-154.624
X214.316Y-219.073
X215.908Y-197.484
X219.079Y-180.975
X220.666Y-216.533
X223.841Y-238.121
X225.429Y-178.435
X228.604Y-157.164
X228.608Y-200.024
X230.191Y-235.581
X233.365Y-219.073
X234.954Y-154.624
X234.958Y-197.484
X238.127Y-180.975
X239.715Y-216.533
X242.89Y-238.121
X244.477Y-178.435
X245.271Y-257.17
X247.653Y-157.164
X247.658Y-200.024
X249.24Y-235.581
X251.621Y-254.63
X252.414Y-219.073
X254.003Y-154.624
X254.008Y-197.484
X257.176Y-180.975
X258.764Y-216.533
X261.938Y-238.121
X263.526Y-178.435
X266.702Y-157.164
X266.708Y-200.024
X268.288Y-235.581
X271.463Y-219.073
X273.052Y-154.624
X273.058Y-197.484
X276.225Y-180.975
X277.813Y-216.533
X280.987Y-238.121
X282.575Y-178.435
X285.751Y-157.164
X285.758Y-200.024
X287.337Y-235.581
X290.512Y-219.073
X292.101Y-154.624
X292.108Y-197.484
X295.274Y-180.975
X296.862Y-216.533
X300.036Y-238.121
X301.624Y-178.435
X304.808Y-200.024
X306.386Y-235.581
X309.56Y-219.073
X309.562Y-157.164
X311.158Y-197.484
X314.323Y-180.975
X314.323Y-257.17
X315.91Y-216.533
X315.912Y-154.624
X319.085Y-238.121
X320.673Y-178.435
X320.673Y-254.63
X323.858Y-200.024
X325.435Y-235.581
X328.609Y-219.073
X328.61Y-157.164
X330.208Y-197.484
X333.371Y-180.975
X333.371Y-257.17
X334.959Y-216.533
X334.96Y-154.624
X338.134Y-238.121
X339.721Y-178.435
X339.721Y-254.63
X342.908Y-200.024
X344.484Y-235.581
X347.658Y-219.073
X347.659Y-157.164
X349.258Y-197.484
X352.42Y-180.975
X352.42Y-257.17
X354.008Y-216.533
X354.009Y-154.624
X358.77Y-178.435
X358.77Y-254.63
X361.958Y-200.024
X364.326Y-238.121
X366.708Y-157.164
X368.308Y-197.484
X370.676Y-235.581
X373.056Y-258.758
X373.058Y-154.624
X378.612Y-219.073
X379.406Y-256.218
X380.993Y-180.975
X384.962Y-216.533
X385.756Y-200.024
X387.343Y-178.435
X390.519Y-157.164
X392.105Y-239.709
X392.105Y-258.758
X392.106Y-197.484
X396.869Y-154.624
X398.455Y-237.169
X398.455Y-256.218
X411.154Y-258.758
X412.741Y-157.164
X412.741Y-180.975
X412.741Y-200.024
X412.741Y-219.073
X412.741Y-238.121
X417.504Y-256.218
X419.091Y-154.624
X419.091Y-178.435
X419.091Y-197.484
X419.091Y-216.533
X419.091Y-235.581
X431.79Y-157.164
X431.79Y-180.975
X431.79Y-200.024
X431.79Y-219.073
X431.79Y-238.121
X431.79Y-257.17
X438.14Y-154.624
X438.14Y-178.435
X438.14Y-197.484
X438.14Y-216.533
X438.14Y-235.581
X438.14Y-254.63
X450.839Y-157.164
X450.839Y-180.975
X450.839Y-200.024
X450.839Y-219.073
X450.839Y-238.121
X450.839Y-257.17
X457.189Y-154.624
X457.189Y-178.435
X457.189Y-197.484
X457.189Y-216.533
X457.189Y-235.581
X457.189Y-254.63
X469.888Y-157.164
X469.888Y-180.975
X469.888Y-209.548
X469.888Y-247.646
X476.238Y-154.624
X476.238Y-178.435
X476.238Y-207.008
X476.238Y-245.106
T6
X126.343Y-241.266
X150.219Y-241.266
X197.812Y-260.315
X297.812Y-260.315
X369.214Y-222.218
X371.595Y-184.12
X393.09Y-222.218
X395.471Y-184.12
X464.203Y-192.53
X464.203Y-216.406
T7
X77.166Y-229.867
X86.691Y-210.818
X86.691Y-248.915
X96.215Y-229.867
X126.375Y-152.084
X126.375Y-175.895
X128.756Y-252.09
X131.137Y-194.944
X133.518Y-213.993
X138.28Y-233.041
X145.423Y-175.895
X150.186Y-152.084
X152.567Y-252.09
X154.948Y-194.944
X159.71Y-213.993
X164.472Y-175.895
X169.234Y-152.084
X169.234Y-233.041
X173.998Y-194.944
X176.378Y-252.09
X178.759Y-213.993
X183.521Y-175.895
X188.283Y-152.084
X188.283Y-233.041
X193.048Y-194.944
X197.808Y-213.993
X202.57Y-175.895
X207.332Y-233.041
X207.333Y-152.084
X212.098Y-194.944
X216.856Y-213.993
X221.619Y-175.895
X226.381Y-233.041
X231.144Y-152.084
X231.148Y-194.944
X235.905Y-213.993
X240.667Y-175.895
X245.43Y-233.041
X247.811Y-252.09
X250.193Y-152.084
X250.198Y-194.944
X254.954Y-213.993
X259.716Y-175.895
X264.478Y-233.041
X269.242Y-152.084
X269.248Y-194.944
X274.003Y-213.993
X278.765Y-175.895
X283.527Y-233.041
X288.291Y-152.084
X288.298Y-194.944
X293.052Y-213.993
X297.814Y-175.895
X302.576Y-233.041
X307.348Y-194.944
X312.1Y-213.993
X312.102Y-152.084
X316.863Y-175.895
X316.863Y-252.09
X321.625Y-233.041
X326.398Y-194.944
X331.149Y-213.993
X331.15Y-152.084
X335.911Y-175.895
X335.911Y-252.09
X340.674Y-233.041
X345.448Y-194.944
X350.198Y-213.993
X350.199Y-152.084
X354.96Y-175.895
X354.96Y-252.09
X364.498Y-194.944
X366.866Y-233.041
X369.248Y-152.084
X375.596Y-253.678
X381.152Y-213.993
X383.533Y-175.895
X388.296Y-194.944
X393.059Y-152.084
X394.645Y-234.629
X394.645Y-253.678
X413.694Y-253.678
X415.281Y-152.084
X415.281Y-175.895
X415.281Y-194.944
X415.281Y-213.993
X415.281Y-233.041
X434.33Y-152.084
X434.33Y-175.895
X434.33Y-194.944
X434.33Y-213.993
X434.33Y-233.041
X434.33Y-252.09
X453.379Y-152.084
X453.379Y-175.895
X453.379Y-194.944
X453.379Y-213.993
X453.379Y-233.041
X453.379Y-252.09
X472.428Y-152.084
X472.428Y-175.895
X472.428Y-204.468
X472.428Y-242.566
M30
