%TF.GenerationSoftware,KiCad,Pcbnew,9.0.5*%
%TF.CreationDate,2025-11-17T19:02:43+01:00*%
%TF.ProjectId,PCB,5043422e-6b69-4636-9164-5f7063625858,rev?*%
%TF.SameCoordinates,Original*%
%TF.FileFunction,Soldermask,Top*%
%TF.FilePolarity,Negative*%
%FSLAX46Y46*%
G04 Gerber Fmt 4.6, Leading zero omitted, Abs format (unit mm)*
G04 Created by KiCad (PCBNEW 9.0.5) date 2025-11-17 19:02:43*
%MOMM*%
%LPD*%
G01*
G04 APERTURE LIST*
G04 Aperture macros list*
%AMRoundRect*
0 Rectangle with rounded corners*
0 $1 Rounding radius*
0 $2 $3 $4 $5 $6 $7 $8 $9 X,Y pos of 4 corners*
0 Add a 4 corners polygon primitive as box body*
4,1,4,$2,$3,$4,$5,$6,$7,$8,$9,$2,$3,0*
0 Add four circle primitives for the rounded corners*
1,1,$1+$1,$2,$3*
1,1,$1+$1,$4,$5*
1,1,$1+$1,$6,$7*
1,1,$1+$1,$8,$9*
0 Add four rect primitives between the rounded corners*
20,1,$1+$1,$2,$3,$4,$5,0*
20,1,$1+$1,$4,$5,$6,$7,0*
20,1,$1+$1,$6,$7,$8,$9,0*
20,1,$1+$1,$8,$9,$2,$3,0*%
G04 Aperture macros list end*
%ADD10C,1.750000*%
%ADD11C,3.050000*%
%ADD12C,4.000000*%
%ADD13RoundRect,0.249999X0.640001X-0.750001X0.640001X0.750001X-0.640001X0.750001X-0.640001X-0.750001X0*%
%ADD14RoundRect,0.250000X-0.475000X0.337500X-0.475000X-0.337500X0.475000X-0.337500X0.475000X0.337500X0*%
%ADD15RoundRect,0.250000X0.350000X0.450000X-0.350000X0.450000X-0.350000X-0.450000X0.350000X-0.450000X0*%
%ADD16C,3.048000*%
%ADD17C,3.987800*%
%ADD18R,0.850000X0.850000*%
%ADD19C,0.850000*%
%ADD20C,2.200000*%
%ADD21C,1.850000*%
G04 APERTURE END LIST*
D10*
%TO.C,S62*%
X121294600Y-152084000D03*
D11*
X123834600Y-157164000D03*
D12*
X126374600Y-152084000D03*
D11*
X130184600Y-154624000D03*
D10*
X131454600Y-152084000D03*
%TD*%
%TO.C,S67*%
X236224200Y-152084000D03*
D11*
X234954200Y-154624000D03*
D12*
X231144200Y-152084000D03*
D11*
X228604200Y-157164000D03*
D10*
X226064200Y-152084000D03*
%TD*%
%TO.C,S100*%
X91770800Y-248915400D03*
D11*
X90500800Y-251455400D03*
D12*
X86690800Y-248915400D03*
D11*
X84150800Y-253995400D03*
D10*
X81610800Y-248915400D03*
%TD*%
D13*
%TO.C,U1*%
X79072000Y-196365700D03*
X81612000Y-196365700D03*
X84152000Y-196365700D03*
X86692000Y-196365700D03*
X89232000Y-196365700D03*
X91772000Y-196365700D03*
X94312000Y-196365700D03*
X94312000Y-184885700D03*
X91772000Y-184885700D03*
X89232000Y-184885700D03*
X86692000Y-184885700D03*
X84152000Y-184885700D03*
X81612000Y-184885700D03*
X79072000Y-184885700D03*
%TD*%
D10*
%TO.C,S89*%
X439410200Y-175895000D03*
D11*
X438140200Y-178435000D03*
D12*
X434330200Y-175895000D03*
D11*
X431790200Y-180975000D03*
D10*
X429250200Y-175895000D03*
%TD*%
D14*
%TO.C,C104*%
X76461800Y-184783800D03*
X76461800Y-186858800D03*
%TD*%
D10*
%TO.C,S49*%
X150503400Y-175895000D03*
D11*
X149233400Y-178435000D03*
D12*
X145423400Y-175895000D03*
D11*
X142883400Y-180975000D03*
D10*
X140343400Y-175895000D03*
%TD*%
%TO.C,S75*%
X398139000Y-152084000D03*
D11*
X396869000Y-154624000D03*
D12*
X393059000Y-152084000D03*
D11*
X390519000Y-157164000D03*
D10*
X387979000Y-152084000D03*
%TD*%
%TO.C,S61*%
X388613400Y-175895000D03*
D11*
X387343400Y-178435000D03*
D12*
X383533400Y-175895000D03*
D11*
X380993400Y-180975000D03*
D10*
X378453400Y-175895000D03*
%TD*%
%TO.C,S32*%
X231460800Y-233041400D03*
D11*
X230190800Y-235581400D03*
D12*
X226380800Y-233041400D03*
D11*
X223840800Y-238121400D03*
D10*
X221300800Y-233041400D03*
%TD*%
%TO.C,S8*%
X274327800Y-194943800D03*
D11*
X273057800Y-197483800D03*
D12*
X269247800Y-194943800D03*
D11*
X266707800Y-200023800D03*
D10*
X264167800Y-194943800D03*
%TD*%
%TO.C,S81*%
X458459000Y-233041400D03*
D11*
X457189000Y-235581400D03*
D12*
X453379000Y-233041400D03*
D11*
X450839000Y-238121400D03*
D10*
X448299000Y-233041400D03*
%TD*%
%TO.C,S82*%
X420361400Y-213992600D03*
D11*
X419091400Y-216532600D03*
D12*
X415281400Y-213992600D03*
D11*
X412741400Y-219072600D03*
D10*
X410201400Y-213992600D03*
%TD*%
%TO.C,S45*%
X340991400Y-252090200D03*
D11*
X339721400Y-254630200D03*
D12*
X335911400Y-252090200D03*
D11*
X333371400Y-257170200D03*
D10*
X330831400Y-252090200D03*
%TD*%
%TO.C,S37*%
X326704800Y-233041400D03*
D11*
X325434800Y-235581400D03*
D12*
X321624800Y-233041400D03*
D11*
X319084800Y-238121400D03*
D10*
X316544800Y-233041400D03*
%TD*%
%TO.C,S38*%
X345753600Y-233041400D03*
D11*
X344483600Y-235581400D03*
D12*
X340673600Y-233041400D03*
D11*
X338133600Y-238121400D03*
D10*
X335593600Y-233041400D03*
%TD*%
%TO.C,S93*%
X477507800Y-242565800D03*
D11*
X476237800Y-245105800D03*
D12*
X472427800Y-242565800D03*
D11*
X469887800Y-247645800D03*
D10*
X467347800Y-242565800D03*
%TD*%
%TO.C,S85*%
X420361400Y-194943800D03*
D11*
X419091400Y-197483800D03*
D12*
X415281400Y-194943800D03*
D11*
X412741400Y-200023800D03*
D10*
X410201400Y-194943800D03*
%TD*%
%TO.C,S39*%
X371945700Y-233041400D03*
D11*
X370675700Y-235581400D03*
D12*
X366865700Y-233041400D03*
D11*
X364325700Y-238121400D03*
D10*
X361785700Y-233041400D03*
%TD*%
%TO.C,S92*%
X458459000Y-252090200D03*
D11*
X457189000Y-254630200D03*
D12*
X453379000Y-252090200D03*
D11*
X450839000Y-257170200D03*
D10*
X448299000Y-252090200D03*
%TD*%
%TO.C,S16*%
X164790000Y-213992600D03*
D11*
X163520000Y-216532600D03*
D12*
X159710000Y-213992600D03*
D11*
X157170000Y-219072600D03*
D10*
X154630000Y-213992600D03*
%TD*%
%TO.C,S36*%
X307656000Y-233041400D03*
D11*
X306386000Y-235581400D03*
D12*
X302576000Y-233041400D03*
D11*
X300036000Y-238121400D03*
D10*
X297496000Y-233041400D03*
%TD*%
%TO.C,S23*%
X298131600Y-213992600D03*
D11*
X296861600Y-216532600D03*
D12*
X293051600Y-213992600D03*
D11*
X290511600Y-219072600D03*
D10*
X287971600Y-213992600D03*
%TD*%
%TO.C,S60*%
X360040200Y-175895000D03*
D11*
X358770200Y-178435000D03*
D12*
X354960200Y-175895000D03*
D11*
X352420200Y-180975000D03*
D10*
X349880200Y-175895000D03*
%TD*%
%TO.C,S101*%
X82246400Y-229866600D03*
D11*
X80976400Y-232406600D03*
D12*
X77166400Y-229866600D03*
D11*
X74626400Y-234946600D03*
D10*
X72086400Y-229866600D03*
%TD*%
%TO.C,S53*%
X226698600Y-175895000D03*
D11*
X225428600Y-178435000D03*
D12*
X221618600Y-175895000D03*
D11*
X219078600Y-180975000D03*
D10*
X216538600Y-175895000D03*
%TD*%
%TO.C,S68*%
X255273000Y-152084000D03*
D11*
X254003000Y-154624000D03*
D12*
X250193000Y-152084000D03*
D11*
X247653000Y-157164000D03*
D10*
X245113000Y-152084000D03*
%TD*%
%TO.C,S90*%
X458459000Y-175895000D03*
D11*
X457189000Y-178435000D03*
D12*
X453379000Y-175895000D03*
D11*
X450839000Y-180975000D03*
D10*
X448299000Y-175895000D03*
%TD*%
D15*
%TO.C,R1*%
X108442900Y-156052500D03*
X106442900Y-156052500D03*
%TD*%
D10*
%TO.C,S44*%
X321942600Y-252090200D03*
D11*
X320672600Y-254630200D03*
D12*
X316862600Y-252090200D03*
D11*
X314322600Y-257170200D03*
D10*
X311782600Y-252090200D03*
%TD*%
%TO.C,S51*%
X188601000Y-175895000D03*
D11*
X187331000Y-178435000D03*
D12*
X183521000Y-175895000D03*
D11*
X180981000Y-180975000D03*
D10*
X178441000Y-175895000D03*
%TD*%
%TO.C,S33*%
X250509600Y-233041400D03*
D11*
X249239600Y-235581400D03*
D12*
X245429600Y-233041400D03*
D11*
X242889600Y-238121400D03*
D10*
X240349600Y-233041400D03*
%TD*%
D16*
%TO.C,REF\u002A\u002A*%
X371595400Y-168910000D03*
D17*
X371595400Y-184120000D03*
D16*
X395471400Y-168910000D03*
D17*
X395471400Y-184120000D03*
%TD*%
D10*
%TO.C,S14*%
X393375600Y-194943800D03*
D11*
X392105600Y-197483800D03*
D12*
X388295600Y-194943800D03*
D11*
X385755600Y-200023800D03*
D10*
X383215600Y-194943800D03*
%TD*%
%TO.C,S2*%
X160027800Y-194943800D03*
D11*
X158757800Y-197483800D03*
D12*
X154947800Y-194943800D03*
D11*
X152407800Y-200023800D03*
D10*
X149867800Y-194943800D03*
%TD*%
%TO.C,S22*%
X279082800Y-213992600D03*
D11*
X277812800Y-216532600D03*
D12*
X274002800Y-213992600D03*
D11*
X271462800Y-219072600D03*
D10*
X268922800Y-213992600D03*
%TD*%
%TO.C,S9*%
X293377800Y-194943800D03*
D11*
X292107800Y-197483800D03*
D12*
X288297800Y-194943800D03*
D11*
X285757800Y-200023800D03*
D10*
X283217800Y-194943800D03*
%TD*%
%TO.C,S77*%
X399725200Y-234628800D03*
D11*
X398455200Y-237168800D03*
D12*
X394645200Y-234628800D03*
D11*
X392105200Y-239708800D03*
D10*
X389565200Y-234628800D03*
%TD*%
%TO.C,S87*%
X458459000Y-194943800D03*
D11*
X457189000Y-197483800D03*
D12*
X453379000Y-194943800D03*
D11*
X450839000Y-200023800D03*
D10*
X448299000Y-194943800D03*
%TD*%
%TO.C,S35*%
X288607200Y-233041400D03*
D11*
X287337200Y-235581400D03*
D12*
X283527200Y-233041400D03*
D11*
X280987200Y-238121400D03*
D10*
X278447200Y-233041400D03*
%TD*%
%TO.C,S20*%
X240985200Y-213992600D03*
D11*
X239715200Y-216532600D03*
D12*
X235905200Y-213992600D03*
D11*
X233365200Y-219072600D03*
D10*
X230825200Y-213992600D03*
%TD*%
D18*
%TO.C,J2*%
X88190800Y-151734400D03*
D19*
X87190800Y-151734400D03*
X86190800Y-151734400D03*
X85190800Y-151734400D03*
%TD*%
D10*
%TO.C,S5*%
X217177800Y-194943800D03*
D11*
X215907800Y-197483800D03*
D12*
X212097800Y-194943800D03*
D11*
X209557800Y-200023800D03*
D10*
X207017800Y-194943800D03*
%TD*%
%TO.C,S55*%
X264796200Y-175895000D03*
D11*
X263526200Y-178435000D03*
D12*
X259716200Y-175895000D03*
D11*
X257176200Y-180975000D03*
D10*
X254636200Y-175895000D03*
%TD*%
%TO.C,S40*%
X133835700Y-252090200D03*
D11*
X132565700Y-254630200D03*
D12*
X128755700Y-252090200D03*
D11*
X126215700Y-257170200D03*
D10*
X123675700Y-252090200D03*
%TD*%
%TO.C,S88*%
X420361400Y-175895000D03*
D11*
X419091400Y-178435000D03*
D12*
X415281400Y-175895000D03*
D11*
X412741400Y-180975000D03*
D10*
X410201400Y-175895000D03*
%TD*%
%TO.C,S99*%
X477507800Y-152084000D03*
D11*
X476237800Y-154624000D03*
D12*
X472427800Y-152084000D03*
D11*
X469887800Y-157164000D03*
D10*
X467347800Y-152084000D03*
%TD*%
%TO.C,S7*%
X255277800Y-194943800D03*
D11*
X254007800Y-197483800D03*
D12*
X250197800Y-194943800D03*
D11*
X247657800Y-200023800D03*
D10*
X245117800Y-194943800D03*
%TD*%
%TO.C,S74*%
X374328000Y-152084000D03*
D11*
X373058000Y-154624000D03*
D12*
X369248000Y-152084000D03*
D11*
X366708000Y-157164000D03*
D10*
X364168000Y-152084000D03*
%TD*%
%TO.C,S72*%
X336230400Y-152084000D03*
D11*
X334960400Y-154624000D03*
D12*
X331150400Y-152084000D03*
D11*
X328610400Y-157164000D03*
D10*
X326070400Y-152084000D03*
%TD*%
%TO.C,S102*%
X101295200Y-229866600D03*
D11*
X100025200Y-232406600D03*
D12*
X96215200Y-229866600D03*
D11*
X93675200Y-234946600D03*
D10*
X91135200Y-229866600D03*
%TD*%
D16*
%TO.C,REF\u002A\u002A*%
X369214300Y-207007600D03*
D17*
X369214300Y-222217600D03*
D16*
X393090300Y-207007600D03*
D17*
X393090300Y-222217600D03*
%TD*%
D10*
%TO.C,S52*%
X207649800Y-175895000D03*
D11*
X206379800Y-178435000D03*
D12*
X202569800Y-175895000D03*
D11*
X200029800Y-180975000D03*
D10*
X197489800Y-175895000D03*
%TD*%
%TO.C,S3*%
X179077800Y-194943800D03*
D11*
X177807800Y-197483800D03*
D12*
X173997800Y-194943800D03*
D11*
X171457800Y-200023800D03*
D10*
X168917800Y-194943800D03*
%TD*%
%TO.C,S19*%
X221936400Y-213992600D03*
D11*
X220666400Y-216532600D03*
D12*
X216856400Y-213992600D03*
D11*
X214316400Y-219072600D03*
D10*
X211776400Y-213992600D03*
%TD*%
%TO.C,S11*%
X331477800Y-194943800D03*
D11*
X330207800Y-197483800D03*
D12*
X326397800Y-194943800D03*
D11*
X323857800Y-200023800D03*
D10*
X321317800Y-194943800D03*
%TD*%
%TO.C,S103*%
X91770800Y-210817800D03*
D11*
X90500800Y-213357800D03*
D12*
X86690800Y-210817800D03*
D11*
X84150800Y-215897800D03*
D10*
X81610800Y-210817800D03*
%TD*%
%TO.C,S59*%
X340991400Y-175895000D03*
D11*
X339721400Y-178435000D03*
D12*
X335911400Y-175895000D03*
D11*
X333371400Y-180975000D03*
D10*
X330831400Y-175895000D03*
%TD*%
%TO.C,S66*%
X212413200Y-152084000D03*
D11*
X211143200Y-154624000D03*
D12*
X207333200Y-152084000D03*
D11*
X204793200Y-157164000D03*
D10*
X202253200Y-152084000D03*
%TD*%
%TO.C,S76*%
X399725200Y-253677600D03*
D11*
X398455200Y-256217600D03*
D12*
X394645200Y-253677600D03*
D11*
X392105200Y-258757600D03*
D10*
X389565200Y-253677600D03*
%TD*%
%TO.C,S98*%
X458459000Y-152084000D03*
D11*
X457189000Y-154624000D03*
D12*
X453379000Y-152084000D03*
D11*
X450839000Y-157164000D03*
D10*
X448299000Y-152084000D03*
%TD*%
%TO.C,S78*%
X418774000Y-253677600D03*
D11*
X417504000Y-256217600D03*
D12*
X413694000Y-253677600D03*
D11*
X411154000Y-258757600D03*
D10*
X408614000Y-253677600D03*
%TD*%
%TO.C,S83*%
X439410200Y-213992600D03*
D11*
X438140200Y-216532600D03*
D12*
X434330200Y-213992600D03*
D11*
X431790200Y-219072600D03*
D10*
X429250200Y-213992600D03*
%TD*%
%TO.C,S73*%
X355279200Y-152084000D03*
D11*
X354009200Y-154624000D03*
D12*
X350199200Y-152084000D03*
D11*
X347659200Y-157164000D03*
D10*
X345119200Y-152084000D03*
%TD*%
%TO.C,S54*%
X245747400Y-175895000D03*
D11*
X244477400Y-178435000D03*
D12*
X240667400Y-175895000D03*
D11*
X238127400Y-180975000D03*
D10*
X235587400Y-175895000D03*
%TD*%
%TO.C,S56*%
X283845000Y-175895000D03*
D11*
X282575000Y-178435000D03*
D12*
X278765000Y-175895000D03*
D11*
X276225000Y-180975000D03*
D10*
X273685000Y-175895000D03*
%TD*%
%TO.C,S57*%
X302893800Y-175895000D03*
D11*
X301623800Y-178435000D03*
D12*
X297813800Y-175895000D03*
D11*
X295273800Y-180975000D03*
D10*
X292733800Y-175895000D03*
%TD*%
%TO.C,S97*%
X439410200Y-152084000D03*
D11*
X438140200Y-154624000D03*
D12*
X434330200Y-152084000D03*
D11*
X431790200Y-157164000D03*
D10*
X429250200Y-152084000D03*
%TD*%
%TO.C,S47*%
X380676400Y-253677600D03*
D11*
X379406400Y-256217600D03*
D12*
X375596400Y-253677600D03*
D11*
X373056400Y-258757600D03*
D10*
X370516400Y-253677600D03*
%TD*%
D15*
%TO.C,R2*%
X108442900Y-153671400D03*
X106442900Y-153671400D03*
%TD*%
D10*
%TO.C,S80*%
X439410200Y-233041400D03*
D11*
X438140200Y-235581400D03*
D12*
X434330200Y-233041400D03*
D11*
X431790200Y-238121400D03*
D10*
X429250200Y-233041400D03*
%TD*%
%TO.C,S1*%
X136216800Y-194943800D03*
D11*
X134946800Y-197483800D03*
D12*
X131136800Y-194943800D03*
D11*
X128596800Y-200023800D03*
D10*
X126056800Y-194943800D03*
%TD*%
%TO.C,S10*%
X312427800Y-194943800D03*
D11*
X311157800Y-197483800D03*
D12*
X307347800Y-194943800D03*
D11*
X304807800Y-200023800D03*
D10*
X302267800Y-194943800D03*
%TD*%
%TO.C,S94*%
X477507800Y-204468200D03*
D11*
X476237800Y-207008200D03*
D12*
X472427800Y-204468200D03*
D11*
X469887800Y-209548200D03*
D10*
X467347800Y-204468200D03*
%TD*%
%TO.C,S28*%
X143360100Y-233041400D03*
D11*
X142090100Y-235581400D03*
D12*
X138280100Y-233041400D03*
D11*
X135740100Y-238121400D03*
D10*
X133200100Y-233041400D03*
%TD*%
%TO.C,S70*%
X293370600Y-152084000D03*
D11*
X292100600Y-154624000D03*
D12*
X288290600Y-152084000D03*
D11*
X285750600Y-157164000D03*
D10*
X283210600Y-152084000D03*
%TD*%
%TO.C,S13*%
X369577800Y-194943800D03*
D11*
X368307800Y-197483800D03*
D12*
X364497800Y-194943800D03*
D11*
X361957800Y-200023800D03*
D10*
X359417800Y-194943800D03*
%TD*%
%TO.C,S95*%
X477507800Y-175895000D03*
D11*
X476237800Y-178435000D03*
D12*
X472427800Y-175895000D03*
D11*
X469887800Y-180975000D03*
D10*
X467347800Y-175895000D03*
%TD*%
D16*
%TO.C,REF\u002A\u002A*%
X126343300Y-226056400D03*
D17*
X126343300Y-241266400D03*
D16*
X150219300Y-226056400D03*
D17*
X150219300Y-241266400D03*
%TD*%
D10*
%TO.C,S63*%
X155265600Y-152084000D03*
D11*
X153995600Y-154624000D03*
D12*
X150185600Y-152084000D03*
D11*
X147645600Y-157164000D03*
D10*
X145105600Y-152084000D03*
%TD*%
%TO.C,S21*%
X260034000Y-213992600D03*
D11*
X258764000Y-216532600D03*
D12*
X254954000Y-213992600D03*
D11*
X252414000Y-219072600D03*
D10*
X249874000Y-213992600D03*
%TD*%
%TO.C,S65*%
X193363200Y-152084000D03*
D11*
X192093200Y-154624000D03*
D12*
X188283200Y-152084000D03*
D11*
X185743200Y-157164000D03*
D10*
X183203200Y-152084000D03*
%TD*%
D14*
%TO.C,C105*%
X88278200Y-147627900D03*
X88278200Y-149702900D03*
%TD*%
D10*
%TO.C,S25*%
X336229200Y-213992600D03*
D11*
X334959200Y-216532600D03*
D12*
X331149200Y-213992600D03*
D11*
X328609200Y-219072600D03*
D10*
X326069200Y-213992600D03*
%TD*%
%TO.C,S48*%
X131454600Y-175895000D03*
D11*
X130184600Y-178435000D03*
D12*
X126374600Y-175895000D03*
D11*
X123834600Y-180975000D03*
D10*
X121294600Y-175895000D03*
%TD*%
%TO.C,S46*%
X360040200Y-252090200D03*
D11*
X358770200Y-254630200D03*
D12*
X354960200Y-252090200D03*
D11*
X352420200Y-257170200D03*
D10*
X349880200Y-252090200D03*
%TD*%
%TO.C,S71*%
X317181600Y-152084000D03*
D11*
X315911600Y-154624000D03*
D12*
X312101600Y-152084000D03*
D11*
X309561600Y-157164000D03*
D10*
X307021600Y-152084000D03*
%TD*%
%TO.C,S4*%
X198127800Y-194943800D03*
D11*
X196857800Y-197483800D03*
D12*
X193047800Y-194943800D03*
D11*
X190507800Y-200023800D03*
D10*
X187967800Y-194943800D03*
%TD*%
%TO.C,S26*%
X355278000Y-213992600D03*
D11*
X354008000Y-216532600D03*
D12*
X350198000Y-213992600D03*
D11*
X347658000Y-219072600D03*
D10*
X345118000Y-213992600D03*
%TD*%
%TO.C,S84*%
X458459000Y-213992600D03*
D11*
X457189000Y-216532600D03*
D12*
X453379000Y-213992600D03*
D11*
X450839000Y-219072600D03*
D10*
X448299000Y-213992600D03*
%TD*%
%TO.C,S41*%
X157646700Y-252090200D03*
D11*
X156376700Y-254630200D03*
D12*
X152566700Y-252090200D03*
D11*
X150026700Y-257170200D03*
D10*
X147486700Y-252090200D03*
%TD*%
%TO.C,S17*%
X183838800Y-213992600D03*
D11*
X182568800Y-216532600D03*
D12*
X178758800Y-213992600D03*
D11*
X176218800Y-219072600D03*
D10*
X173678800Y-213992600D03*
%TD*%
%TO.C,S42*%
X181457700Y-252090200D03*
D11*
X180187700Y-254630200D03*
D12*
X176377700Y-252090200D03*
D11*
X173837700Y-257170200D03*
D10*
X171297700Y-252090200D03*
%TD*%
%TO.C,S27*%
X386232300Y-213992600D03*
D11*
X384962300Y-216532600D03*
D12*
X381152300Y-213992600D03*
D11*
X378612300Y-219072600D03*
D10*
X376072300Y-213992600D03*
%TD*%
%TO.C,S15*%
X138597900Y-213992600D03*
D11*
X137327900Y-216532600D03*
D12*
X133517900Y-213992600D03*
D11*
X130977900Y-219072600D03*
D10*
X128437900Y-213992600D03*
%TD*%
%TO.C,S43*%
X252890700Y-252090200D03*
D11*
X251620700Y-254630200D03*
D12*
X247810700Y-252090200D03*
D11*
X245270700Y-257170200D03*
D10*
X242730700Y-252090200D03*
%TD*%
%TO.C,S29*%
X174314400Y-233041400D03*
D11*
X173044400Y-235581400D03*
D12*
X169234400Y-233041400D03*
D11*
X166694400Y-238121400D03*
D10*
X164154400Y-233041400D03*
%TD*%
%TO.C,S86*%
X439410200Y-194943800D03*
D11*
X438140200Y-197483800D03*
D12*
X434330200Y-194943800D03*
D11*
X431790200Y-200023800D03*
D10*
X429250200Y-194943800D03*
%TD*%
%TO.C,S24*%
X317180400Y-213992600D03*
D11*
X315910400Y-216532600D03*
D12*
X312100400Y-213992600D03*
D11*
X309560400Y-219072600D03*
D10*
X307020400Y-213992600D03*
%TD*%
%TO.C,S69*%
X274321800Y-152084000D03*
D11*
X273051800Y-154624000D03*
D12*
X269241800Y-152084000D03*
D11*
X266701800Y-157164000D03*
D10*
X264161800Y-152084000D03*
%TD*%
%TO.C,S91*%
X439410200Y-252090200D03*
D11*
X438140200Y-254630200D03*
D12*
X434330200Y-252090200D03*
D11*
X431790200Y-257170200D03*
D10*
X429250200Y-252090200D03*
%TD*%
%TO.C,S58*%
X321942600Y-175895000D03*
D11*
X320672600Y-178435000D03*
D12*
X316862600Y-175895000D03*
D11*
X314322600Y-180975000D03*
D10*
X311782600Y-175895000D03*
%TD*%
%TO.C,S34*%
X269558400Y-233041400D03*
D11*
X268288400Y-235581400D03*
D12*
X264478400Y-233041400D03*
D11*
X261938400Y-238121400D03*
D10*
X259398400Y-233041400D03*
%TD*%
%TO.C,S64*%
X174314400Y-152084000D03*
D11*
X173044400Y-154624000D03*
D12*
X169234400Y-152084000D03*
D11*
X166694400Y-157164000D03*
D10*
X164154400Y-152084000D03*
%TD*%
D16*
%TO.C,REF\u002A\u002A*%
X479412800Y-192530200D03*
D17*
X464202800Y-192530200D03*
D16*
X479412800Y-216406200D03*
D17*
X464202800Y-216406200D03*
%TD*%
D10*
%TO.C,S79*%
X420361400Y-233041400D03*
D11*
X419091400Y-235581400D03*
D12*
X415281400Y-233041400D03*
D11*
X412741400Y-238121400D03*
D10*
X410201400Y-233041400D03*
%TD*%
%TO.C,S96*%
X420361400Y-152084000D03*
D11*
X419091400Y-154624000D03*
D12*
X415281400Y-152084000D03*
D11*
X412741400Y-157164000D03*
D10*
X410201400Y-152084000D03*
%TD*%
D16*
%TO.C,REF\u002A\u002A*%
X197811900Y-245105200D03*
D17*
X197811900Y-260315200D03*
D16*
X297811900Y-245105200D03*
D17*
X297811900Y-260315200D03*
%TD*%
D10*
%TO.C,S6*%
X236227800Y-194943800D03*
D11*
X234957800Y-197483800D03*
D12*
X231147800Y-194943800D03*
D11*
X228607800Y-200023800D03*
D10*
X226067800Y-194943800D03*
%TD*%
%TO.C,S18*%
X202887600Y-213992600D03*
D11*
X201617600Y-216532600D03*
D12*
X197807600Y-213992600D03*
D11*
X195267600Y-219072600D03*
D10*
X192727600Y-213992600D03*
%TD*%
%TO.C,S50*%
X169552200Y-175895000D03*
D11*
X168282200Y-178435000D03*
D12*
X164472200Y-175895000D03*
D11*
X161932200Y-180975000D03*
D10*
X159392200Y-175895000D03*
%TD*%
%TO.C,S12*%
X350527800Y-194943800D03*
D11*
X349257800Y-197483800D03*
D12*
X345447800Y-194943800D03*
D11*
X342907800Y-200023800D03*
D10*
X340367800Y-194943800D03*
%TD*%
%TO.C,S31*%
X212412000Y-233041400D03*
D11*
X211142000Y-235581400D03*
D12*
X207332000Y-233041400D03*
D11*
X204792000Y-238121400D03*
D10*
X202252000Y-233041400D03*
%TD*%
%TO.C,S30*%
X193363200Y-233041400D03*
D11*
X192093200Y-235581400D03*
D12*
X188283200Y-233041400D03*
D11*
X185743200Y-238121400D03*
D10*
X183203200Y-233041400D03*
%TD*%
D20*
%TO.C,A1*%
X106717900Y-143006600D03*
D21*
X106417900Y-146036600D03*
X101567900Y-146036600D03*
D20*
X101267900Y-143006600D03*
%TD*%
M02*
