M48
; DRILL file {KiCad 9.0.5} date 2025-11-17T19:03:04+0100
; FORMAT={-:-/ absolute / metric / decimal}
; #@! TF.CreationDate,2025-11-17T19:03:04+01:00
; #@! TF.GenerationSoftware,Kicad,Pcbnew,9.0.5
; #@! TF.FileFunction,Plated,1,2,PTH
FMAT,2
METRIC
; #@! TA.AperFunction,Plated,PTH,ViaDrill
T1C0.300
; #@! TA.AperFunction,Plated,PTH,ViaDrill
T2C0.400
; #@! TA.AperFunction,Plated,PTH,ComponentDrill
T3C0.500
; #@! TA.AperFunction,Plated,PTH,ViaDrill
T4C0.600
%
G90
G05
T1
X66.848Y-198.119
X70.023Y-198.119
X70.817Y-225.454
X77.166Y-241.328
X77.96Y-203.23
X79.547Y-223.073
X81.042Y-194.737
X81.929Y-171.927
X81.929Y-190.88
X82.558Y-194.944
X82.722Y-200.881
X82.722Y-204.024
X82.722Y-209.58
X83.066Y-197.992
X84.31Y-171.927
X84.31Y-190.88
X84.31Y-200.056
X85.098Y-181.451
X85.098Y-197.992
X85.103Y-147.322
X85.103Y-149.703
X85.103Y-239.741
X85.897Y-200.849
X85.897Y-203.929
X86.311Y-239.36
X88.278Y-153.671
X88.278Y-179.07
X88.278Y-181.451
X88.278Y-239.741
X89.707Y-153.037
X89.866Y-151.29
X90.659Y-154.465
X91.453Y-158.434
X91.453Y-161.608
X91.453Y-163.196
X91.453Y-164.783
X91.453Y-167.164
X91.453Y-194.15
X91.453Y-208.786
X91.453Y-241.328
X91.453Y-246.09
X91.83Y-157.152
X92.247Y-227.041
X92.254Y-244.006
X96.215Y-194.15
X97.009Y-175.101
X97.009Y-222.279
X97.803Y-170.339
X97.803Y-179.863
X97.803Y-182.245
X97.803Y-197.325
X99.39Y-152.878
X100.184Y-197.325
X100.184Y-220.692
X100.184Y-226.248
X100.604Y-217.938
X100.977Y-154.465
X100.977Y-194.944
X101.771Y-152.878
X102.565Y-219.898
X103.358Y-175.895
X103.358Y-245.296
X103.358Y-248.471
X104.152Y-171.133
X104.152Y-230.216
X104.946Y-167.164
X105.74Y-165.577
X105.74Y-194.944
X105.74Y-214.342
X105.74Y-218.311
X105.74Y-222.279
X106.533Y-187.007
X106.533Y-213.548
X106.533Y-217.517
X106.533Y-221.486
X108.121Y-146.528
X108.121Y-183.832
X108.466Y-152.018
X108.887Y-188.622
X108.914Y-216.374
X109.708Y-149.703
X109.708Y-166.371
X109.708Y-183.038
X109.708Y-196.531
X109.708Y-210.818
X109.708Y-216.374
X109.708Y-243.359
X109.708Y-248.915
X110.502Y-154.465
X110.502Y-169.545
X110.502Y-176.689
X110.502Y-179.07
X110.502Y-181.451
X110.864Y-151.256
X111.107Y-186.054
X111.295Y-167.164
X111.295Y-182.245
X111.295Y-188.594
X111.295Y-190.182
X111.311Y-173.328
X111.488Y-160.628
X112.089Y-208.437
X112.089Y-212.405
X112.883Y-195.737
X112.883Y-197.325
X112.883Y-198.912
X113.677Y-210.818
X113.683Y-178.437
X115.264Y-169.545
X115.264Y-177.482
X115.264Y-179.863
X116.058Y-187.8
X116.058Y-244.947
X116.058Y-248.122
X116.851Y-152.084
X116.851Y-154.465
X117.645Y-184.626
X117.645Y-196.531
X117.645Y-198.119
X119.233Y-159.227
X119.233Y-163.196
X119.233Y-164.783
X119.233Y-166.371
X119.233Y-167.958
X119.233Y-173.514
X119.233Y-175.101
X119.233Y-176.689
X119.233Y-183.832
X120.026Y-163.989
X120.026Y-165.577
X120.026Y-167.164
X120.026Y-178.276
X120.026Y-187.007
X121.614Y-222.723
X121.614Y-229.073
X122.407Y-189.388
X122.407Y-221.93
X123.201Y-210.818
X123.995Y-162.402
X124.788Y-192.563
X125.582Y-188.594
X125.582Y-210.024
X126.376Y-182.245
X127.169Y-190.975
X127.232Y-188.657
X127.963Y-184.626
X129.551Y-224.311
X129.551Y-235.422
X134.073Y-188.415
X134.313Y-146.528
X134.313Y-229.073
X135.106Y-184.626
X135.106Y-245.741
X135.9Y-156.846
X135.9Y-176.689
X136.694Y-245.741
X136.694Y-252.884
X137.488Y-171.927
X137.488Y-180.657
X138.281Y-248.122
X139.075Y-174.308
X139.075Y-189.388
X139.075Y-237.01
X139.075Y-245.741
X139.869Y-242.566
X141.456Y-196.531
X141.456Y-204.468
X141.456Y-207.643
X143.043Y-215.58
X144.631Y-239.391
X144.631Y-248.122
X146.218Y-227.486
X147.806Y-234.629
X149.393Y-174.308
X150.981Y-210.024
X154.155Y-175.895
X154.155Y-207.643
X154.949Y-227.486
X155.743Y-159.227
X155.743Y-175.895
X156.536Y-171.927
X156.536Y-204.468
X158.124Y-146.528
X158.917Y-204.468
X160.505Y-245.741
X162.092Y-248.122
X162.092Y-253.678
X163.68Y-189.388
X164.473Y-207.643
X164.473Y-226.692
X165.267Y-195.737
X165.267Y-229.029
X168.442Y-248.122
X169.632Y-245.344
X170.029Y-190.975
X170.029Y-209.23
X170.029Y-212.405
X170.029Y-216.374
X172.41Y-242.566
X173.998Y-159.227
X173.998Y-175.895
X173.998Y-204.468
X173.998Y-207.643
X175.585Y-171.927
X175.599Y-207.57
X177.173Y-146.528
X177.173Y-227.486
X178.76Y-236.216
X180.347Y-246.534
X181.141Y-225.104
X181.935Y-189.388
X182.728Y-195.737
X182.728Y-204.468
X182.728Y-207.643
X183.522Y-193.356
X183.522Y-198.912
X184.316Y-229.073
X185.11Y-207.643
X185.11Y-248.915
X185.903Y-174.308
X186.697Y-210.024
X187.491Y-188.594
X187.491Y-225.104
X187.491Y-246.534
X188.284Y-170.339
X188.284Y-213.199
X188.284Y-217.167
X189.078Y-190.975
X189.078Y-254.471
X189.872Y-210.024
X190.665Y-251.296
X192.129Y-245.755
X193.047Y-159.227
X193.047Y-167.958
X193.047Y-176.689
X193.047Y-247.328
X193.84Y-229.867
X194.634Y-171.927
X194.634Y-241.772
X195.428Y-242.566
X196.221Y-146.528
X196.221Y-227.486
X197.809Y-233.835
X199.396Y-229.867
X200.984Y-189.388
X200.984Y-229.073
X200.984Y-243.359
X201.777Y-148.115
X201.777Y-221.93
X202.571Y-194.944
X203.365Y-204.468
X203.365Y-208.437
X203.365Y-229.073
X204.158Y-232.248
X205.746Y-221.93
X207.333Y-213.199
X207.333Y-217.167
X208.127Y-190.975
X208.127Y-210.024
X208.127Y-225.104
X208.921Y-221.93
X208.921Y-237.804
X210.508Y-232.248
X212.095Y-159.227
X212.095Y-165.577
X212.095Y-175.895
X212.889Y-229.867
X213.683Y-171.927
X214.476Y-242.566
X215.27Y-146.528
X215.27Y-225.898
X215.27Y-233.041
X216.858Y-245.741
X217.651Y-221.93
X217.651Y-242.566
X218.445Y-226.692
X218.445Y-229.867
X218.445Y-233.041
X220.032Y-189.388
X221.62Y-194.944
X222.413Y-209.23
X222.413Y-229.073
X223.207Y-204.468
X224.795Y-207.643
X225.588Y-210.024
X225.588Y-246.534
X226.382Y-207.643
X226.382Y-212.405
X226.382Y-216.374
X227.176Y-190.975
X227.969Y-207.643
X227.969Y-210.024
X230.35Y-165.577
X231.144Y-164.783
X231.144Y-175.895
X231.938Y-165.577
X233.525Y-242.566
X233.525Y-246.534
X235.906Y-233.041
X235.906Y-242.566
X235.906Y-247.328
X235.906Y-252.09
X236.7Y-160.021
X237.494Y-247.328
X239.081Y-189.388
X239.875Y-248.122
X240.669Y-194.944
X241.462Y-229.073
X242.256Y-204.468
X243.816Y-207.643
X244.637Y-210.024
X245.431Y-207.643
X245.431Y-212.405
X245.431Y-216.374
X246.224Y-190.975
X246.224Y-210.024
X247.018Y-207.643
X249.399Y-256.059
X250.193Y-250.503
X250.987Y-175.101
X251.78Y-171.927
X251.78Y-246.534
X252.574Y-248.915
X254.161Y-228.279
X255.749Y-160.021
X255.749Y-227.486
X255.749Y-232.248
X256.543Y-233.041
X256.543Y-234.629
X257.336Y-143.353
X257.336Y-253.678
X258.13Y-146.528
X258.13Y-189.388
X259.717Y-147.322
X259.717Y-194.944
X260.511Y-149.703
X260.511Y-226.692
X260.511Y-229.073
X261.305Y-204.468
X262.892Y-207.643
X263.686Y-192.563
X264.48Y-207.643
X264.48Y-212.405
X264.48Y-215.58
X265.273Y-143.353
X265.273Y-260.821
X266.067Y-207.643
X266.067Y-210.024
X266.861Y-149.703
X267.654Y-263.202
X268.448Y-171.927
X269.242Y-242.566
X269.242Y-263.202
X270.036Y-175.101
X270.829Y-168.752
X270.829Y-171.927
X271.623Y-242.566
X272.417Y-227.486
X272.417Y-245.741
X273.21Y-229.867
X274.798Y-230.66
X274.798Y-235.422
X274.798Y-242.566
X274.798Y-245.741
X275.591Y-160.021
X277.179Y-189.388
X277.972Y-146.528
X278.766Y-164.783
X279.56Y-160.021
X279.56Y-195.737
X279.56Y-229.073
X280.354Y-204.468
X281.941Y-207.643
X282.735Y-149.703
X283.528Y-207.643
X283.528Y-212.405
X283.528Y-215.58
X285.116Y-207.643
X285.116Y-210.024
X287.497Y-164.783
X289.084Y-165.577
X289.084Y-175.101
X289.878Y-171.927
X289.878Y-257.646
X291.465Y-164.783
X291.465Y-227.486
X291.465Y-242.566
X291.465Y-245.741
X293.846Y-235.422
X293.846Y-242.566
X293.846Y-247.328
X294.64Y-160.021
X296.228Y-189.388
X296.228Y-240.978
X297.021Y-146.528
X297.815Y-187.007
X297.815Y-194.944
X297.815Y-204.468
X298.609Y-184.626
X298.609Y-193.356
X298.609Y-196.531
X298.609Y-229.073
X300.99Y-187.007
X300.99Y-207.643
X302.577Y-212.405
X302.577Y-215.58
X303.371Y-207.643
X303.371Y-209.23
X304.958Y-240.978
X307.339Y-260.821
X308.133Y-175.895
X308.927Y-171.927
X308.927Y-248.122
X311.308Y-227.486
X312.102Y-235.422
X315.276Y-187.007
X315.276Y-189.388
X316.07Y-204.468
X316.199Y-186.213
X316.199Y-196.531
X316.864Y-198.119
X317.657Y-187.007
X317.657Y-210.818
X318.424Y-208.409
X318.451Y-160.021
X320.039Y-207.643
X320.039Y-209.23
X321.626Y-146.528
X321.626Y-212.405
X321.626Y-215.58
X321.626Y-246.534
X321.626Y-248.915
X323.213Y-207.643
X323.213Y-210.024
X324.801Y-245.741
X325.594Y-248.122
X326.388Y-171.927
X326.388Y-260.821
X327.976Y-175.101
X327.976Y-245.741
X327.976Y-248.122
X329.563Y-227.486
X330.232Y-171.008
X331.944Y-235.422
X334.325Y-189.388
X335.119Y-187.007
X335.913Y-194.944
X336.706Y-187.007
X336.706Y-204.468
X336.706Y-229.073
X337.5Y-160.021
X339.06Y-208.409
X339.881Y-146.528
X339.881Y-207.643
X340.675Y-212.405
X340.675Y-215.58
X340.675Y-260.821
X341.469Y-207.643
X341.469Y-210.024
X341.469Y-246.534
X341.469Y-248.915
X342.262Y-261.615
X343.85Y-260.027
X344.643Y-263.202
X345.41Y-165.549
X345.437Y-175.895
X346.231Y-255.265
X347.024Y-171.927
X347.024Y-248.122
X347.024Y-261.615
X347.818Y-260.027
X348.612Y-163.196
X348.612Y-227.486
X348.612Y-237.804
X349.405Y-233.835
X349.405Y-245.741
X350.199Y-228.279
X350.993Y-245.741
X353.374Y-263.202
X353.673Y-186.75
X354.168Y-160.021
X354.168Y-189.388
X354.961Y-194.944
X356.092Y-186.773
X356.549Y-204.468
X358.93Y-146.528
X359.724Y-207.643
X360.517Y-259.233
X361.311Y-212.405
X361.311Y-215.58
X362.105Y-229.073
X362.898Y-226.692
X363.692Y-260.821
X364.486Y-175.101
X364.486Y-254.471
X364.486Y-259.233
X367.148Y-167.414
X367.661Y-163.196
X367.661Y-248.915
X368.454Y-165.577
X370.042Y-162.402
X370.835Y-163.196
X372.423Y-189.388
X372.423Y-207.643
X372.423Y-210.024
X372.423Y-237.01
X373.216Y-200.5
X373.216Y-202.881
X373.216Y-238.597
X374.01Y-165.577
X374.417Y-167.495
X374.804Y-194.15
X375.598Y-159.227
X375.598Y-173.514
X375.598Y-235.422
X377.979Y-146.528
X377.979Y-169.545
X377.979Y-173.514
X379.566Y-228.279
X379.566Y-229.867
X380.36Y-230.66
X381.154Y-248.915
X381.154Y-250.503
X385.122Y-257.646
X385.916Y-247.328
X385.916Y-252.09
X386.709Y-249.709
X387.503Y-203.674
X389.09Y-224.311
X390.678Y-207.643
X390.678Y-230.66
X391.472Y-210.818
X393.059Y-165.577
X393.059Y-167.958
X393.853Y-210.818
X394.646Y-262.408
X395.44Y-175.101
X395.44Y-207.643
X396.234Y-190.182
X396.234Y-192.563
X396.241Y-191.589
X397.027Y-200.5
X397.027Y-202.087
X397.821Y-163.989
X398.615Y-248.122
X399.349Y-167.72
X399.409Y-160.815
X399.409Y-165.577
X399.409Y-172.72
X400.202Y-248.915
X400.202Y-250.503
X400.996Y-163.196
X401.79Y-200.5
X401.79Y-207.643
X401.79Y-211.611
X402.583Y-226.828
X402.583Y-229.073
X403.377Y-214.786
X403.377Y-234.629
X403.4Y-191.724
X404.171Y-198.119
X404.171Y-233.041
X404.171Y-249.709
X404.964Y-189.388
X404.964Y-200.5
X404.964Y-247.328
X404.964Y-252.09
X405.758Y-186.213
X405.758Y-189.388
X405.758Y-191.769
X405.758Y-194.15
X405.758Y-207.643
X405.758Y-213.993
X405.758Y-249.709
X405.758Y-262.408
X406.552Y-189.388
X406.552Y-214.786
X407.346Y-165.577
X407.346Y-171.927
X407.346Y-191.769
X407.346Y-209.23
X408.139Y-164.783
X408.933Y-225.104
X408.933Y-229.073
X408.933Y-252.09
X410.52Y-207.643
X411.314Y-187.007
X411.314Y-188.594
X411.314Y-190.182
X411.314Y-228.129
X412.108Y-243.359
X416.87Y-252.884
X417.664Y-248.122
X418.457Y-247.328
X418.457Y-248.915
X418.457Y-250.503
X420.045Y-208.437
X420.045Y-260.821
X420.838Y-229.867
X420.838Y-244.153
X421.632Y-185.419
X421.632Y-222.723
X421.632Y-225.104
X421.632Y-247.328
X421.632Y-253.678
X422.426Y-244.153
X423.22Y-146.528
X423.22Y-167.164
X423.22Y-175.895
X423.22Y-184.626
X423.22Y-189.388
X423.22Y-229.867
X423.22Y-232.248
X423.22Y-248.915
X424.013Y-171.927
X424.013Y-210.024
X424.013Y-218.755
X424.013Y-220.342
X424.013Y-225.104
X424.013Y-227.486
X424.807Y-157.64
X424.807Y-186.213
X424.807Y-205.262
X424.807Y-224.311
X424.807Y-238.597
X424.807Y-245.741
X425.601Y-189.388
X425.601Y-199.706
X425.601Y-209.23
X425.601Y-227.486
X425.601Y-254.471
X426.394Y-197.325
X426.394Y-242.566
X426.394Y-245.741
X427.188Y-183.832
X428.775Y-209.08
X428.775Y-245.741
X428.775Y-247.178
X428.775Y-249.209
X429.569Y-249.709
X430.363Y-229.073
X434.331Y-237.01
X436.712Y-174.308
X438.3Y-208.437
X438.3Y-212.405
X438.3Y-247.328
X438.3Y-248.915
X439.887Y-167.164
X440.681Y-164.783
X442.268Y-146.528
X442.268Y-189.388
X442.268Y-227.486
X442.268Y-248.915
X442.268Y-250.503
X443.062Y-216.374
X443.062Y-242.566
X443.062Y-245.741
X443.062Y-252.09
X443.856Y-158.434
X443.856Y-248.915
X443.856Y-250.503
X443.905Y-194.993
X444.649Y-242.566
X444.649Y-245.741
X444.649Y-251.296
X444.649Y-252.09
X445.443Y-171.927
X445.443Y-210.024
X445.443Y-236.216
X445.443Y-240.185
X445.443Y-245.741
X445.443Y-248.122
X445.845Y-242.83
X447.824Y-245.741
X448.618Y-190.975
X449.412Y-211.611
X449.412Y-229.073
X449.412Y-245.741
X455.761Y-241.772
X457.349Y-212.405
X457.349Y-246.534
X458.142Y-247.328
X458.142Y-248.915
X458.936Y-164.783
X458.936Y-242.566
X461.317Y-146.528
X461.317Y-230.66
X461.317Y-246.534
X461.317Y-249.709
X462.111Y-156.052
X462.111Y-163.196
X462.111Y-171.927
X462.111Y-213.993
X462.905Y-190.182
X462.905Y-245.741
X462.905Y-248.915
X465.286Y-202.087
X466.873Y-240.185
X468.46Y-165.577
X468.46Y-237.804
X468.46Y-244.153
X469.254Y-242.566
X469.254Y-244.153
X470.842Y-191.769
X473.223Y-194.15
X473.223Y-196.531
X473.223Y-252.884
X474.81Y-247.328
X475.604Y-196.531
X476.397Y-198.912
X476.397Y-210.818
X476.397Y-239.391
X476.397Y-240.978
X477.191Y-158.434
X477.191Y-235.422
X477.985Y-200.5
X480.366Y-148.909
X480.366Y-180.657
X481.16Y-145.734
X481.16Y-148.115
X481.16Y-150.497
X481.16Y-157.64
X481.16Y-160.815
X481.16Y-163.989
X481.16Y-167.164
X481.16Y-169.545
X481.16Y-176.689
X481.953Y-247.328
X482.747Y-142.56
T2
X92.247Y-148.115
X116.058Y-148.115
X117.645Y-179.863
X122.407Y-148.115
X123.201Y-186.213
X150.981Y-190.975
X179.554Y-145.171
X185.11Y-189.388
X186.697Y-175.101
X188.284Y-210.024
X189.078Y-252.09
X216.858Y-227.486
X254.955Y-227.486
X259.717Y-145.171
X300.99Y-175.101
X308.133Y-148.115
X317.657Y-189.388
X319.245Y-210.024
X345.437Y-248.122
X350.993Y-227.486
X360.517Y-190.975
X379.566Y-145.171
X379.566Y-248.122
X404.964Y-227.486
X408.139Y-173.514
X408.139Y-187.8
X408.139Y-211.611
X477.191Y-144.941
X478.779Y-160.815
X481.953Y-175.101
T3
X85.191Y-151.734
X86.191Y-151.734
X87.191Y-151.734
X88.191Y-151.734
T4
X68.436Y-145.734
X70.023Y-146.528
X109.708Y-146.528
X110.105Y-147.719
M30
